<svg width="588" height="317" viewBox="0 0 588 317" fill="none" xmlns="http://www.w3.org/2000/svg">
<path d="M5.28516 9.13477H6.46875V10.0195H5.28516V12H4.19531V10.0195H0.310547V9.38086L4.13086 3.46875H5.28516V9.13477ZM1.54102 9.13477H4.19531V4.95117L4.06641 5.18555L1.54102 9.13477ZM13.1969 8.36133C13.1969 9.63086 12.9801 10.5742 12.5465 11.1914C12.1129 11.8086 11.4352 12.1172 10.5133 12.1172C9.60313 12.1172 8.9293 11.8164 8.4918 11.2148C8.0543 10.6094 7.82773 9.70703 7.81211 8.50781V7.06055C7.81211 5.80664 8.02891 4.875 8.4625 4.26562C8.89609 3.65625 9.57578 3.35156 10.5016 3.35156C11.4195 3.35156 12.0953 3.64648 12.5289 4.23633C12.9625 4.82227 13.1852 5.72852 13.1969 6.95508V8.36133ZM12.1129 6.87891C12.1129 5.96094 11.984 5.29297 11.7262 4.875C11.4684 4.45312 11.0602 4.24219 10.5016 4.24219C9.94688 4.24219 9.54258 4.45117 9.28867 4.86914C9.03477 5.28711 8.90391 5.92969 8.89609 6.79688V8.53125C8.89609 9.45312 9.02891 10.1348 9.29453 10.5762C9.56406 11.0137 9.97031 11.2324 10.5133 11.2324C11.0484 11.2324 11.4449 11.0254 11.7027 10.6113C11.9645 10.1973 12.1012 9.54492 12.1129 8.6543V6.87891Z" fill="#718096"/>
<path d="M2.28516 78.207H3.09961C3.61133 78.1992 4.01367 78.0645 4.30664 77.8027C4.59961 77.541 4.74609 77.1875 4.74609 76.7422C4.74609 75.7422 4.24805 75.2422 3.25195 75.2422C2.7832 75.2422 2.4082 75.377 2.12695 75.6465C1.84961 75.9121 1.71094 76.2656 1.71094 76.707H0.626953C0.626953 76.0312 0.873047 75.4707 1.36523 75.0254C1.86133 74.5762 2.49023 74.3516 3.25195 74.3516C4.05664 74.3516 4.6875 74.5645 5.14453 74.9902C5.60156 75.416 5.83008 76.0078 5.83008 76.7656C5.83008 77.1367 5.70898 77.4961 5.4668 77.8438C5.22852 78.1914 4.90234 78.4512 4.48828 78.623C4.95703 78.7715 5.31836 79.0176 5.57227 79.3613C5.83008 79.7051 5.95898 80.125 5.95898 80.6211C5.95898 81.3867 5.70898 81.9941 5.20898 82.4434C4.70898 82.8926 4.05859 83.1172 3.25781 83.1172C2.45703 83.1172 1.80469 82.9004 1.30078 82.4668C0.800781 82.0332 0.550781 81.4609 0.550781 80.75H1.64062C1.64062 81.1992 1.78711 81.5586 2.08008 81.8281C2.37305 82.0977 2.76562 82.2324 3.25781 82.2324C3.78125 82.2324 4.18164 82.0957 4.45898 81.8223C4.73633 81.5488 4.875 81.1562 4.875 80.6445C4.875 80.1484 4.72266 79.7676 4.41797 79.502C4.11328 79.2363 3.67383 79.0996 3.09961 79.0918H2.28516V78.207ZM13.1969 79.3613C13.1969 80.6309 12.9801 81.5742 12.5465 82.1914C12.1129 82.8086 11.4352 83.1172 10.5133 83.1172C9.60313 83.1172 8.9293 82.8164 8.4918 82.2148C8.0543 81.6094 7.82773 80.707 7.81211 79.5078V78.0605C7.81211 76.8066 8.02891 75.875 8.4625 75.2656C8.89609 74.6562 9.57578 74.3516 10.5016 74.3516C11.4195 74.3516 12.0953 74.6465 12.5289 75.2363C12.9625 75.8223 13.1852 76.7285 13.1969 77.9551V79.3613ZM12.1129 77.8789C12.1129 76.9609 11.984 76.293 11.7262 75.875C11.4684 75.4531 11.0602 75.2422 10.5016 75.2422C9.94688 75.2422 9.54258 75.4512 9.28867 75.8691C9.03477 76.2871 8.90391 76.9297 8.89609 77.7969V79.5312C8.89609 80.4531 9.02891 81.1348 9.29453 81.5762C9.56406 82.0137 9.97031 82.2324 10.5133 82.2324C11.0484 82.2324 11.4449 82.0254 11.7027 81.6113C11.9645 81.1973 12.1012 80.5449 12.1129 79.6543V77.8789Z" fill="#718096"/>
<path d="M6.29883 154H0.708984V153.221L3.66211 149.939C4.09961 149.443 4.40039 149.041 4.56445 148.732C4.73242 148.42 4.81641 148.098 4.81641 147.766C4.81641 147.32 4.68164 146.955 4.41211 146.67C4.14258 146.385 3.7832 146.242 3.33398 146.242C2.79492 146.242 2.375 146.396 2.07422 146.705C1.77734 147.01 1.62891 147.436 1.62891 147.982H0.544922C0.544922 147.197 0.796875 146.562 1.30078 146.078C1.80859 145.594 2.48633 145.352 3.33398 145.352C4.12695 145.352 4.75391 145.561 5.21484 145.979C5.67578 146.393 5.90625 146.945 5.90625 147.637C5.90625 148.477 5.37109 149.477 4.30078 150.637L2.01562 153.115H6.29883V154ZM13.1969 150.361C13.1969 151.631 12.9801 152.574 12.5465 153.191C12.1129 153.809 11.4352 154.117 10.5133 154.117C9.60313 154.117 8.9293 153.816 8.4918 153.215C8.0543 152.609 7.82773 151.707 7.81211 150.508V149.061C7.81211 147.807 8.02891 146.875 8.4625 146.266C8.89609 145.656 9.57578 145.352 10.5016 145.352C11.4195 145.352 12.0953 145.646 12.5289 146.236C12.9625 146.822 13.1852 147.729 13.1969 148.955V150.361ZM12.1129 148.879C12.1129 147.961 11.984 147.293 11.7262 146.875C11.4684 146.453 11.0602 146.242 10.5016 146.242C9.94688 146.242 9.54258 146.451 9.28867 146.869C9.03477 147.287 8.90391 147.93 8.89609 148.797V150.531C8.89609 151.453 9.02891 152.135 9.29453 152.576C9.56406 153.014 9.97031 153.232 10.5133 153.232C11.0484 153.232 11.4449 153.025 11.7027 152.611C11.9645 152.197 12.1012 151.545 12.1129 150.654V148.879Z" fill="#718096"/>
<path d="M4.27148 225H3.18164V217.775L0.996094 218.578V217.594L4.10156 216.428H4.27148V225ZM13.1969 221.361C13.1969 222.631 12.9801 223.574 12.5465 224.191C12.1129 224.809 11.4352 225.117 10.5133 225.117C9.60313 225.117 8.9293 224.816 8.4918 224.215C8.0543 223.609 7.82773 222.707 7.81211 221.508V220.061C7.81211 218.807 8.02891 217.875 8.4625 217.266C8.89609 216.656 9.57578 216.352 10.5016 216.352C11.4195 216.352 12.0953 216.646 12.5289 217.236C12.9625 217.822 13.1852 218.729 13.1969 219.955V221.361ZM12.1129 219.879C12.1129 218.961 11.984 218.293 11.7262 217.875C11.4684 217.453 11.0602 217.242 10.5016 217.242C9.94688 217.242 9.54258 217.451 9.28867 217.869C9.03477 218.287 8.90391 218.93 8.89609 219.797V221.531C8.89609 222.453 9.02891 223.135 9.29453 223.576C9.56406 224.014 9.97031 224.232 10.5133 224.232C11.0484 224.232 11.4449 224.025 11.7027 223.611C11.9645 223.197 12.1012 222.545 12.1129 221.654V219.879Z" fill="#718096"/>
<path d="M13.0586 292.361C13.0586 293.631 12.8418 294.574 12.4082 295.191C11.9746 295.809 11.2969 296.117 10.375 296.117C9.46484 296.117 8.79102 295.816 8.35352 295.215C7.91602 294.609 7.68945 293.707 7.67383 292.508V291.061C7.67383 289.807 7.89062 288.875 8.32422 288.266C8.75781 287.656 9.4375 287.352 10.3633 287.352C11.2812 287.352 11.957 287.646 12.3906 288.236C12.8242 288.822 13.0469 289.729 13.0586 290.955V292.361ZM11.9746 290.879C11.9746 289.961 11.8457 289.293 11.5879 288.875C11.3301 288.453 10.9219 288.242 10.3633 288.242C9.80859 288.242 9.4043 288.451 9.15039 288.869C8.89648 289.287 8.76562 289.93 8.75781 290.797V292.531C8.75781 293.453 8.89062 294.135 9.15625 294.576C9.42578 295.014 9.83203 295.232 10.375 295.232C10.9102 295.232 11.3066 295.025 11.5645 294.611C11.8262 294.197 11.9629 293.545 11.9746 292.654V290.879Z" fill="#718096"/>
<path d="M72.5426 304.469H73.6734V310.51C73.6734 311.326 73.4273 311.965 72.9352 312.426C72.4469 312.887 71.7945 313.117 70.9781 313.117C70.1305 313.117 69.4703 312.9 68.9977 312.467C68.525 312.033 68.2887 311.426 68.2887 310.645H69.4137C69.4137 311.133 69.5465 311.514 69.8121 311.787C70.0816 312.061 70.4703 312.197 70.9781 312.197C71.443 312.197 71.818 312.051 72.1031 311.758C72.3922 311.465 72.5387 311.055 72.5426 310.527V304.469ZM79.7336 312.373C79.3117 312.869 78.6926 313.117 77.8762 313.117C77.2004 313.117 76.6848 312.922 76.3293 312.531C75.9777 312.137 75.8 311.555 75.7961 310.785V306.66H76.8801V310.756C76.8801 311.717 77.2707 312.197 78.052 312.197C78.8801 312.197 79.4309 311.889 79.7043 311.271V306.66H80.7883V313H79.757L79.7336 312.373ZM84.0184 313H82.9344V304H84.0184V313ZM88.2328 311.412L89.7094 306.66H90.8695L88.3207 313.979C87.9262 315.033 87.2992 315.561 86.4398 315.561L86.2348 315.543L85.8305 315.467V314.588L86.1234 314.611C86.4906 314.611 86.7758 314.537 86.9789 314.389C87.1859 314.24 87.3559 313.969 87.4887 313.574L87.7289 312.93L85.4672 306.66H86.6508L88.2328 311.412Z" fill="#718096"/>
<path d="M160.275 310.773H156.701L155.898 313H154.738L157.996 304.469H158.98L162.244 313H161.09L160.275 310.773ZM157.041 309.848H159.941L158.488 305.857L157.041 309.848ZM167.466 312.373C167.045 312.869 166.425 313.117 165.609 313.117C164.933 313.117 164.418 312.922 164.062 312.531C163.711 312.137 163.533 311.555 163.529 310.785V306.66H164.613V310.756C164.613 311.717 165.004 312.197 165.785 312.197C166.613 312.197 167.164 311.889 167.437 311.271V306.66H168.521V313H167.49L167.466 312.373ZM170.316 309.777C170.316 308.789 170.544 308.004 171.001 307.422C171.458 306.836 172.064 306.543 172.818 306.543C173.591 306.543 174.195 306.816 174.628 307.363L174.681 306.66H175.671V312.848C175.671 313.668 175.427 314.314 174.939 314.787C174.454 315.26 173.802 315.496 172.982 315.496C172.525 315.496 172.077 315.398 171.64 315.203C171.202 315.008 170.868 314.74 170.638 314.4L171.2 313.75C171.665 314.324 172.234 314.611 172.905 314.611C173.433 314.611 173.843 314.463 174.136 314.166C174.433 313.869 174.581 313.451 174.581 312.912V312.367C174.148 312.867 173.556 313.117 172.806 313.117C172.064 313.117 171.462 312.818 171.001 312.221C170.544 311.623 170.316 310.809 170.316 309.777ZM171.405 309.9C171.405 310.615 171.552 311.178 171.845 311.588C172.138 311.994 172.548 312.197 173.075 312.197C173.759 312.197 174.261 311.887 174.581 311.266V308.371C174.249 307.766 173.751 307.463 173.087 307.463C172.56 307.463 172.148 307.668 171.851 308.078C171.554 308.488 171.405 309.096 171.405 309.9ZM181.626 312.373C181.204 312.869 180.585 313.117 179.768 313.117C179.093 313.117 178.577 312.922 178.221 312.531C177.87 312.137 177.692 311.555 177.688 310.785V306.66H178.772V310.756C178.772 311.717 179.163 312.197 179.944 312.197C180.772 312.197 181.323 311.889 181.596 311.271V306.66H182.68V313H181.649L181.626 312.373ZM188.424 311.318C188.424 311.025 188.313 310.799 188.09 310.639C187.871 310.475 187.487 310.334 186.936 310.217C186.389 310.1 185.954 309.959 185.629 309.795C185.309 309.631 185.071 309.436 184.914 309.209C184.762 308.982 184.686 308.713 184.686 308.4C184.686 307.881 184.905 307.441 185.342 307.082C185.784 306.723 186.346 306.543 187.03 306.543C187.748 306.543 188.33 306.729 188.776 307.1C189.225 307.471 189.45 307.945 189.45 308.523H188.36C188.36 308.227 188.233 307.971 187.979 307.756C187.729 307.541 187.412 307.434 187.03 307.434C186.635 307.434 186.327 307.52 186.104 307.691C185.881 307.863 185.77 308.088 185.77 308.365C185.77 308.627 185.873 308.824 186.08 308.957C186.287 309.09 186.661 309.217 187.2 309.338C187.743 309.459 188.182 309.604 188.518 309.771C188.854 309.939 189.102 310.143 189.262 310.381C189.426 310.615 189.508 310.902 189.508 311.242C189.508 311.809 189.282 312.264 188.829 312.607C188.375 312.947 187.787 313.117 187.065 313.117C186.557 313.117 186.108 313.027 185.717 312.848C185.327 312.668 185.02 312.418 184.797 312.098C184.579 311.773 184.469 311.424 184.469 311.049H185.553C185.573 311.412 185.717 311.701 185.987 311.916C186.26 312.127 186.62 312.232 187.065 312.232C187.475 312.232 187.803 312.15 188.049 311.986C188.299 311.818 188.424 311.596 188.424 311.318ZM192.791 305.125V306.66H193.975V307.498H192.791V311.43C192.791 311.684 192.844 311.875 192.949 312.004C193.055 312.129 193.234 312.191 193.488 312.191C193.613 312.191 193.785 312.168 194.004 312.121V313C193.719 313.078 193.441 313.117 193.172 313.117C192.688 313.117 192.322 312.971 192.076 312.678C191.83 312.385 191.707 311.969 191.707 311.43V307.498H190.553V306.66H191.707V305.125H192.791Z" fill="#718096"/>
<path d="M242.3 309.197C241.336 308.92 240.632 308.58 240.191 308.178C239.754 307.771 239.535 307.271 239.535 306.678C239.535 306.006 239.802 305.451 240.337 305.014C240.877 304.572 241.576 304.352 242.435 304.352C243.021 304.352 243.543 304.465 244 304.691C244.461 304.918 244.816 305.23 245.066 305.629C245.32 306.027 245.447 306.463 245.447 306.936H244.316C244.316 306.42 244.152 306.016 243.824 305.723C243.496 305.426 243.033 305.277 242.435 305.277C241.88 305.277 241.447 305.4 241.134 305.646C240.826 305.889 240.671 306.227 240.671 306.66C240.671 307.008 240.818 307.303 241.111 307.545C241.408 307.783 241.91 308.002 242.617 308.201C243.328 308.4 243.882 308.621 244.281 308.863C244.683 309.102 244.98 309.381 245.171 309.701C245.367 310.021 245.464 310.398 245.464 310.832C245.464 311.523 245.195 312.078 244.656 312.496C244.117 312.91 243.396 313.117 242.494 313.117C241.908 313.117 241.361 313.006 240.853 312.783C240.345 312.557 239.953 312.248 239.675 311.857C239.402 311.467 239.265 311.023 239.265 310.527H240.396C240.396 311.043 240.586 311.451 240.964 311.752C241.347 312.049 241.857 312.197 242.494 312.197C243.087 312.197 243.543 312.076 243.859 311.834C244.175 311.592 244.334 311.262 244.334 310.844C244.334 310.426 244.187 310.104 243.894 309.877C243.601 309.646 243.07 309.42 242.3 309.197ZM249.773 313.117C248.913 313.117 248.214 312.836 247.675 312.273C247.136 311.707 246.866 310.951 246.866 310.006V309.807C246.866 309.178 246.986 308.617 247.224 308.125C247.466 307.629 247.802 307.242 248.232 306.965C248.665 306.684 249.134 306.543 249.638 306.543C250.462 306.543 251.103 306.814 251.56 307.357C252.017 307.9 252.245 308.678 252.245 309.689V310.141H247.95C247.966 310.766 248.148 311.271 248.495 311.658C248.847 312.041 249.292 312.232 249.831 312.232C250.214 312.232 250.538 312.154 250.804 311.998C251.07 311.842 251.302 311.635 251.501 311.377L252.163 311.893C251.632 312.709 250.835 313.117 249.773 313.117ZM249.638 307.434C249.2 307.434 248.833 307.594 248.536 307.914C248.239 308.23 248.056 308.676 247.986 309.25H251.161V309.168C251.13 308.617 250.982 308.191 250.716 307.891C250.45 307.586 250.091 307.434 249.638 307.434ZM259.261 309.9C259.261 310.865 259.04 311.643 258.598 312.232C258.157 312.822 257.559 313.117 256.805 313.117C256.036 313.117 255.43 312.873 254.989 312.385V315.438H253.905V306.66H254.895L254.948 307.363C255.389 306.816 256.003 306.543 256.788 306.543C257.55 306.543 258.151 306.83 258.593 307.404C259.038 307.979 259.261 308.777 259.261 309.801V309.9ZM258.177 309.777C258.177 309.062 258.024 308.498 257.72 308.084C257.415 307.67 256.997 307.463 256.466 307.463C255.809 307.463 255.317 307.754 254.989 308.336V311.365C255.313 311.943 255.809 312.232 256.477 312.232C256.997 312.232 257.409 312.027 257.714 311.617C258.022 311.203 258.177 310.59 258.177 309.777ZM262.514 305.125V306.66H263.698V307.498H262.514V311.43C262.514 311.684 262.567 311.875 262.672 312.004C262.778 312.129 262.957 312.191 263.211 312.191C263.336 312.191 263.508 312.168 263.727 312.121V313C263.442 313.078 263.164 313.117 262.895 313.117C262.411 313.117 262.045 312.971 261.799 312.678C261.553 312.385 261.43 311.969 261.43 311.43V307.498H260.276V306.66H261.43V305.125H262.514ZM268 313.117C267.141 313.117 266.441 312.836 265.902 312.273C265.363 311.707 265.094 310.951 265.094 310.006V309.807C265.094 309.178 265.213 308.617 265.451 308.125C265.693 307.629 266.029 307.242 266.459 306.965C266.893 306.684 267.361 306.543 267.865 306.543C268.689 306.543 269.33 306.814 269.787 307.357C270.244 307.9 270.473 308.678 270.473 309.689V310.141H266.178C266.193 310.766 266.375 311.271 266.723 311.658C267.074 312.041 267.52 312.232 268.059 312.232C268.441 312.232 268.766 312.154 269.031 311.998C269.297 311.842 269.529 311.635 269.729 311.377L270.391 311.893C269.859 312.709 269.062 313.117 268 313.117ZM267.865 307.434C267.428 307.434 267.061 307.594 266.764 307.914C266.467 308.23 266.283 308.676 266.213 309.25H269.389V309.168C269.357 308.617 269.209 308.191 268.943 307.891C268.678 307.586 268.318 307.434 267.865 307.434ZM273.152 306.66L273.181 307.363C273.646 306.816 274.273 306.543 275.062 306.543C275.949 306.543 276.552 306.883 276.873 307.562C277.084 307.258 277.357 307.012 277.693 306.824C278.033 306.637 278.433 306.543 278.894 306.543C280.285 306.543 280.992 307.279 281.015 308.752V313H279.931V308.816C279.931 308.363 279.828 308.025 279.621 307.803C279.414 307.576 279.066 307.463 278.578 307.463C278.175 307.463 277.841 307.584 277.576 307.826C277.31 308.064 277.156 308.387 277.113 308.793V313H276.023V308.846C276.023 307.924 275.572 307.463 274.67 307.463C273.959 307.463 273.472 307.766 273.211 308.371V313H272.127V306.66H273.152ZM288.423 309.9C288.423 310.869 288.2 311.648 287.755 312.238C287.31 312.824 286.712 313.117 285.962 313.117C285.161 313.117 284.542 312.834 284.105 312.268L284.052 313H283.056V304H284.14V307.357C284.577 306.814 285.181 306.543 285.95 306.543C286.72 306.543 287.323 306.834 287.761 307.416C288.202 307.998 288.423 308.795 288.423 309.807V309.9ZM287.339 309.777C287.339 309.039 287.196 308.469 286.911 308.066C286.626 307.664 286.216 307.463 285.681 307.463C284.966 307.463 284.452 307.795 284.14 308.459V311.201C284.472 311.865 284.989 312.197 285.693 312.197C286.212 312.197 286.616 311.996 286.905 311.594C287.195 311.191 287.339 310.586 287.339 309.777ZM292.825 313.117C291.966 313.117 291.266 312.836 290.727 312.273C290.188 311.707 289.919 310.951 289.919 310.006V309.807C289.919 309.178 290.038 308.617 290.276 308.125C290.518 307.629 290.854 307.242 291.284 306.965C291.718 306.684 292.186 306.543 292.69 306.543C293.514 306.543 294.155 306.814 294.612 307.357C295.069 307.9 295.298 308.678 295.298 309.689V310.141H291.003C291.018 310.766 291.2 311.271 291.548 311.658C291.899 312.041 292.345 312.232 292.884 312.232C293.266 312.232 293.591 312.154 293.856 311.998C294.122 311.842 294.354 311.635 294.554 311.377L295.216 311.893C294.684 312.709 293.887 313.117 292.825 313.117ZM292.69 307.434C292.253 307.434 291.886 307.594 291.589 307.914C291.292 308.23 291.108 308.676 291.038 309.25H294.214V309.168C294.182 308.617 294.034 308.191 293.768 307.891C293.503 307.586 293.143 307.434 292.69 307.434ZM300.022 307.633C299.858 307.605 299.68 307.592 299.489 307.592C298.778 307.592 298.295 307.895 298.041 308.5V313H296.957V306.66H298.012L298.03 307.393C298.385 306.826 298.889 306.543 299.541 306.543C299.752 306.543 299.912 306.57 300.022 306.625V307.633Z" fill="#718096"/>
<path d="M349.677 309.01C349.677 309.846 349.536 310.576 349.255 311.201C348.974 311.822 348.575 312.297 348.06 312.625C347.544 312.953 346.943 313.117 346.255 313.117C345.583 313.117 344.987 312.953 344.468 312.625C343.948 312.293 343.544 311.822 343.255 311.213C342.97 310.6 342.823 309.891 342.816 309.086V308.471C342.816 307.65 342.958 306.926 343.243 306.297C343.529 305.668 343.931 305.188 344.45 304.855C344.974 304.52 345.571 304.352 346.243 304.352C346.927 304.352 347.529 304.518 348.048 304.85C348.571 305.178 348.974 305.656 349.255 306.285C349.536 306.91 349.677 307.639 349.677 308.471V309.01ZM348.558 308.459C348.558 307.447 348.355 306.672 347.948 306.133C347.542 305.59 346.974 305.318 346.243 305.318C345.532 305.318 344.972 305.59 344.562 306.133C344.155 306.672 343.946 307.422 343.935 308.383V309.01C343.935 309.99 344.14 310.762 344.55 311.324C344.964 311.883 345.532 312.162 346.255 312.162C346.982 312.162 347.544 311.898 347.943 311.371C348.341 310.84 348.546 310.08 348.558 309.092V308.459ZM354.137 312.232C354.524 312.232 354.862 312.115 355.151 311.881C355.44 311.646 355.6 311.354 355.632 311.002H356.657C356.637 311.365 356.512 311.711 356.282 312.039C356.052 312.367 355.743 312.629 355.356 312.824C354.973 313.02 354.567 313.117 354.137 313.117C353.274 313.117 352.587 312.83 352.075 312.256C351.567 311.678 351.313 310.889 351.313 309.889V309.707C351.313 309.09 351.427 308.541 351.653 308.061C351.88 307.58 352.204 307.207 352.626 306.941C353.052 306.676 353.554 306.543 354.132 306.543C354.843 306.543 355.432 306.756 355.901 307.182C356.374 307.607 356.626 308.16 356.657 308.84H355.632C355.6 308.43 355.444 308.094 355.163 307.832C354.886 307.566 354.542 307.434 354.132 307.434C353.581 307.434 353.153 307.633 352.848 308.031C352.548 308.426 352.397 308.998 352.397 309.748V309.953C352.397 310.684 352.548 311.246 352.848 311.641C353.149 312.035 353.579 312.232 354.137 312.232ZM359.746 305.125V306.66H360.93V307.498H359.746V311.43C359.746 311.684 359.799 311.875 359.905 312.004C360.01 312.129 360.19 312.191 360.444 312.191C360.569 312.191 360.741 312.168 360.959 312.121V313C360.674 313.078 360.397 313.117 360.127 313.117C359.643 313.117 359.278 312.971 359.032 312.678C358.786 312.385 358.662 311.969 358.662 311.43V307.498H357.508V306.66H358.662V305.125H359.746ZM362.197 309.771C362.197 309.15 362.318 308.592 362.561 308.096C362.807 307.6 363.146 307.217 363.58 306.947C364.018 306.678 364.516 306.543 365.074 306.543C365.938 306.543 366.635 306.842 367.166 307.439C367.701 308.037 367.969 308.832 367.969 309.824V309.9C367.969 310.518 367.85 311.072 367.611 311.564C367.377 312.053 367.039 312.434 366.598 312.707C366.16 312.98 365.656 313.117 365.086 313.117C364.227 313.117 363.529 312.818 362.994 312.221C362.463 311.623 362.197 310.832 362.197 309.848V309.771ZM363.287 309.9C363.287 310.604 363.449 311.168 363.773 311.594C364.102 312.02 364.539 312.232 365.086 312.232C365.637 312.232 366.074 312.018 366.398 311.588C366.723 311.154 366.885 310.549 366.885 309.771C366.885 309.076 366.719 308.514 366.387 308.084C366.059 307.65 365.621 307.434 365.074 307.434C364.539 307.434 364.107 307.646 363.779 308.072C363.451 308.498 363.287 309.107 363.287 309.9ZM375.095 309.9C375.095 310.869 374.873 311.648 374.427 312.238C373.982 312.824 373.384 313.117 372.634 313.117C371.834 313.117 371.214 312.834 370.777 312.268L370.724 313H369.728V304H370.812V307.357C371.25 306.814 371.853 306.543 372.623 306.543C373.392 306.543 373.996 306.834 374.433 307.416C374.875 307.998 375.095 308.795 375.095 309.807V309.9ZM374.011 309.777C374.011 309.039 373.869 308.469 373.584 308.066C373.298 307.664 372.888 307.463 372.353 307.463C371.638 307.463 371.125 307.795 370.812 308.459V311.201C371.144 311.865 371.662 312.197 372.365 312.197C372.884 312.197 373.289 311.996 373.578 311.594C373.867 311.191 374.011 310.586 374.011 309.777ZM379.497 313.117C378.638 313.117 377.939 312.836 377.4 312.273C376.861 311.707 376.591 310.951 376.591 310.006V309.807C376.591 309.178 376.71 308.617 376.948 308.125C377.191 307.629 377.527 307.242 377.956 306.965C378.39 306.684 378.859 306.543 379.362 306.543C380.187 306.543 380.827 306.814 381.284 307.357C381.741 307.9 381.97 308.678 381.97 309.689V310.141H377.675C377.691 310.766 377.872 311.271 378.22 311.658C378.571 312.041 379.017 312.232 379.556 312.232C379.939 312.232 380.263 312.154 380.529 311.998C380.794 311.842 381.027 311.635 381.226 311.377L381.888 311.893C381.357 312.709 380.56 313.117 379.497 313.117ZM379.362 307.434C378.925 307.434 378.558 307.594 378.261 307.914C377.964 308.23 377.78 308.676 377.71 309.25H380.886V309.168C380.855 308.617 380.706 308.191 380.441 307.891C380.175 307.586 379.816 307.434 379.362 307.434ZM386.694 307.633C386.53 307.605 386.352 307.592 386.161 307.592C385.45 307.592 384.968 307.895 384.714 308.5V313H383.63V306.66H384.684L384.702 307.393C385.057 306.826 385.561 306.543 386.214 306.543C386.425 306.543 386.585 306.57 386.694 306.625V307.633Z" fill="#718096"/>
<path d="M438.102 313H436.971L432.676 306.426V313H431.545V304.469H432.676L436.983 311.072V304.469H438.102V313ZM440.043 309.771C440.043 309.15 440.164 308.592 440.406 308.096C440.652 307.6 440.992 307.217 441.426 306.947C441.863 306.678 442.361 306.543 442.92 306.543C443.783 306.543 444.48 306.842 445.012 307.439C445.547 308.037 445.814 308.832 445.814 309.824V309.9C445.814 310.518 445.695 311.072 445.457 311.564C445.223 312.053 444.885 312.434 444.443 312.707C444.006 312.98 443.502 313.117 442.932 313.117C442.072 313.117 441.375 312.818 440.84 312.221C440.309 311.623 440.043 310.832 440.043 309.848V309.771ZM441.133 309.9C441.133 310.604 441.295 311.168 441.619 311.594C441.947 312.02 442.385 312.232 442.932 312.232C443.482 312.232 443.92 312.018 444.244 311.588C444.568 311.154 444.73 310.549 444.73 309.771C444.73 309.076 444.564 308.514 444.232 308.084C443.904 307.65 443.467 307.434 442.92 307.434C442.385 307.434 441.953 307.646 441.625 308.072C441.297 308.498 441.133 309.107 441.133 309.9ZM449.572 311.529L451.142 306.66H452.25L449.976 313H449.15L446.853 306.66H447.961L449.572 311.529ZM456.241 313.117C455.382 313.117 454.683 312.836 454.144 312.273C453.605 311.707 453.335 310.951 453.335 310.006V309.807C453.335 309.178 453.454 308.617 453.693 308.125C453.935 307.629 454.271 307.242 454.7 306.965C455.134 306.684 455.603 306.543 456.107 306.543C456.931 306.543 457.571 306.814 458.029 307.357C458.486 307.9 458.714 308.678 458.714 309.689V310.141H454.419C454.435 310.766 454.616 311.271 454.964 311.658C455.316 312.041 455.761 312.232 456.3 312.232C456.683 312.232 457.007 312.154 457.273 311.998C457.538 311.842 457.771 311.635 457.97 311.377L458.632 311.893C458.101 312.709 457.304 313.117 456.241 313.117ZM456.107 307.434C455.669 307.434 455.302 307.594 455.005 307.914C454.708 308.23 454.525 308.676 454.454 309.25H457.63V309.168C457.599 308.617 457.45 308.191 457.185 307.891C456.919 307.586 456.56 307.434 456.107 307.434ZM461.393 306.66L461.423 307.363C461.888 306.816 462.514 306.543 463.304 306.543C464.19 306.543 464.794 306.883 465.114 307.562C465.325 307.258 465.598 307.012 465.934 306.824C466.274 306.637 466.675 306.543 467.136 306.543C468.526 306.543 469.233 307.279 469.257 308.752V313H468.173V308.816C468.173 308.363 468.069 308.025 467.862 307.803C467.655 307.576 467.307 307.463 466.819 307.463C466.417 307.463 466.083 307.584 465.817 307.826C465.552 308.064 465.397 308.387 465.354 308.793V313H464.264V308.846C464.264 307.924 463.813 307.463 462.911 307.463C462.2 307.463 461.714 307.766 461.452 308.371V313H460.368V306.66H461.393ZM476.664 309.9C476.664 310.869 476.442 311.648 475.996 312.238C475.551 312.824 474.954 313.117 474.204 313.117C473.403 313.117 472.784 312.834 472.346 312.268L472.293 313H471.297V304H472.381V307.357C472.819 306.814 473.422 306.543 474.192 306.543C474.961 306.543 475.565 306.834 476.002 307.416C476.444 307.998 476.664 308.795 476.664 309.807V309.9ZM475.58 309.777C475.58 309.039 475.438 308.469 475.153 308.066C474.868 307.664 474.457 307.463 473.922 307.463C473.207 307.463 472.694 307.795 472.381 308.459V311.201C472.713 311.865 473.231 312.197 473.934 312.197C474.454 312.197 474.858 311.996 475.147 311.594C475.436 311.191 475.58 310.586 475.58 309.777ZM481.066 313.117C480.207 313.117 479.508 312.836 478.969 312.273C478.43 311.707 478.16 310.951 478.16 310.006V309.807C478.16 309.178 478.279 308.617 478.518 308.125C478.76 307.629 479.096 307.242 479.525 306.965C479.959 306.684 480.428 306.543 480.932 306.543C481.756 306.543 482.396 306.814 482.854 307.357C483.311 307.9 483.539 308.678 483.539 309.689V310.141H479.244C479.26 310.766 479.441 311.271 479.789 311.658C480.141 312.041 480.586 312.232 481.125 312.232C481.508 312.232 481.832 312.154 482.098 311.998C482.363 311.842 482.596 311.635 482.795 311.377L483.457 311.893C482.926 312.709 482.129 313.117 481.066 313.117ZM480.932 307.434C480.494 307.434 480.127 307.594 479.83 307.914C479.533 308.23 479.35 308.676 479.279 309.25H482.455V309.168C482.424 308.617 482.275 308.191 482.01 307.891C481.744 307.586 481.385 307.434 480.932 307.434ZM488.263 307.633C488.099 307.605 487.921 307.592 487.73 307.592C487.019 307.592 486.537 307.895 486.283 308.5V313H485.199V306.66H486.254L486.271 307.393C486.627 306.826 487.13 306.543 487.783 306.543C487.994 306.543 488.154 306.57 488.263 306.625V307.633Z" fill="#718096"/>
<path d="M526.803 313V304.469H529.211C529.954 304.469 530.61 304.633 531.18 304.961C531.75 305.289 532.19 305.756 532.498 306.361C532.811 306.967 532.969 307.662 532.973 308.447V308.992C532.973 309.797 532.817 310.502 532.504 311.107C532.196 311.713 531.752 312.178 531.174 312.502C530.6 312.826 529.93 312.992 529.164 313H526.803ZM527.928 305.395V312.08H529.112C529.979 312.08 530.653 311.811 531.133 311.271C531.618 310.732 531.86 309.965 531.86 308.969V308.471C531.86 307.502 531.631 306.75 531.174 306.215C530.721 305.676 530.077 305.402 529.241 305.395H527.928ZM537.539 313.117C536.68 313.117 535.98 312.836 535.441 312.273C534.902 311.707 534.633 310.951 534.633 310.006V309.807C534.633 309.178 534.752 308.617 534.99 308.125C535.232 307.629 535.568 307.242 535.998 306.965C536.432 306.684 536.9 306.543 537.404 306.543C538.229 306.543 538.869 306.814 539.326 307.357C539.783 307.9 540.012 308.678 540.012 309.689V310.141H535.717C535.732 310.766 535.914 311.271 536.262 311.658C536.613 312.041 537.059 312.232 537.598 312.232C537.98 312.232 538.305 312.154 538.57 311.998C538.836 311.842 539.068 311.635 539.268 311.377L539.93 311.893C539.398 312.709 538.602 313.117 537.539 313.117ZM537.404 307.434C536.967 307.434 536.6 307.594 536.303 307.914C536.006 308.23 535.822 308.676 535.752 309.25H538.928V309.168C538.896 308.617 538.748 308.191 538.482 307.891C538.217 307.586 537.857 307.434 537.404 307.434ZM544.214 312.232C544.601 312.232 544.939 312.115 545.228 311.881C545.517 311.646 545.677 311.354 545.709 311.002H546.734C546.714 311.365 546.589 311.711 546.359 312.039C546.129 312.367 545.82 312.629 545.433 312.824C545.05 313.02 544.644 313.117 544.214 313.117C543.351 313.117 542.664 312.83 542.152 312.256C541.644 311.678 541.39 310.889 541.39 309.889V309.707C541.39 309.09 541.504 308.541 541.73 308.061C541.957 307.58 542.281 307.207 542.703 306.941C543.129 306.676 543.63 306.543 544.209 306.543C544.92 306.543 545.509 306.756 545.978 307.182C546.451 307.607 546.703 308.16 546.734 308.84H545.709C545.677 308.43 545.521 308.094 545.24 307.832C544.963 307.566 544.619 307.434 544.209 307.434C543.658 307.434 543.23 307.633 542.925 308.031C542.625 308.426 542.474 308.998 542.474 309.748V309.953C542.474 310.684 542.625 311.246 542.925 311.641C543.226 312.035 543.656 312.232 544.214 312.232ZM550.984 313.117C550.124 313.117 549.425 312.836 548.886 312.273C548.347 311.707 548.077 310.951 548.077 310.006V309.807C548.077 309.178 548.196 308.617 548.435 308.125C548.677 307.629 549.013 307.242 549.443 306.965C549.876 306.684 550.345 306.543 550.849 306.543C551.673 306.543 552.314 306.814 552.771 307.357C553.228 307.9 553.456 308.678 553.456 309.689V310.141H549.161C549.177 310.766 549.359 311.271 549.706 311.658C550.058 312.041 550.503 312.232 551.042 312.232C551.425 312.232 551.749 312.154 552.015 311.998C552.28 311.842 552.513 311.635 552.712 311.377L553.374 311.893C552.843 312.709 552.046 313.117 550.984 313.117ZM550.849 307.434C550.411 307.434 550.044 307.594 549.747 307.914C549.45 308.23 549.267 308.676 549.196 309.25H552.372V309.168C552.341 308.617 552.193 308.191 551.927 307.891C551.661 307.586 551.302 307.434 550.849 307.434ZM556.136 306.66L556.165 307.363C556.63 306.816 557.257 306.543 558.046 306.543C558.932 306.543 559.536 306.883 559.856 307.562C560.067 307.258 560.341 307.012 560.677 306.824C561.016 306.637 561.417 306.543 561.878 306.543C563.268 306.543 563.975 307.279 563.999 308.752V313H562.915V308.816C562.915 308.363 562.811 308.025 562.604 307.803C562.397 307.576 562.05 307.463 561.561 307.463C561.159 307.463 560.825 307.584 560.559 307.826C560.294 308.064 560.139 308.387 560.096 308.793V313H559.007V308.846C559.007 307.924 558.555 307.463 557.653 307.463C556.942 307.463 556.456 307.766 556.194 308.371V313H555.11V306.66H556.136ZM571.407 309.9C571.407 310.869 571.184 311.648 570.739 312.238C570.293 312.824 569.696 313.117 568.946 313.117C568.145 313.117 567.526 312.834 567.088 312.268L567.036 313H566.039V304H567.123V307.357C567.561 306.814 568.164 306.543 568.934 306.543C569.704 306.543 570.307 306.834 570.745 307.416C571.186 307.998 571.407 308.795 571.407 309.807V309.9ZM570.323 309.777C570.323 309.039 570.18 308.469 569.895 308.066C569.61 307.664 569.2 307.463 568.664 307.463C567.95 307.463 567.436 307.795 567.123 308.459V311.201C567.455 311.865 567.973 312.197 568.676 312.197C569.196 312.197 569.6 311.996 569.889 311.594C570.178 311.191 570.323 310.586 570.323 309.777ZM575.809 313.117C574.949 313.117 574.25 312.836 573.711 312.273C573.172 311.707 572.902 310.951 572.902 310.006V309.807C572.902 309.178 573.021 308.617 573.26 308.125C573.502 307.629 573.838 307.242 574.268 306.965C574.701 306.684 575.17 306.543 575.674 306.543C576.498 306.543 577.139 306.814 577.596 307.357C578.053 307.9 578.281 308.678 578.281 309.689V310.141H573.986C574.002 310.766 574.184 311.271 574.531 311.658C574.883 312.041 575.328 312.232 575.867 312.232C576.25 312.232 576.574 312.154 576.84 311.998C577.105 311.842 577.338 311.635 577.537 311.377L578.199 311.893C577.668 312.709 576.871 313.117 575.809 313.117ZM575.674 307.434C575.236 307.434 574.869 307.594 574.572 307.914C574.275 308.23 574.092 308.676 574.021 309.25H577.197V309.168C577.166 308.617 577.018 308.191 576.752 307.891C576.486 307.586 576.127 307.434 575.674 307.434ZM583.005 307.633C582.841 307.605 582.664 307.592 582.472 307.592C581.761 307.592 581.279 307.895 581.025 308.5V313H579.941V306.66H580.996L581.013 307.393C581.369 306.826 581.873 306.543 582.525 306.543C582.736 306.543 582.896 306.57 583.005 306.625V307.633Z" fill="#718096"/>
<line x1="46" y1="7.5" x2="588" y2="7.5" stroke="#E2E8F0"/>
<line x1="46" y1="78.5" x2="588" y2="78.5" stroke="#E2E8F0"/>
<line x1="46" y1="149.5" x2="588" y2="149.5" stroke="#E2E8F0"/>
<line x1="46" y1="220.5" x2="588" y2="220.5" stroke="#E2E8F0"/>
<line x1="46" y1="291.5" x2="588" y2="291.5" stroke="#E2E8F0"/>
<rect x="59" y="192" width="41" height="100" fill="#319795"/>
<rect x="59" y="160" width="41" height="32" fill="#6B46C1"/>
<rect x="59" y="157" width="41" height="3" fill="#F56565"/>
<rect x="59" y="192" width="41" height="2" fill="#ECC94B"/>
<rect x="154" y="215" width="41" height="77" fill="#319795"/>
<rect x="154" y="215" width="41" height="6" fill="#ECC94B"/>
<rect x="154" y="137" width="41" height="78" fill="#6B46C1"/>
<rect x="154" y="135" width="41" height="2" fill="#F56565"/>
<rect x="249" y="192" width="41" height="100" fill="#319795"/>
<rect x="249" y="114" width="41" height="76" fill="#6B46C1"/>
<rect x="249" y="190" width="41" height="2" fill="#ECC94B"/>
<rect x="249" y="109" width="41" height="5" fill="#F56565"/>
<rect x="344" y="112" width="41" height="180" fill="#319795"/>
<rect x="344" y="48" width="41" height="64" fill="#6B46C1"/>
<rect x="439" y="136" width="41" height="156" fill="#319795"/>
<rect x="439" y="39" width="41" height="93" fill="#6B46C1"/>
<rect x="439" y="37" width="41" height="2" fill="#F56565"/>
<rect x="439" y="132" width="41" height="4" fill="#ECC94B"/>
<rect x="534" y="144" width="41" height="148" fill="#319795"/>
<rect x="534" y="140" width="41" height="4" fill="#ECC94B"/>
<rect x="534" y="18" width="41" height="122" fill="#6B46C1"/>
<rect x="534" y="16" width="41" height="2" fill="#F56565"/>
</svg>
