<svg width="191" height="48" viewBox="0 0 191 48" fill="none" xmlns="http://www.w3.org/2000/svg">
<rect x="0.5" y="0.5" width="190" height="47" rx="23.5" fill="white"/>
<path d="M142.615 22.6685C142.702 22.1267 142.867 21.6514 143.108 21.2425C143.349 20.8336 143.651 20.4937 144.013 20.2228C144.375 19.9519 144.786 19.75 145.247 19.6172C145.713 19.4792 146.214 19.4102 146.752 19.4102C147.322 19.4102 147.832 19.4868 148.282 19.6402C148.737 19.7884 149.121 19.9928 149.433 20.2535C149.746 20.5141 149.984 20.8183 150.149 21.1658C150.319 21.5134 150.404 21.8865 150.404 22.2851C150.404 22.6378 150.363 22.9496 150.28 23.2205C150.204 23.4862 150.086 23.7188 149.927 23.9181C149.773 24.1175 149.581 24.2861 149.351 24.4241C149.126 24.5621 148.866 24.6771 148.57 24.7691C149.94 25.1882 150.626 26.0392 150.626 27.3221C150.626 27.8894 150.514 28.3903 150.289 28.8248C150.064 29.2541 149.762 29.6144 149.384 29.9058C149.006 30.1971 148.564 30.4169 148.06 30.5651C147.561 30.7082 147.037 30.7797 146.489 30.7797C145.907 30.7797 145.395 30.7184 144.951 30.5957C144.506 30.4731 144.114 30.2891 143.774 30.0438C143.44 29.7984 143.152 29.4918 142.911 29.1238C142.669 28.7506 142.458 28.3162 142.277 27.8204L143.281 27.4371C143.544 27.3349 143.788 27.3068 144.013 27.3528C144.243 27.3988 144.408 27.5112 144.506 27.6901C144.616 27.8843 144.731 28.0632 144.852 28.2268C144.978 28.3903 145.118 28.5334 145.271 28.6561C145.425 28.7736 145.598 28.8656 145.79 28.9321C145.987 28.9985 146.212 29.0318 146.464 29.0318C146.782 29.0318 147.059 28.9832 147.295 28.8861C147.531 28.789 147.728 28.6638 147.887 28.5104C148.046 28.352 148.164 28.1757 148.241 27.9814C148.323 27.7821 148.364 27.5853 148.364 27.3911C148.364 27.1355 148.339 26.9056 148.29 26.7011C148.241 26.4916 148.125 26.3152 147.945 26.1721C147.769 26.0239 147.506 25.9114 147.155 25.8348C146.809 25.753 146.338 25.7121 145.74 25.7121V24.2248C146.239 24.2248 146.648 24.1865 146.966 24.1098C147.284 24.0331 147.533 23.9258 147.714 23.7878C147.895 23.6498 148.019 23.4837 148.084 23.2895C148.156 23.0952 148.191 22.8831 148.191 22.6531C148.191 22.1676 148.054 21.797 147.78 21.5415C147.511 21.2859 147.127 21.1581 146.628 21.1581C146.409 21.1581 146.206 21.1888 146.02 21.2501C145.839 21.3064 145.674 21.3856 145.526 21.4878C145.384 21.59 145.26 21.7101 145.156 21.8481C145.052 21.9861 144.975 22.1369 144.926 22.3005C144.822 22.556 144.687 22.7272 144.523 22.8141C144.358 22.8959 144.12 22.9138 143.807 22.8678L142.615 22.6685Z" fill="black"/>
<path d="M155.801 23.5271L155.439 23.9335C155.647 23.8466 155.872 23.7801 156.113 23.7341C156.355 23.6881 156.615 23.6651 156.895 23.6651C157.339 23.6651 157.772 23.7341 158.194 23.8721C158.617 24.0101 158.992 24.2171 159.321 24.4931C159.65 24.7691 159.913 25.1167 160.111 25.5358C160.314 25.9498 160.415 26.4379 160.415 27.0001C160.415 27.5163 160.311 28.0044 160.103 28.4644C159.9 28.9244 159.609 29.3256 159.231 29.6681C158.858 30.0105 158.408 30.2814 157.882 30.4807C157.361 30.6801 156.78 30.7797 156.138 30.7797C155.486 30.7797 154.902 30.6852 154.386 30.4961C153.871 30.3019 153.432 30.031 153.07 29.6834C152.708 29.3359 152.431 28.9219 152.239 28.4414C152.047 27.9559 151.951 27.4218 151.951 26.8391C151.951 26.3024 152.064 25.7581 152.289 25.2061C152.519 24.6541 152.867 24.0868 153.333 23.5041L156.105 20.0235C156.215 19.8906 156.377 19.7756 156.59 19.6785C156.804 19.5814 157.048 19.5328 157.323 19.5328H159.338L155.801 23.5271ZM156.097 29.0778C156.393 29.0778 156.667 29.0292 156.919 28.9321C157.172 28.835 157.388 28.6995 157.569 28.5258C157.75 28.352 157.893 28.1501 157.997 27.9201C158.101 27.685 158.153 27.4294 158.153 27.1534C158.153 26.8519 158.104 26.581 158.005 26.3408C157.907 26.1006 157.767 25.8987 157.586 25.7351C157.405 25.5664 157.188 25.4387 156.936 25.3518C156.684 25.2649 156.404 25.2215 156.097 25.2215C155.806 25.2215 155.54 25.27 155.299 25.3671C155.058 25.4591 154.849 25.592 154.674 25.7658C154.504 25.9344 154.37 26.1363 154.271 26.3714C154.178 26.6066 154.131 26.8647 154.131 27.1458C154.131 27.4371 154.172 27.7029 154.255 27.9431C154.337 28.1782 154.46 28.3801 154.625 28.5488C154.789 28.7174 154.992 28.8478 155.233 28.9398C155.48 29.0318 155.768 29.0778 156.097 29.0778Z" fill="black"/>
<path d="M170.056 25.0911C170.056 26.0622 169.944 26.9056 169.719 27.6211C169.494 28.3367 169.185 28.9295 168.79 29.3998C168.395 29.8649 167.926 30.2124 167.383 30.4424C166.846 30.6673 166.265 30.7797 165.639 30.7797C165.014 30.7797 164.433 30.6673 163.896 30.4424C163.358 30.2124 162.895 29.8649 162.506 29.3998C162.116 28.9295 161.809 28.3367 161.584 27.6211C161.365 26.9056 161.255 26.0622 161.255 25.0911C161.255 24.12 161.365 23.2792 161.584 22.5688C161.809 21.8533 162.116 21.2629 162.506 20.7978C162.895 20.3276 163.358 19.98 163.896 19.7552C164.433 19.5252 165.014 19.4102 165.639 19.4102C166.265 19.4102 166.846 19.5252 167.383 19.7552C167.926 19.98 168.395 20.3276 168.79 20.7978C169.185 21.2629 169.494 21.8533 169.719 22.5688C169.944 23.2792 170.056 24.12 170.056 25.0911ZM167.712 25.0911C167.712 24.304 167.652 23.6549 167.531 23.1438C167.416 22.6327 167.263 22.2289 167.071 21.9325C166.879 21.636 166.657 21.429 166.404 21.3115C166.158 21.1939 165.903 21.1351 165.639 21.1351C165.376 21.1351 165.121 21.1939 164.875 21.3115C164.633 21.429 164.417 21.636 164.225 21.9325C164.038 22.2289 163.888 22.6327 163.772 23.1438C163.657 23.6549 163.6 24.304 163.6 25.0911C163.6 25.8833 163.657 26.535 163.772 27.0461C163.888 27.5572 164.038 27.961 164.225 28.2574C164.417 28.5539 164.633 28.7609 164.875 28.8784C165.121 28.996 165.376 29.0548 165.639 29.0548C165.903 29.0548 166.158 28.996 166.404 28.8784C166.657 28.7609 166.879 28.5539 167.071 28.2574C167.263 27.961 167.416 27.5572 167.531 27.0461C167.652 26.535 167.712 25.8833 167.712 25.0911Z" fill="black"/>
<path d="M83.5267 19.5352V30.6594H81.0427V25.8678H75.7867V30.6594H73.3027V19.5352H75.7867V24.2578H81.0427V19.5352H83.5267Z" fill="#FF631C"/>
<path d="M88.5101 21.3368V24.1965H92.4911V25.9368H88.5101V28.8578H93.6262V30.6594H86.0261V19.5352H93.6262V21.3368H88.5101Z" fill="#FF631C"/>
<path d="M101.773 26.4351L100.481 23.0311C100.405 22.8522 100.322 22.6427 100.235 22.4025C100.152 22.1622 100.073 21.9016 99.9961 21.6205C99.9193 21.9067 99.8371 22.1725 99.7493 22.4178C99.6671 22.658 99.5876 22.8676 99.5108 23.0465L98.2277 26.4351H101.773ZM105.918 30.6594H104.002C103.788 30.6594 103.612 30.6134 103.475 30.5214C103.344 30.4243 103.245 30.3016 103.179 30.1534L102.373 28.0298H97.619L96.8129 30.1534C96.7581 30.2812 96.6621 30.3987 96.5251 30.5061C96.388 30.6083 96.2152 30.6594 96.0069 30.6594H94.0739L98.7376 19.5352H101.263L105.918 30.6594Z" fill="#FF631C"/>
<path d="M114.105 28.7888V30.6594H107.023V19.5352H109.49V28.7888H114.105Z" fill="#FF631C"/>
<path d="M122.619 21.3905H119.132V30.6594H116.656V21.3905H113.168V19.5352H122.619V21.3905Z" fill="#FF631C"/>
<path d="M134.324 19.5352V30.6594H131.84V25.8678H126.584V30.6594H124.1V19.5352H126.584V24.2578H131.84V19.5352H134.324Z" fill="#FF631C"/>
<path d="M17.8539 21.6641C17.7771 21.7817 17.6976 21.8686 17.6153 21.9248C17.5386 21.9759 17.4371 22.0015 17.311 22.0015C17.1904 22.0015 17.0588 21.9631 16.9162 21.8865C16.7791 21.8047 16.6173 21.7178 16.4309 21.6258C16.2445 21.5338 16.0306 21.4495 15.7893 21.3728C15.5481 21.291 15.2657 21.2501 14.9421 21.2501C14.3719 21.2501 13.9441 21.3703 13.659 21.6105C13.3739 21.8456 13.2313 22.1548 13.2313 22.5381C13.2313 22.7835 13.3081 22.9879 13.4616 23.1515C13.6206 23.3099 13.8262 23.4479 14.0785 23.5655C14.3362 23.683 14.6268 23.7878 14.9504 23.8798C15.2739 23.9718 15.6056 24.074 15.9456 24.1865C16.2856 24.2938 16.6173 24.4216 16.9409 24.5698C17.2644 24.718 17.5523 24.9046 17.8045 25.1295C18.0622 25.3543 18.2679 25.6303 18.4214 25.9574C18.5804 26.2794 18.6599 26.673 18.6599 27.1381C18.6599 27.6441 18.564 28.1194 18.372 28.5641C18.1856 29.0036 17.9142 29.3895 17.5578 29.7218C17.2013 30.0489 16.7599 30.307 16.2335 30.4961C15.7126 30.6852 15.1203 30.7797 14.4568 30.7797C14.0785 30.7797 13.7001 30.744 13.3218 30.6724C12.9489 30.6009 12.587 30.5012 12.236 30.3734C11.8906 30.2456 11.5643 30.0923 11.2572 29.9134C10.9502 29.7345 10.6815 29.5352 10.4512 29.3154L11.175 28.2268C11.2353 28.145 11.3148 28.0785 11.4135 28.0274C11.5122 27.9712 11.6164 27.9431 11.7261 27.9431C11.8741 27.9431 12.0304 27.9942 12.1949 28.0964C12.3594 28.1987 12.5486 28.3111 12.7625 28.4338C12.9763 28.5564 13.2231 28.6689 13.5027 28.7711C13.7879 28.8733 14.1278 28.9244 14.5227 28.9244C15.0984 28.9244 15.5426 28.8018 15.8551 28.5564C16.1732 28.3111 16.3322 27.9457 16.3322 27.4601C16.3322 27.179 16.2527 26.9515 16.0937 26.7778C15.9401 26.604 15.7372 26.4583 15.485 26.3408C15.2328 26.2232 14.9449 26.1236 14.6214 26.0418C14.2978 25.9549 13.9661 25.8603 13.6261 25.7581C13.2861 25.6559 12.9544 25.5332 12.6309 25.3901C12.3073 25.247 12.0194 25.0579 11.7672 24.8228C11.515 24.5877 11.3093 24.2963 11.1503 23.9488C10.9968 23.6012 10.92 23.1694 10.92 22.6531C10.92 22.2391 11.0077 21.8379 11.1832 21.4495C11.3587 21.061 11.6164 20.716 11.9564 20.4145C12.2964 20.1129 12.7131 19.8702 13.2066 19.6862C13.7056 19.5022 14.2759 19.4102 14.9175 19.4102C15.6358 19.4102 16.2993 19.5149 16.908 19.7245C17.5221 19.9289 18.0403 20.2152 18.4625 20.5831L17.8539 21.6641Z" fill="black"/>
<path d="M31.9812 25.0911C31.9812 25.9038 31.8331 26.6577 31.537 27.3528C31.2464 28.0479 30.8324 28.6484 30.295 29.1544C29.7631 29.6604 29.1215 30.0591 28.3703 30.3504C27.6191 30.6366 26.7856 30.7797 25.8698 30.7797C24.9541 30.7797 24.1206 30.6366 23.3694 30.3504C22.6181 30.0591 21.9738 29.6604 21.4365 29.1544C20.8991 28.6484 20.4823 28.0479 20.1862 27.3528C19.8956 26.6577 19.7503 25.9038 19.7503 25.0911C19.7503 24.2785 19.8956 23.5271 20.1862 22.8371C20.4823 22.142 20.8991 21.5415 21.4365 21.0355C21.9738 20.5295 22.6181 20.1334 23.3694 19.8472C24.1206 19.5558 24.9541 19.4102 25.8698 19.4102C26.7856 19.4102 27.6191 19.5558 28.3703 19.8472C29.1215 20.1334 29.7631 20.532 30.295 21.0431C30.8324 21.5491 31.2464 22.1497 31.537 22.8448C31.8331 23.5348 31.9812 24.2836 31.9812 25.0911ZM29.456 25.0911C29.456 24.5085 29.3738 23.9871 29.2093 23.5271C29.0448 23.062 28.8062 22.6685 28.4937 22.3465C28.1866 22.0194 27.811 21.7715 27.3668 21.6028C26.9282 21.429 26.4292 21.3421 25.8698 21.3421C25.3105 21.3421 24.8088 21.429 24.3646 21.6028C23.9205 21.7715 23.5421 22.0194 23.2295 22.3465C22.9225 22.6685 22.6867 23.062 22.5222 23.5271C22.3577 23.9871 22.2754 24.5085 22.2754 25.0911C22.2754 25.6789 22.3577 26.2053 22.5222 26.6704C22.6867 27.1304 22.9225 27.5214 23.2295 27.8434C23.5421 28.1654 23.9205 28.4133 24.3646 28.5871C24.8088 28.7558 25.3105 28.8401 25.8698 28.8401C26.4292 28.8401 26.9282 28.7558 27.3668 28.5871C27.811 28.4133 28.1866 28.1654 28.4937 27.8434C28.8062 27.5214 29.0448 27.1304 29.2093 26.6704C29.3738 26.2053 29.456 25.6789 29.456 25.0911Z" fill="black"/>
<path d="M43.8116 19.5328L39.0081 30.6571H36.7708L31.9673 19.5328H33.9578C34.1716 19.5328 34.3444 19.5814 34.476 19.6785C34.6131 19.7705 34.7145 19.8906 34.7803 20.0388L37.363 26.4481C37.4617 26.6883 37.5577 26.9515 37.6509 27.2378C37.7496 27.5189 37.8401 27.8153 37.9223 28.1271C37.9936 27.8153 38.0704 27.5189 38.1526 27.2378C38.2404 26.9515 38.3336 26.6883 38.4323 26.4481L40.9986 20.0388C41.0534 19.911 41.1494 19.796 41.2864 19.6938C41.429 19.5865 41.6045 19.5328 41.8129 19.5328H43.8116Z" fill="black"/>
<path d="M48.6505 24.7998C49.0507 24.7998 49.3962 24.7538 49.6868 24.6618C49.9775 24.5647 50.216 24.4343 50.4024 24.2708C50.5889 24.1021 50.726 23.9053 50.8137 23.6805C50.9014 23.4556 50.9453 23.2102 50.9453 22.9445C50.9453 22.418 50.7561 22.0091 50.3777 21.7178C50.0049 21.4265 49.4346 21.2808 48.6669 21.2808H47.3838V24.7998H48.6505ZM54.4328 30.6571H52.2037C51.787 30.6571 51.4854 30.5089 51.299 30.2124L49.0288 26.8008C48.9356 26.6679 48.8314 26.5708 48.7163 26.5094C48.6066 26.4481 48.4421 26.4174 48.2227 26.4174H47.3838V30.6571H44.9162V19.5328H48.6669C49.5004 19.5328 50.2132 19.6146 50.8055 19.7782C51.3977 19.9366 51.883 20.1589 52.2613 20.4451C52.6397 20.7314 52.9166 21.0738 53.0921 21.4725C53.2675 21.866 53.3553 22.3005 53.3553 22.7758C53.3553 23.1438 53.2977 23.4939 53.1825 23.8261C53.0729 24.1532 52.9111 24.4522 52.6973 24.7231C52.4834 24.994 52.2202 25.2342 51.9076 25.4438C51.5951 25.6533 51.2387 25.822 50.8384 25.9498C50.9974 26.0316 51.1454 26.1312 51.2825 26.2488C51.4196 26.3612 51.543 26.4967 51.6527 26.6551L54.4328 30.6571Z" fill="black"/>
<path d="M58.0834 30.6571H55.5993V19.5328H58.0834V30.6571Z" fill="black"/>
<path d="M70.8034 19.5328V30.6571H69.5285C69.3366 30.6571 69.1748 30.629 69.0432 30.5727C68.9116 30.5114 68.7827 30.4092 68.6566 30.2661L62.7098 23.2128C62.7262 23.3917 62.7372 23.568 62.7427 23.7418C62.7536 23.9156 62.7591 24.0766 62.7591 24.2248V30.6571H60.5794V19.5328H61.879C61.9832 19.5328 62.0709 19.5379 62.1422 19.5482C62.219 19.5533 62.2875 19.5712 62.3479 19.6018C62.4082 19.6274 62.4658 19.6632 62.5206 19.7092C62.5754 19.7552 62.6357 19.8165 62.7016 19.8932L68.6895 26.9771C68.6676 26.7829 68.6511 26.5963 68.6402 26.4174C68.6292 26.2334 68.6237 26.0597 68.6237 25.8961V19.5328H70.8034Z" fill="black"/>
<path d="M174.311 16.9231H172.556V21.4582H171.84V16.9231H170.09V16.3711H174.311V16.9231Z" fill="black"/>
<path d="M176.05 16.3711L177.834 20.5218L179.618 16.3711H180.552V21.4582H179.832V19.4772L179.9 17.3389L178.108 21.4582H177.557L175.769 17.3494L175.84 19.4772V21.4582H175.12V16.3711H176.05Z" fill="black"/>
<rect x="0.5" y="0.5" width="190" height="47" rx="23.5" stroke="white"/>
</svg>
