<svg width="113" height="10" viewBox="0 0 113 10" fill="none" xmlns="http://www.w3.org/2000/svg">
<path d="M87.334 4.39218C87.3914 4.04264 87.4991 3.73598 87.657 3.47218C87.8149 3.20838 88.0122 2.9891 88.2491 2.81434C88.4859 2.63957 88.7551 2.50932 89.0565 2.42359C89.3616 2.33456 89.6899 2.29004 90.0416 2.29004C90.4148 2.29004 90.7486 2.3395 91.0429 2.43843C91.3407 2.53405 91.5919 2.66595 91.7965 2.83412C92.001 3.00229 92.1571 3.19849 92.2648 3.42272C92.3761 3.64695 92.4317 3.88766 92.4317 4.14487C92.4317 4.37239 92.4048 4.57354 92.3509 4.7483C92.3007 4.91977 92.2235 5.06981 92.1195 5.19841C92.019 5.32701 91.8934 5.43583 91.7427 5.52486C91.5955 5.61389 91.4251 5.68808 91.2313 5.74744C92.1284 6.01783 92.577 6.56686 92.577 7.39452C92.577 7.76054 92.5034 8.08369 92.3563 8.36398C92.2092 8.64096 92.0118 8.87344 91.7642 9.06139C91.5166 9.24935 91.2277 9.39114 90.8975 9.48677C90.571 9.57909 90.2282 9.62526 89.8694 9.62526C89.489 9.62526 89.1534 9.58569 88.8628 9.50655C88.5721 9.42741 88.3155 9.3087 88.093 9.15042C87.8741 8.99215 87.6857 8.7943 87.5278 8.55688C87.3699 8.31616 87.2317 8.03588 87.1133 7.71602L87.77 7.46871C87.9423 7.40276 88.102 7.38463 88.2491 7.41431C88.3998 7.44398 88.5075 7.51653 88.5721 7.63194C88.6438 7.75724 88.7192 7.87266 88.7982 7.97817C88.8807 8.08369 88.9722 8.17602 89.0727 8.25516C89.1732 8.331 89.2862 8.39036 89.4118 8.43322C89.541 8.47609 89.6881 8.49752 89.8532 8.49752C90.0614 8.49752 90.2426 8.4662 90.3969 8.40355C90.5512 8.3409 90.6804 8.26011 90.7845 8.16118C90.8886 8.05896 90.9657 7.9452 91.0159 7.81989C91.0698 7.69129 91.0967 7.56434 91.0967 7.43904C91.0967 7.27416 91.0805 7.12578 91.0482 6.99388C91.0159 6.85868 90.9406 6.74492 90.8222 6.65259C90.7073 6.55696 90.5351 6.48442 90.3054 6.43496C90.0793 6.3822 89.7707 6.35582 89.3795 6.35582V5.39626C89.7061 5.39626 89.9734 5.37152 90.1816 5.32206C90.3897 5.2726 90.553 5.20335 90.6714 5.11432C90.7899 5.02529 90.8706 4.91812 90.9137 4.79282C90.9603 4.66751 90.9836 4.53067 90.9836 4.38228C90.9836 4.06902 90.8939 3.82996 90.7145 3.66508C90.5387 3.50021 90.2874 3.41777 89.9609 3.41777C89.8173 3.41777 89.6846 3.43756 89.5625 3.47713C89.4441 3.5134 89.3365 3.56451 89.2396 3.63046C89.1463 3.69641 89.0655 3.7739 88.9973 3.86293C88.9291 3.95196 88.8789 4.04924 88.8466 4.15476C88.7784 4.31963 88.6905 4.4301 88.5828 4.48615C88.4752 4.53891 88.3191 4.55045 88.1145 4.52078L87.334 4.39218Z" fill="black"/>
<path d="M95.9638 4.94615L95.7269 5.2083C95.8633 5.15224 96.0104 5.10938 96.1683 5.0797C96.3262 5.05002 96.4967 5.03518 96.6797 5.03518C96.9704 5.03518 97.2539 5.0797 97.5302 5.16873C97.8065 5.25776 98.0523 5.39131 98.2677 5.56937C98.483 5.74744 98.6552 5.97166 98.7844 6.24206C98.9172 6.50915 98.9836 6.82406 98.9836 7.18678C98.9836 7.51983 98.9154 7.83473 98.7791 8.13151C98.6463 8.42828 98.4561 8.68713 98.2085 8.90806C97.9644 9.12899 97.6702 9.30376 97.3256 9.43236C96.9847 9.56096 96.6043 9.62526 96.1845 9.62526C95.7574 9.62526 95.3752 9.56426 95.0379 9.44225C94.7005 9.31695 94.4135 9.14218 94.1766 8.91795C93.9397 8.69372 93.7585 8.42663 93.6329 8.11667C93.5073 7.80341 93.4445 7.45882 93.4445 7.08291C93.4445 6.73668 93.5181 6.3855 93.6652 6.02937C93.8159 5.67324 94.0438 5.30722 94.3489 4.93131L96.1629 2.68574C96.2347 2.6 96.3406 2.52581 96.4805 2.46316C96.6205 2.4005 96.7802 2.36918 96.9596 2.36918H98.2784L95.9638 4.94615ZM96.1575 8.5272C96.3513 8.5272 96.5308 8.49588 96.6958 8.43322C96.8609 8.37057 97.0027 8.28319 97.1211 8.17108C97.2395 8.05896 97.3328 7.92871 97.401 7.78033C97.4692 7.62864 97.5033 7.46377 97.5033 7.28571C97.5033 7.09115 97.471 6.91639 97.4064 6.76141C97.3418 6.60643 97.2503 6.47618 97.1319 6.37066C97.0134 6.26184 96.8717 6.1794 96.7066 6.12335C96.5415 6.06729 96.3585 6.03926 96.1575 6.03926C95.9673 6.03926 95.7933 6.07059 95.6354 6.13324C95.4775 6.19259 95.3411 6.27833 95.2263 6.39044C95.115 6.49926 95.0271 6.62951 94.9625 6.78119C94.9015 6.93288 94.871 7.0994 94.871 7.28076C94.871 7.46871 94.8979 7.64018 94.9517 7.79516C95.0056 7.94685 95.0863 8.0771 95.194 8.18591C95.3016 8.29473 95.4344 8.37882 95.5923 8.43817C95.7538 8.49752 95.9422 8.5272 96.1575 8.5272Z" fill="black"/>
<path d="M105.293 5.95518C105.293 6.5817 105.22 7.12578 105.073 7.58742C104.925 8.04907 104.723 8.43158 104.464 8.73494C104.206 9.03501 103.899 9.25924 103.544 9.40763C103.192 9.55272 102.812 9.62526 102.403 9.62526C101.994 9.62526 101.613 9.55272 101.261 9.40763C100.91 9.25924 100.607 9.03501 100.352 8.73494C100.097 8.43158 99.896 8.04907 99.7488 7.58742C99.6053 7.12578 99.5335 6.5817 99.5335 5.95518C99.5335 5.32866 99.6053 4.78622 99.7488 4.32788C99.896 3.86623 100.097 3.48537 100.352 3.1853C100.607 2.88194 100.91 2.65771 101.261 2.51262C101.613 2.36423 101.994 2.29004 102.403 2.29004C102.812 2.29004 103.192 2.36423 103.544 2.51262C103.899 2.65771 104.206 2.88194 104.464 3.1853C104.723 3.48537 104.925 3.86623 105.073 4.32788C105.22 4.78622 105.293 5.32866 105.293 5.95518ZM103.759 5.95518C103.759 5.44737 103.72 5.02859 103.641 4.69884C103.565 4.36909 103.465 4.10859 103.339 3.91734C103.214 3.72609 103.068 3.59254 102.903 3.5167C102.742 3.44086 102.575 3.40294 102.403 3.40294C102.23 3.40294 102.064 3.44086 101.902 3.5167C101.744 3.59254 101.602 3.72609 101.477 3.91734C101.355 4.10859 101.256 4.36909 101.181 4.69884C101.105 5.02859 101.068 5.44737 101.068 5.95518C101.068 6.46628 101.105 6.88671 101.181 7.21646C101.256 7.54621 101.355 7.8067 101.477 7.99796C101.602 8.18921 101.744 8.32276 101.902 8.3986C102.064 8.47444 102.23 8.51236 102.403 8.51236C102.575 8.51236 102.742 8.47444 102.903 8.3986C103.068 8.32276 103.214 8.18921 103.339 7.99796C103.465 7.8067 103.565 7.54621 103.641 7.21646C103.72 6.88671 103.759 6.46628 103.759 5.95518Z" fill="black"/>
<path d="M48.6637 2.37012V9.54706H47.038V6.45568H43.5983V9.54706H41.9727V2.37012H43.5983V5.41698H47.038V2.37012H48.6637Z" fill="#FF631C"/>
<path d="M51.9251 3.53247V5.37741H54.5305V6.5002H51.9251V8.3847H55.2733V9.54706H50.2995V2.37012H55.2733V3.53247H51.9251Z" fill="#FF631C"/>
<path d="M60.6049 6.8217L59.7597 4.62559C59.7095 4.51017 59.6557 4.37498 59.5982 4.22C59.5444 4.06502 59.4924 3.89685 59.4421 3.71548C59.3919 3.90014 59.3381 4.07161 59.2806 4.22989C59.2268 4.38487 59.1748 4.52007 59.1245 4.63548L58.2848 6.8217H60.6049ZM63.3179 9.54706H62.0637C61.9237 9.54706 61.8089 9.51738 61.7191 9.45802C61.633 9.39537 61.5684 9.31623 61.5254 9.22061L60.9978 7.85051H57.8865L57.3589 9.22061C57.323 9.30304 57.2602 9.37889 57.1705 9.44813C57.0808 9.51408 56.9678 9.54706 56.8314 9.54706H55.5664L58.6185 2.37012H60.2711L63.3179 9.54706Z" fill="#FF631C"/>
<path d="M68.6756 8.34018V9.54706H64.0408V2.37012H65.6557V8.34018H68.6756Z" fill="#FF631C"/>
<path d="M74.2477 3.5671H71.9653V9.54706H70.345V3.5671H68.0627V2.37012H74.2477V3.5671Z" fill="#FF631C"/>
<path d="M81.9079 2.37012V9.54706H80.2822V6.45568H76.8425V9.54706H75.2168V2.37012H76.8425V5.41698H80.2822V2.37012H81.9079Z" fill="#FF631C"/>
<path d="M5.68454 3.7452C5.63429 3.82104 5.58226 3.8771 5.52843 3.91337C5.47819 3.94634 5.4118 3.96283 5.32926 3.96283C5.25031 3.96283 5.16418 3.9381 5.07087 3.88864C4.98116 3.83588 4.87529 3.77982 4.75328 3.72047C4.63126 3.66111 4.49131 3.60671 4.3334 3.55724C4.1755 3.50448 3.99069 3.4781 3.77896 3.4781C3.40574 3.4781 3.12582 3.55559 2.93921 3.71058C2.7526 3.86226 2.65929 4.06176 2.65929 4.30907C2.65929 4.46734 2.70954 4.59924 2.81002 4.70476C2.91409 4.80698 3.04866 4.89602 3.21374 4.97186C3.38241 5.0477 3.57261 5.1153 3.78434 5.17465C3.99607 5.23401 4.21318 5.29996 4.43568 5.3725C4.65818 5.44175 4.87529 5.52418 5.08702 5.61981C5.29875 5.71544 5.48716 5.83579 5.65224 5.98088C5.8209 6.12597 5.95548 6.30404 6.05596 6.51507C6.16003 6.72281 6.21207 6.97672 6.21207 7.27679C6.21207 7.60324 6.14927 7.9099 6.02366 8.19678C5.90165 8.48036 5.72401 8.72932 5.49075 8.94366C5.25748 9.1547 4.9686 9.32122 4.62409 9.44322C4.28316 9.56523 3.89559 9.62623 3.46136 9.62623C3.21374 9.62623 2.96613 9.60315 2.71851 9.55699C2.47448 9.51082 2.23763 9.44652 2.00795 9.36409C1.78187 9.28165 1.56834 9.18272 1.36738 9.06731C1.16641 8.9519 0.990567 8.8233 0.839844 8.68151L1.31355 7.97915C1.35302 7.92639 1.40506 7.88352 1.46965 7.85055C1.53425 7.81427 1.60243 7.79614 1.67421 7.79614C1.7711 7.79614 1.87338 7.82911 1.98104 7.89506C2.0887 7.96101 2.21251 8.03356 2.35246 8.1127C2.49242 8.19184 2.65391 8.26438 2.83693 8.33033C3.02354 8.39628 3.24604 8.42925 3.50442 8.42925C3.88123 8.42925 4.17192 8.35011 4.37647 8.19183C4.58461 8.03356 4.68868 7.79779 4.68868 7.48453C4.68868 7.30317 4.63665 7.15643 4.53258 7.04432C4.43209 6.9322 4.29931 6.83822 4.13423 6.76238C3.96916 6.68654 3.78075 6.62224 3.56902 6.56948C3.35729 6.51342 3.14018 6.45242 2.91768 6.38647C2.69518 6.32052 2.47807 6.24138 2.26634 6.14905C2.05461 6.05672 1.8662 5.93472 1.70112 5.78303C1.53604 5.63135 1.40147 5.4434 1.2974 5.21917C1.19692 4.99494 1.14667 4.7163 1.14667 4.38326C1.14667 4.11616 1.20409 3.85731 1.31893 3.60671C1.43377 3.3561 1.60243 3.13352 1.82493 2.93897C2.04743 2.74442 2.32017 2.58779 2.64315 2.46908C2.96971 2.35037 3.34293 2.29102 3.76281 2.29102C4.23292 2.29102 4.66715 2.35861 5.06549 2.49381C5.46742 2.62571 5.80655 2.81037 6.08288 3.04779L5.68454 3.7452Z" fill="black"/>
<path d="M14.9302 5.95615C14.9302 6.48045 14.8333 6.96683 14.6395 7.41528C14.4493 7.86374 14.1783 8.25119 13.8266 8.57764C13.4785 8.90409 13.0587 9.16129 12.567 9.34925C12.0754 9.53391 11.5299 9.62623 10.9306 9.62623C10.3313 9.62623 9.78581 9.53391 9.29417 9.34925C8.80252 9.16129 8.38085 8.90409 8.02916 8.57764C7.67747 8.25119 7.40474 7.86374 7.21095 7.41528C7.02075 6.96683 6.92565 6.48045 6.92565 5.95615C6.92565 5.43185 7.02075 4.94713 7.21095 4.50197C7.40474 4.05351 7.67747 3.66606 8.02916 3.33961C8.38085 3.01316 8.80252 2.75761 9.29417 2.57295C9.78581 2.38499 10.3313 2.29102 10.9306 2.29102C11.5299 2.29102 12.0754 2.38499 12.567 2.57295C13.0587 2.75761 13.4785 3.01481 13.8266 3.34456C14.1783 3.67101 14.4493 4.05846 14.6395 4.50691C14.8333 4.95207 14.9302 5.43515 14.9302 5.95615ZM13.2776 5.95615C13.2776 5.58024 13.2238 5.2439 13.1161 4.94713C13.0084 4.64706 12.8523 4.39315 12.6478 4.18541C12.4468 3.97437 12.201 3.81445 11.9103 3.70563C11.6232 3.59352 11.2966 3.53746 10.9306 3.53746C10.5646 3.53746 10.2362 3.59352 9.94551 3.70563C9.65483 3.81445 9.40721 3.97437 9.20266 4.18541C9.00169 4.39315 8.84738 4.64706 8.73972 4.94713C8.63206 5.2439 8.57823 5.58024 8.57823 5.95615C8.57823 6.33536 8.63206 6.675 8.73972 6.97507C8.84738 7.27184 9.00169 7.5241 9.20266 7.73184C9.40721 7.93958 9.65483 8.09951 9.94551 8.21162C10.2362 8.32044 10.5646 8.37484 10.9306 8.37484C11.2966 8.37484 11.6232 8.32044 11.9103 8.21162C12.201 8.09951 12.4468 7.93958 12.6478 7.73184C12.8523 7.5241 13.0084 7.27184 13.1161 6.97507C13.2238 6.675 13.2776 6.33536 13.2776 5.95615Z" fill="black"/>
<path d="M22.6726 2.37016L19.5289 9.54709H18.0647L14.9211 2.37016H16.2238C16.3637 2.37016 16.4768 2.40148 16.5629 2.46413C16.6526 2.52349 16.719 2.60098 16.7621 2.6966L18.4523 6.83163C18.5169 6.98661 18.5797 7.15643 18.6407 7.34109C18.7053 7.52245 18.7645 7.7137 18.8184 7.91485C18.865 7.7137 18.9153 7.52245 18.9691 7.34109C19.0265 7.15643 19.0875 6.98661 19.1521 6.83163L20.8316 2.6966C20.8675 2.61417 20.9303 2.53997 21.02 2.47403C21.1133 2.40478 21.2281 2.37016 21.3645 2.37016H22.6726Z" fill="black"/>
<path d="M25.8394 5.7682C26.1013 5.7682 26.3274 5.73852 26.5176 5.67916C26.7078 5.61651 26.8639 5.53243 26.986 5.42691C27.108 5.31809 27.1977 5.19114 27.2551 5.04605C27.3125 4.90096 27.3412 4.74268 27.3412 4.57122C27.3412 4.23158 27.2174 3.96778 26.9698 3.77982C26.7258 3.59187 26.3526 3.49789 25.8501 3.49789H25.0104V5.7682H25.8394ZM29.6236 9.54709H28.1648C27.8921 9.54709 27.6947 9.45147 27.5727 9.26022L26.087 7.05915C26.026 6.97342 25.9578 6.91077 25.8824 6.8712C25.8107 6.83163 25.703 6.81185 25.5595 6.81185H25.0104V9.54709H23.3955V2.37016H25.8501C26.3956 2.37016 26.8621 2.42291 27.2497 2.52843C27.6373 2.63066 27.9549 2.7741 28.2025 2.95875C28.4501 3.14341 28.6314 3.36434 28.7462 3.62154C28.861 3.87545 28.9184 4.15573 28.9184 4.4624C28.9184 4.69982 28.8808 4.92569 28.8054 5.14003C28.7336 5.35107 28.6278 5.54397 28.4878 5.71873C28.3478 5.8935 28.1756 6.04848 27.971 6.18368C27.7665 6.31887 27.5332 6.42769 27.2713 6.51013C27.3753 6.56289 27.4722 6.62719 27.5619 6.70303C27.6516 6.77557 27.7324 6.86296 27.8042 6.96518L29.6236 9.54709Z" fill="black"/>
<path d="M32.0127 9.54709H30.3871V2.37016H32.0127V9.54709Z" fill="black"/>
<path d="M40.3374 2.37016V9.54709H39.503C39.3774 9.54709 39.2715 9.52896 39.1854 9.49269C39.0993 9.45312 39.0149 9.38717 38.9324 9.29484L35.0405 4.74433C35.0513 4.85974 35.0584 4.97351 35.062 5.08562C35.0692 5.19773 35.0728 5.3016 35.0728 5.39723V9.54709H33.6463V2.37016H34.4968C34.565 2.37016 34.6224 2.37345 34.6691 2.38005C34.7193 2.38335 34.7642 2.39489 34.8036 2.41467C34.8431 2.43116 34.8808 2.45424 34.9167 2.48392C34.9526 2.5136 34.9921 2.55316 35.0351 2.60263L38.9539 7.17292C38.9396 7.04761 38.9288 6.92726 38.9216 6.81185C38.9145 6.69314 38.9109 6.58102 38.9109 6.4755V2.37016H40.3374Z" fill="black"/>
<path d="M108.079 0.685254H106.931V3.61111H106.462V0.685254H105.316V0.329102H108.079V0.685254Z" fill="black"/>
<path d="M109.217 0.329102L110.385 3.00701L111.552 0.329102H112.163V3.61111H111.692V2.33302L111.736 0.953495L110.564 3.61111H110.203L109.033 0.960258L109.08 2.33302V3.61111H108.609V0.329102H109.217Z" fill="black"/>
</svg>
