<svg width="18" height="17" viewBox="0 0 18 17" fill="none" xmlns="http://www.w3.org/2000/svg">
<path d="M14.6889 2.3424C11.6495 -0.696972 6.80337 -0.764513 3.64579 2.07224L2.80152 1.22797C2.53136 0.957799 2.05857 1.09288 1.97414 1.46436L1.01167 5.41555C0.927243 5.77014 1.24807 6.10785 1.61954 6.02342L5.57073 5.06095C5.94221 4.97653 6.07729 4.50374 5.80713 4.23357L4.87843 3.30487C7.36058 1.14354 11.126 1.21108 13.49 3.57504C15.9384 6.02342 15.9384 10.0422 13.4731 12.5074L13.2367 12.7269C12.8821 13.0478 12.8652 13.5881 13.1692 13.9427C13.338 14.1284 13.5744 14.2297 13.8108 14.2297C14.0134 14.2297 14.2161 14.1622 14.3849 14.0102C14.4862 13.9258 14.5875 13.8245 14.672 13.7232C17.8127 10.5825 17.8127 5.48309 14.6889 2.3424Z" fill="#63686B"/>
<path d="M10.973 14.0275L10.6522 14.1288C10.1963 14.247 9.92614 14.7198 10.0443 15.1925C10.1457 15.5809 10.5002 15.8342 10.8717 15.8342C10.9393 15.8342 11.0237 15.8173 11.0912 15.8004C11.2263 15.7666 11.3614 15.716 11.4965 15.6822C11.9524 15.5303 12.1888 15.0406 12.0368 14.6016C11.9186 14.1288 11.4289 13.8755 10.973 14.0275Z" fill="#63686B"/>
<path d="M8.06954 14.2801L7.73183 14.2294C7.25904 14.1281 6.80313 14.4321 6.7187 14.9049C6.61739 15.3777 6.92133 15.8336 7.39412 15.918C7.5292 15.9518 7.68117 15.9686 7.81626 15.9855C7.85003 15.9855 7.90068 16.0024 7.95134 16.0024C8.37347 16.0024 8.74495 15.6985 8.79561 15.2595C8.86315 14.7867 8.54233 14.3476 8.06954 14.2801Z" fill="#63686B"/>
<path d="M5.09684 12.9978C4.72536 12.7107 4.18503 12.7614 3.88109 13.1329C3.59404 13.5044 3.64469 14.0447 4.01617 14.3486C4.13437 14.433 4.23568 14.5175 4.35388 14.6019C4.50585 14.7032 4.6747 14.7539 4.84356 14.7539C5.11373 14.7539 5.38389 14.6357 5.55275 14.3824C5.82291 13.994 5.73849 13.4537 5.35012 13.1835L5.09684 12.9978Z" fill="#63686B"/>
<path d="M3.2733 10.7179C3.07068 10.2788 2.56412 10.0931 2.12509 10.2957C1.68607 10.4984 1.50033 11.0049 1.70296 11.4439C1.7705 11.579 1.82116 11.6972 1.8887 11.8323C2.04067 12.1194 2.34461 12.2882 2.64854 12.2882C2.78363 12.2882 2.91871 12.2544 3.05379 12.1869C3.47593 11.9674 3.6279 11.4439 3.40839 11.0218L3.2733 10.7179Z" fill="#63686B"/>
<path d="M11.8346 8.80829L9.85903 7.54188V4.4012C9.85903 3.9284 9.47067 3.54004 8.99787 3.54004C8.52508 3.54004 8.13672 3.9284 8.13672 4.4012V8.01467C8.13672 8.30173 8.28869 8.58878 8.54197 8.74075L10.9059 10.2435C11.041 10.328 11.2099 10.3786 11.3618 10.3786C11.6489 10.3786 11.9191 10.2435 12.0879 9.97338C12.3412 9.58502 12.223 9.06157 11.8346 8.80829Z" fill="#63686B"/>
</svg>
