<svg width="42" height="42" viewBox="0 0 42 42" fill="none" xmlns="http://www.w3.org/2000/svg">
<g clip-path="url(#clip0)">
<path d="M39.3748 21.2273C39.7712 21.364 40.1267 21.5554 40.4412 21.8015C40.7556 22.0476 41.0359 22.3347 41.282 22.6628C41.5281 22.991 41.7058 23.3464 41.8152 23.7292C41.9246 24.1121 41.9861 24.5154 41.9998 24.9392V30.1892C41.9998 31.8162 41.6921 33.3474 41.0769 34.783C40.4617 36.2185 39.614 37.4695 38.5339 38.5359C37.4539 39.6023 36.2029 40.4431 34.781 41.0583C33.3591 41.6736 31.8279 41.988 30.1873 42.0017C28.6833 42.0017 27.2615 41.7351 25.9216 41.2019C24.5818 40.6687 23.3787 39.9304 22.3123 38.9871C21.2458 38.0437 20.3777 36.9363 19.7078 35.6648C19.0378 34.3933 18.614 33.0056 18.4363 31.5017H2.62476C2.25562 31.5017 1.91382 31.4333 1.59937 31.2966C1.28491 31.1599 1.01147 30.9753 0.779053 30.7429C0.546631 30.5105 0.355225 30.2302 0.204834 29.9021C0.0544433 29.574 -0.013916 29.2322 -0.00024414 28.8767V5.25171C-0.00024414 4.88257 0.0681152 4.54077 0.204834 4.22632C0.341553 3.91187 0.526123 3.63843 0.758545 3.40601C0.990967 3.17358 1.27124 2.98218 1.59937 2.83179C1.92749 2.6814 2.26929 2.61304 2.62476 2.62671H36.7498C37.1189 2.62671 37.4607 2.69507 37.7751 2.83179C38.0896 2.96851 38.363 3.15308 38.5955 3.3855C38.8279 3.61792 39.0193 3.89819 39.1697 4.22632C39.3201 4.55444 39.3884 4.89624 39.3748 5.25171V21.2273ZM18.3748 26.2517C18.3748 25.5271 18.5115 24.8503 18.7849 24.2214C19.0583 23.5925 19.4343 23.032 19.9128 22.5398C20.3914 22.0476 20.9451 21.6716 21.574 21.4119C22.2029 21.1521 22.8865 21.0154 23.6248 21.0017V14.4392C23.6248 13.8923 23.7273 13.3796 23.9324 12.9011C24.1375 12.4226 24.4177 12.0056 24.7732 11.6501C25.1287 11.2947 25.5457 11.0144 26.0242 10.8093C26.5027 10.6042 27.0154 10.5017 27.5623 10.5017C28.1091 10.5017 28.615 10.6042 29.0798 10.8093C29.5447 11.0144 29.9617 11.2947 30.3308 11.6501C30.7 12.0056 30.9802 12.4226 31.1716 12.9011C31.363 13.3796 31.4656 13.8923 31.4792 14.4392V17.7205C31.4792 18.8005 31.4861 19.8943 31.4998 21.0017H36.7498V5.25171H2.62476V28.8767H18.3748V26.2517ZM39.3748 24.9392C39.3748 24.5837 39.2449 24.2761 38.9851 24.0164C38.7253 23.7566 38.4177 23.6267 38.0623 23.6267H28.8748V14.4392C28.8748 14.0837 28.7449 13.7761 28.4851 13.5164C28.2253 13.2566 27.9177 13.1267 27.5623 13.1267C27.2068 13.1267 26.8992 13.2566 26.6394 13.5164C26.3796 13.7761 26.2498 14.0837 26.2498 14.4392V30.1892C26.2498 30.5447 26.1199 30.8523 25.8601 31.1121C25.6003 31.3718 25.2927 31.5017 24.9373 31.5017C24.5818 31.5017 24.2742 31.3718 24.0144 31.1121C23.7546 30.8523 23.6248 30.5447 23.6248 30.1892V23.6267C23.2556 23.6267 22.9138 23.6951 22.5994 23.8318C22.2849 23.9685 22.0115 24.1531 21.7791 24.3855C21.5466 24.6179 21.3552 24.8982 21.2048 25.2263C21.0544 25.5544 20.9861 25.8962 20.9998 26.2517V30.1892C20.9998 31.4607 21.239 32.6501 21.7175 33.7576C22.196 34.865 22.8523 35.8357 23.6863 36.6697C24.5203 37.5037 25.491 38.1599 26.5984 38.6384C27.7058 39.1169 28.9021 39.363 30.1873 39.3767C31.4587 39.3767 32.6482 39.1374 33.7556 38.6589C34.863 38.1804 35.8337 37.5242 36.6677 36.6902C37.5017 35.8562 38.158 34.8855 38.6365 33.7781C39.115 32.6707 39.3611 31.4744 39.3748 30.1892V24.9392Z" fill="#C4C4C4"/>
</g>
<defs>
<clipPath id="clip0">
<rect width="42" height="42" fill="white"/>
</clipPath>
</defs>
</svg>
