<svg width="49" height="48" viewBox="0 0 49 48" fill="none" xmlns="http://www.w3.org/2000/svg">
<g clip-path="url(#clip0)">
<path d="M37.1094 9C37.5156 9 38 8.97656 38.5625 8.92969C39.125 8.88281 39.7187 8.85938 40.3437 8.85938C40.9687 8.85938 41.5859 8.88281 42.1953 8.92969C42.8047 8.97656 43.3594 9.11719 43.8594 9.35156C44.3594 9.58594 44.75 9.91406 45.0312 10.3359C45.3125 10.7578 45.4687 11.3125 45.5 12V33C45.5 33.4219 45.4219 33.8125 45.2656 34.1719C45.1094 34.5312 44.8984 34.8438 44.6328 35.1094C44.3672 35.375 44.0469 35.5938 43.6719 35.7656C43.2969 35.9375 42.9062 36.0156 42.5 36H3.5C3.07812 36 2.6875 35.9219 2.32812 35.7656C1.96875 35.6094 1.65625 35.3984 1.39062 35.1328C1.125 34.8672 0.90625 34.5469 0.734375 34.1719C0.5625 33.7969 0.484375 33.4062 0.5 33V12C0.5 11.5781 0.578125 11.1875 0.734375 10.8281C0.890625 10.4688 1.10156 10.1562 1.36719 9.89062C1.63281 9.625 1.95312 9.40625 2.32812 9.23438C2.70312 9.0625 3.09375 8.98438 3.5 9H23.8906L31.5078 1.38281C31.9453 0.945312 32.4453 0.609375 33.0078 0.375C33.5703 0.140625 34.1719 0.015625 34.8125 0C35.4531 0 36.0547 0.125 36.6172 0.375C37.1797 0.625 37.6719 0.960938 38.0937 1.38281C38.5156 1.80469 38.8516 2.29688 39.1016 2.85938C39.3516 3.42188 39.4766 4.03125 39.4766 4.6875C39.4766 5.20312 39.4219 5.64844 39.3125 6.02344C39.2031 6.39844 39.0391 6.75781 38.8203 7.10156C38.6016 7.44531 38.3516 7.75781 38.0703 8.03906C37.7891 8.32031 37.4687 8.64062 37.1094 9ZM34.8125 3C34.3594 3 33.9688 3.16406 33.6406 3.49219L14.4219 22.7109L13.625 25.875L16.7891 25.0781L32.75 9.14062C32.7188 9.10938 32.7188 9.07031 32.75 9.02344C32.7812 8.97656 32.8203 8.96875 32.8672 9C33.0547 8.8125 33.3516 8.54688 33.7578 8.20312C34.1641 7.85938 34.5703 7.49219 34.9766 7.10156C35.3828 6.71094 35.7344 6.29688 36.0312 5.85938C36.3281 5.42188 36.4844 5.03125 36.5 4.6875C36.5 4.21875 36.3359 3.82031 36.0078 3.49219C35.6797 3.16406 35.2812 3 34.8125 3ZM42.5 12H34.1094L18.3359 27.7969L9.5 30L11.7031 21.1641L20.8906 12H3.5V33H42.5V12Z" fill="#C4C4C4"/>
</g>
<defs>
<clipPath id="clip0">
<rect width="48" height="48" fill="white" transform="translate(0.5)"/>
</clipPath>
</defs>
</svg>
