<svg width="15" height="18" viewBox="0 0 15 18" fill="none" xmlns="http://www.w3.org/2000/svg">
<path d="M14.9945 7.52235L7.78347 10.3429L7.46661 10.4667L7.4133 10.3073L7.26632 9.86644L7.22274 9.73564L7.54527 9.60945L14.9436 6.71582C14.5972 3.11266 12.6075 0 8.18202 0C4.41644 0 1.36384 3.82284 1.36384 7.89939C1.36384 8.21849 1.38574 8.53232 1.42223 8.84045C1.1447 8.85208 0.871023 9.06211 0.608497 9.469C0.170413 10.1474 -0.162256 11.2607 0.0836473 11.9882L2.08554 16.5798L2.10784 16.6233C2.4405 17.1858 2.8419 17.4364 3.40891 17.4364C3.40891 17.4364 3.40891 17.4364 3.40911 17.4364C3.64326 17.4364 3.89504 17.3943 4.14074 17.3493L6.29163 17.0477L6.36644 17.0297L6.41549 17.0056C6.48624 16.9709 6.55659 16.9363 6.62673 16.9005V17.6587C6.62673 17.8468 6.76783 18 6.94197 18H13.6482C13.8222 18 13.9633 17.847 13.9633 17.6587V14.9791H7.79137H7.43235H7.34437V14.202H7.43235H7.79137H13.9633V11.8113C13.9633 10.8782 15 9.3371 15 7.89983C15 7.77407 14.9984 7.64788 14.9945 7.52235ZM3.40911 16.6602C3.14314 16.6602 2.94447 16.5882 2.72432 16.2252L0.753038 11.7075C0.70175 11.541 0.708439 11.2945 0.761958 11.0197C0.807368 10.7864 0.886025 10.5323 0.996306 10.288C1.20004 9.83506 1.4054 9.63491 1.44615 9.61582H6.24582C6.70235 9.61582 7.07374 10.0181 7.07374 10.5123V15.3789C7.07374 15.7002 6.92108 15.8686 6.52436 16.0893C6.4161 16.1495 6.29346 16.2129 6.14628 16.2855L4.03553 16.5818C3.80746 16.6229 3.58792 16.6602 3.40911 16.6602ZM4.18007 7.17625C4.49672 7.17625 4.75337 7.45431 4.75337 7.79712C4.75337 8.13992 4.49652 8.41776 4.18007 8.41776C3.86321 8.41776 3.60636 8.1397 3.60636 7.79712C3.60636 7.45431 3.86321 7.17625 4.18007 7.17625Z" fill="#5F7AD8"/>
</svg>
