<svg width="22" height="22" viewBox="0 0 22 22" fill="none" xmlns="http://www.w3.org/2000/svg">
<path d="M13.0819 14.9327C13.053 14.846 12.9951 14.7592 12.8795 14.7014C12.1855 14.2965 11.4626 14.123 11.0867 14.123C10.1035 14.123 9.3806 14.2965 8.59986 14.6725C8.45528 14.7303 8.36853 14.817 8.33961 14.9327C8.3107 15.0194 8.33961 15.0773 8.36853 15.164C8.45528 15.3375 8.65769 15.3954 8.88902 15.2797C9.52518 14.9616 10.1324 14.7881 10.7397 14.7881C11.3469 14.7881 11.9541 14.9616 12.5325 15.2797C12.5903 15.3086 12.677 15.3375 12.7349 15.3375C12.8505 15.3375 12.9662 15.2797 13.024 15.164C13.0819 15.1062 13.1108 15.0194 13.0819 14.9327Z" fill="#63686B" stroke="#63686B" stroke-width="0.75"/>
<path d="M11.9832 12.0404C12.0988 11.8669 12.041 11.6934 11.8964 11.5778C11.7518 11.4621 11.5783 11.5199 11.4338 11.6934C11.2314 11.9537 11 12.0982 10.7398 12.0982C10.4795 12.0982 10.2482 11.9537 10.0458 11.7223C9.93012 11.5778 9.78554 11.4621 9.55421 11.6067C9.38072 11.7223 9.3518 11.9247 9.49638 12.1272C9.78554 12.5609 10.1904 12.7922 10.6819 12.7922C11.2603 12.7344 11.694 12.5031 11.9832 12.0404Z" fill="#63686B" stroke="#63686B" stroke-width="0.75"/>
<path d="M7.21172 6.43134C7.41414 6.46026 7.64547 6.54701 7.84788 6.60484C8.16596 6.69159 8.48404 6.80725 8.83103 6.80725C8.91778 6.80725 9.03344 6.80725 9.12019 6.77834C9.29369 6.74942 9.43827 6.63376 9.46719 6.51809C9.4961 6.43134 9.4961 6.31568 9.35152 6.1711C9.20694 6.02652 8.97561 5.96868 8.7732 5.93977C8.57078 5.91085 8.39729 5.88194 8.19487 5.8241H8.16596C7.55872 5.70844 6.95148 5.59277 6.34424 5.59277C6.19966 5.59277 6.05508 5.59277 5.9105 5.62169C5.59242 5.65061 5.36109 5.73735 5.04301 5.93977C4.86951 6.05543 4.63818 6.22893 4.63818 6.40243C4.63818 6.48917 4.6671 6.54701 4.72493 6.60484C4.78276 6.66267 4.86951 6.66267 4.95626 6.63376C5.41892 6.48917 5.93941 6.40243 6.4599 6.40243C6.72015 6.37351 6.98039 6.37351 7.21172 6.43134Z" fill="#63686B" stroke="#63686B" stroke-width="0.75"/>
<path d="M8.16603 7.81867C7.87686 7.81867 7.55879 7.84759 7.26962 7.84759C7.15396 7.84759 7.03829 7.87651 6.95155 7.87651C6.22864 7.90542 5.6214 7.78976 5.04308 7.47168H5.01416H4.98524C4.95633 7.47168 4.8985 7.5006 4.86958 7.52951C4.84066 7.58734 4.84066 7.64518 4.8985 7.70301C4.95633 7.76084 4.98524 7.78976 5.04308 7.84759C5.12983 7.93434 5.24549 8.05 5.36115 8.13675C5.39007 8.13675 5.39007 8.16567 5.41899 8.19458C5.56357 8.28133 5.73707 8.36808 5.91056 8.42591C6.22864 8.54158 6.57563 8.62833 6.95155 8.65724C7.06721 8.65724 7.21179 8.68616 7.35637 8.68616C7.61662 8.68616 7.84795 8.65724 8.05036 8.59941C8.16603 8.57049 8.25277 8.51266 8.33952 8.48375C8.45519 8.42591 8.57085 8.36808 8.68652 8.33916C8.80218 8.31025 8.88893 8.31025 9.00459 8.28133C9.09134 8.28133 9.14918 8.2235 9.14918 8.13675C9.14918 8.05 9.09134 7.99217 9.00459 7.96325C8.8311 7.84759 8.51302 7.81867 8.16603 7.81867Z" fill="#63686B" stroke="#63686B" stroke-width="0.75"/>
<path d="M16.9276 6.37313C16.9276 6.19963 16.6963 6.02614 16.5228 5.91047C16.2047 5.70806 15.9734 5.62131 15.6553 5.59239C15.5107 5.59239 15.3661 5.56348 15.2216 5.56348C14.6143 5.56348 13.9782 5.67914 13.3709 5.82372H13.342C13.1685 5.85264 12.9661 5.91047 12.7926 5.93939C12.5902 5.9683 12.3589 6.02614 12.2143 6.17072C12.0697 6.3153 12.0697 6.45988 12.0986 6.51771C12.1275 6.63338 12.2721 6.74904 12.4456 6.77796C12.5323 6.80687 12.648 6.80687 12.7348 6.80687C13.0818 6.80687 13.3998 6.69121 13.7179 6.60446C13.9203 6.54663 14.1517 6.45988 14.3541 6.43096C15.077 6.3153 15.8577 6.37313 16.5517 6.60446C16.6384 6.63338 16.7252 6.63338 16.783 6.57554C16.8987 6.51771 16.9276 6.45988 16.9276 6.37313Z" fill="#63686B" stroke="#63686B" stroke-width="0.75"/>
<path d="M16.6095 7.47168L16.5517 7.5006C16.0023 7.81867 15.3662 7.93434 14.6432 7.90542C14.5276 7.90542 14.4408 7.90542 14.3252 7.87651C14.036 7.84759 13.7468 7.84759 13.4288 7.84759C13.0818 7.84759 12.7926 7.87651 12.5324 7.93434C12.4456 7.96325 12.3878 8.02109 12.4167 8.10784C12.4167 8.19458 12.4745 8.25242 12.5613 8.25242C12.6769 8.25242 12.7926 8.28133 12.9083 8.31025C13.0239 8.33916 13.1396 8.397 13.2553 8.45483C13.342 8.51266 13.4288 8.54158 13.5444 8.57049C13.7468 8.62833 13.9782 8.65724 14.2384 8.65724C14.383 8.65724 14.5276 8.65724 14.6432 8.62833C15.0192 8.59941 15.3662 8.51266 15.6842 8.397C15.8866 8.33916 16.0312 8.25242 16.1758 8.16567C16.2047 8.13675 16.2336 8.13675 16.2336 8.10784C16.3493 8.02109 16.465 7.93434 16.5517 7.81867C16.6095 7.78976 16.6385 7.73193 16.6963 7.67409C16.7541 7.61626 16.7541 7.55843 16.7252 7.5006C16.6963 7.5006 16.6385 7.47168 16.6095 7.47168Z" fill="#63686B" stroke="#63686B" stroke-width="0.75"/>
<path d="M10.8553 20.0795C10.8264 20.0795 10.8264 20.0795 10.7975 20.0795C10.0167 20.0795 9.20709 19.877 8.39743 19.4144C7.52995 18.9517 6.80704 18.4312 6.17089 17.8529C5.3034 17.1011 4.60941 16.1179 3.97326 14.8167C3.65518 14.1516 3.45276 13.4866 3.36602 12.7926C3.27927 12.1564 3.04794 11.5203 2.78769 10.8263C2.55636 10.2479 2.32503 9.64071 2.20937 9.00455C2.00695 7.96357 2.18045 6.92259 2.38286 5.93944C2.46961 5.41894 2.55636 4.92737 2.61419 4.43579L2.64311 3.97314C2.64311 3.51048 2.67203 2.98998 2.70094 2.49841C2.72986 2.26708 2.93227 2.06467 3.1636 2.09358C3.42385 2.1225 3.59734 2.32491 3.59734 2.58516C3.53951 3.07673 3.5106 3.56831 3.48168 4.03097L3.45276 4.49363C3.42385 5.01412 3.30818 5.56353 3.22143 6.08402C3.04794 7.03825 2.87444 7.96357 3.04794 8.83105C3.1636 9.38046 3.36602 9.92987 3.59734 10.5082C3.85759 11.2022 4.14675 11.9251 4.2335 12.6769C4.32025 13.2841 4.49375 13.8625 4.75399 14.4408C5.33232 15.6553 5.96847 16.5228 6.74921 17.2168C7.32753 17.7372 8.02152 18.1999 8.83117 18.6626C9.49625 19.0385 10.1613 19.212 10.7975 19.212C11.4336 19.212 12.0987 19.0385 12.7638 18.6626C13.5734 18.2288 14.2385 17.7372 14.8457 17.2168C15.6265 16.5228 16.2626 15.6553 16.841 14.4408C17.1301 13.8625 17.3036 13.2841 17.3615 12.6769C17.4482 11.9251 17.7374 11.2022 17.9976 10.5082C18.2289 9.92987 18.4314 9.38046 18.547 8.83105C18.7205 7.96357 18.547 7.06717 18.3735 6.08402C18.2868 5.56353 18.1711 5.04303 18.1422 4.49363L18.1133 4.03097C18.0844 3.62614 18.0554 3.16348 18.0265 2.70082C17.9976 2.46949 18.2 2.23816 18.4313 2.23816C18.6627 2.20925 18.8651 2.41166 18.894 2.64299C18.9229 3.10565 18.9518 3.53939 18.9808 4.00205L19.0386 4.43579C19.0675 4.92737 19.1543 5.41894 19.2699 5.93944C19.4434 6.9515 19.6458 7.99249 19.4434 9.00455C19.3278 9.64071 19.0675 10.2479 18.8651 10.8263C18.6048 11.4913 18.3446 12.1275 18.2868 12.7926C18.2 13.4866 17.9976 14.1516 17.6795 14.8167C17.0434 16.1179 16.3494 17.1011 15.4819 17.8529C14.8457 18.4312 14.1228 18.9228 13.2554 19.4144C12.4168 19.8481 11.636 20.0795 10.8553 20.0795Z" fill="#63686B" stroke="#63686B" stroke-width="0.85"/>
<path d="M13.4866 10.7682C13.822 10.7682 14.0939 10.4963 14.0939 10.161C14.0939 9.82558 13.822 9.55371 13.4866 9.55371C13.1513 9.55371 12.8794 9.82558 12.8794 10.161C12.8794 10.4963 13.1513 10.7682 13.4866 10.7682Z" fill="#63686B" stroke="#63686B" stroke-width="0.75"/>
<path d="M15.1638 11.8383C15.3395 11.8383 15.4819 11.6959 15.4819 11.5202C15.4819 11.3446 15.3395 11.2021 15.1638 11.2021C14.9881 11.2021 14.8457 11.3446 14.8457 11.5202C14.8457 11.6959 14.9881 11.8383 15.1638 11.8383Z" fill="#63686B" stroke="#63686B" stroke-width="0.75"/>
<path d="M10.5949 5.18791C10.7706 5.18791 10.913 5.04551 10.913 4.86984C10.913 4.69417 10.7706 4.55176 10.5949 4.55176C10.4193 4.55176 10.2769 4.69417 10.2769 4.86984C10.2769 5.04551 10.4193 5.18791 10.5949 5.18791Z" fill="#63686B" stroke="#63686B" stroke-width="0.75"/>
<path d="M6.1131 11.6364C6.44847 11.6364 6.72034 11.3645 6.72034 11.0291C6.72034 10.6937 6.44847 10.4219 6.1131 10.4219C5.77773 10.4219 5.50586 10.6937 5.50586 11.0291C5.50586 11.3645 5.77773 11.6364 6.1131 11.6364Z" fill="#63686B" stroke="#63686B" stroke-width="0.75"/>
<path d="M7.38553 14.1805C7.38553 14.383 7.24094 14.6143 7.03853 14.6721C6.77829 14.7878 6.57587 14.5854 6.34454 14.4697C6.14213 14.354 6.02646 14.1516 6.17105 13.9492C6.31563 13.7468 6.66262 13.7179 6.89395 13.7468C7.12528 13.7757 7.38553 13.8914 7.38553 14.1805Z" fill="#63686B" stroke="#63686B" stroke-width="0.75"/>
<path d="M12.9954 3.53932C12.9954 3.74174 12.8508 3.97307 12.6484 4.0309C12.3881 4.14656 12.1857 3.97307 11.9544 3.8574C11.752 3.74174 11.6363 3.53932 11.7809 3.33691C11.9255 3.1345 12.2725 3.10558 12.5038 3.1345C12.7641 3.16341 12.9954 3.27908 12.9954 3.53932Z" fill="#63686B" stroke="#63686B" stroke-width="0.75"/>
<path d="M7.79025 12.7055C7.96592 12.7055 8.10832 12.5631 8.10832 12.3874C8.10832 12.2117 7.96592 12.0693 7.79025 12.0693C7.61458 12.0693 7.47217 12.2117 7.47217 12.3874C7.47217 12.5631 7.61458 12.7055 7.79025 12.7055Z" fill="#63686B" stroke="#63686B" stroke-width="0.75"/>
</svg>
