<svg width="11" height="13" viewBox="0 0 11 13" fill="none" xmlns="http://www.w3.org/2000/svg">
<path d="M10.7556 3.78889L5.86667 0.122222C5.76089 0.0428865 5.63223 0 5.5 0C5.36777 0 5.23911 0.0428865 5.13333 0.122222L0.244445 3.78889C0.168547 3.84581 0.106945 3.91962 0.0645166 4.00448C0.0220886 4.08934 0 4.18291 0 4.27778V11.6111C0 11.7732 0.0643847 11.9286 0.17899 12.0432C0.293596 12.1578 0.449034 12.2222 0.611111 12.2222H4.27778C4.43985 12.2222 4.59529 12.1578 4.7099 12.0432C4.8245 11.9286 4.88889 11.7732 4.88889 11.6111V9.16667C4.88889 9.00459 4.95327 8.84915 5.06788 8.73454C5.18248 8.61994 5.33792 8.55555 5.5 8.55555C5.66208 8.55555 5.81751 8.61994 5.93212 8.73454C6.04673 8.84915 6.11111 9.00459 6.11111 9.16667V11.6111C6.11111 11.7732 6.1755 11.9286 6.2901 12.0432C6.40471 12.1578 6.56015 12.2222 6.72222 12.2222H10.3889C10.551 12.2222 10.7064 12.1578 10.821 12.0432C10.9356 11.9286 11 11.7732 11 11.6111V4.27778C11 4.18291 10.9779 4.08934 10.9355 4.00448C10.8931 3.91962 10.8315 3.84581 10.7556 3.78889ZM9.77778 11H7.33333V9.16667C7.33333 8.68044 7.14018 8.21412 6.79636 7.8703C6.45255 7.52649 5.98623 7.33333 5.5 7.33333C5.01377 7.33333 4.54745 7.52649 4.20364 7.8703C3.85982 8.21412 3.66667 8.68044 3.66667 9.16667V11H1.22222V4.58333L5.5 1.375L9.77778 4.58333V11Z" fill="#0072BC"/>
</svg>
