<svg width="16" height="18" viewBox="0 0 16 18" fill="none" xmlns="http://www.w3.org/2000/svg">
<path fill-rule="evenodd" clip-rule="evenodd" d="M11.7219 7.5099C11.7219 11.7036 13.2355 14.209 14.6993 14.209C15.1102 14.209 15.4436 14.5425 15.4436 14.9534C15.4436 15.3643 15.1102 15.6977 14.6993 15.6977H10.8793C10.5477 16.9795 9.38462 17.9308 8.00013 17.9308C6.61564 17.9308 5.4526 16.9795 5.12062 15.6977H1.30099C0.890109 15.6977 0.556641 15.3643 0.556641 14.9534C0.556641 14.5425 0.890109 14.209 1.30099 14.209C2.76475 14.209 4.27839 11.7036 4.27839 7.5099V6.76555C4.27839 4.96832 5.55904 3.46473 7.25578 3.11898V0.810756C7.25578 0.399875 7.58925 0.0664062 8.00013 0.0664062C8.41102 0.0664062 8.74448 0.399875 8.74448 0.810756V3.11898C10.4412 3.46473 11.7219 4.96832 11.7219 6.76555V7.5099ZM9.48914 6.76607C9.48914 5.94505 8.82146 5.27737 8.00044 5.27737C7.58956 5.27737 7.25609 5.60972 7.25609 6.02097C7.25609 6.43223 7.58956 6.76495 8.00044 6.76495V6.76607C8.00044 7.17695 8.33391 7.51042 8.74479 7.51042C9.15567 7.51042 9.48914 7.17695 9.48914 6.76607Z" fill="white"/>
</svg>
