<svg width="11" height="13" viewBox="0 0 11 13" fill="none" xmlns="http://www.w3.org/2000/svg">
<path fill-rule="evenodd" clip-rule="evenodd" d="M7.65821 6.34087L7.65821 6.34087L7.65822 6.34088C8.25654 7.24681 9.00495 8.38 9.6993 10.1108C9.73168 10.1915 9.76755 10.2748 9.80422 10.36L9.80426 10.3601C10.3 11.5111 10.9406 12.9987 5.05445 12.9987C-0.833923 12.9987 -0.190573 11.51 0.306959 10.3587C0.343571 10.274 0.379393 10.1911 0.411765 10.1108C1.1036 8.37353 1.85473 7.23834 2.45528 6.33072C3.12788 5.31421 3.6116 4.58316 3.6116 3.61146V1.44502H3.2498C3.15385 1.44502 3.06183 1.4069 2.99398 1.33905C2.92613 1.2712 2.88801 1.17918 2.88801 1.08322V0.361796C2.88801 0.265842 2.92613 0.173817 2.99398 0.105968C3.06183 0.0381177 3.15385 0 3.2498 0H6.8591C6.95505 0 7.04707 0.0381177 7.11492 0.105968C7.18277 0.173817 7.22089 0.265842 7.22089 0.361796V1.08322C7.2209 1.28219 7.06023 1.44383 6.86126 1.44502H6.49947V3.61146C6.49947 4.58639 6.98336 5.31907 7.65821 6.34087ZM6.71715 7.42889C6.71715 7.17045 6.50764 6.96094 6.2492 6.96094C6.12509 6.96094 6.00607 7.01024 5.91831 7.098C5.83055 7.18576 5.78125 7.30478 5.78125 7.42889C5.78125 7.68733 5.99076 7.89684 6.2492 7.89684C6.50764 7.89684 6.71715 7.68733 6.71715 7.42889ZM5.42082 5.76953C5.5691 5.76953 5.70274 5.85897 5.75928 5.99605C5.81582 6.13313 5.7841 6.29078 5.67894 6.39532C5.57378 6.49986 5.41594 6.53065 5.2792 6.47329C5.14246 6.41594 5.05382 6.28177 5.05469 6.13349C5.05589 5.93213 5.21946 5.76953 5.42082 5.76953ZM5.05623 11.6997C7.00603 11.6997 8.01559 11.5264 8.52254 11.3747C8.61051 11.3425 8.6813 11.2754 8.7182 11.1893C8.7551 11.1032 8.75486 11.0057 8.71752 10.9198C8.46319 10.1331 8.12165 9.37737 7.69929 8.66666C7.48548 8.30277 7.44384 8.36516 7.333 8.53123C7.21024 8.71517 7.00258 9.02629 6.38209 9.02629C5.98542 9.02629 5.56161 8.72822 5.12175 8.41886C4.25233 7.80738 3.3202 7.15181 2.411 8.66666C1.99151 9.37816 1.65358 10.1347 1.40361 10.9219C1.36654 11.0065 1.36545 11.1025 1.40059 11.1879C1.43573 11.2733 1.50407 11.3407 1.58992 11.3747C2.08604 11.5264 3.10643 11.6997 5.05623 11.6997Z" fill="#A0AEC0"/>
</svg>
