<svg width="17" height="16" viewBox="0 0 17 16" fill="none" xmlns="http://www.w3.org/2000/svg">
<path d="M13.6908 2.34045C10.6514 -0.698925 5.80532 -0.766466 2.64775 2.07028L1.80348 1.22601C1.53331 0.955845 1.06052 1.09093 0.976091 1.46241L0.0136227 5.41359C-0.0708043 5.76819 0.250018 6.1059 0.621498 6.02147L4.57268 5.059C4.94416 4.97457 5.07925 4.50178 4.80908 4.23162L3.88038 3.30292C6.36254 1.14158 10.128 1.20913 12.4919 3.57308C14.9403 6.02147 14.9403 10.0402 12.4751 12.5055L12.2387 12.725C11.8841 13.0458 11.8672 13.5861 12.1711 13.9407C12.34 14.1265 12.5764 14.2278 12.8128 14.2278C13.0154 14.2278 13.218 14.1602 13.3869 14.0083C13.4882 13.9238 13.5895 13.8225 13.6739 13.7212C16.8146 10.5805 16.8146 5.48114 13.6908 2.34045Z" fill="#4299E1"/>
<path d="M9.97597 14.0245L9.65515 14.1258C9.19924 14.244 8.92907 14.7168 9.04727 15.1896C9.14858 15.578 9.50318 15.8313 9.87466 15.8313C9.9422 15.8313 10.0266 15.8144 10.0942 15.7975C10.2293 15.7637 10.3643 15.7131 10.4994 15.6793C10.9553 15.5273 11.1917 15.0376 11.0398 14.5986C10.9216 14.1258 10.4319 13.8726 9.97597 14.0245Z" fill="#4299E1"/>
<path d="M7.07344 14.2772L6.73573 14.2265C6.26294 14.1252 5.80704 14.4291 5.72261 14.9019C5.6213 15.3747 5.92523 15.8306 6.39803 15.9151C6.53311 15.9488 6.68508 15.9657 6.82016 15.9826C6.85393 15.9826 6.90459 15.9995 6.95525 15.9995C7.37738 15.9995 7.74886 15.6955 7.79952 15.2565C7.86706 14.7837 7.54623 14.3447 7.07344 14.2772Z" fill="#4299E1"/>
<path d="M4.09928 12.9968C3.7278 12.7098 3.18747 12.7604 2.88353 13.1319C2.59648 13.5034 2.64714 14.0437 3.01862 14.3476C3.13681 14.4321 3.23813 14.5165 3.35632 14.6009C3.50829 14.7022 3.67715 14.7529 3.846 14.7529C4.11617 14.7529 4.38633 14.6347 4.55519 14.3814C4.82535 13.9931 4.74093 13.4527 4.35256 13.1826L4.09928 12.9968Z" fill="#4299E1"/>
<path d="M2.2733 10.7149C2.07068 10.2759 1.56412 10.0902 1.12509 10.2928C0.686074 10.4954 0.500335 11.002 0.70296 11.441C0.770501 11.5761 0.821158 11.6943 0.888699 11.8294C1.04067 12.1164 1.34461 12.2853 1.64854 12.2853C1.78363 12.2853 1.91871 12.2515 2.05379 12.184C2.47593 11.9645 2.6279 11.441 2.40839 11.0189L2.2733 10.7149Z" fill="#4299E1"/>
<path d="M10.8385 8.80731L8.86294 7.5409V4.40022C8.86294 3.92743 8.47457 3.53906 8.00178 3.53906C7.52899 3.53906 7.14062 3.92743 7.14062 4.40022V8.0137C7.14062 8.30075 7.29259 8.5878 7.54587 8.73977L9.90983 10.2426C10.0449 10.327 10.2138 10.3777 10.3657 10.3777C10.6528 10.3777 10.923 10.2426 11.0918 9.9724C11.3451 9.58404 11.2269 9.06059 10.8385 8.80731Z" fill="#4299E1"/>
</svg>
