<svg width="18" height="15" viewBox="0 0 18 15" fill="none" xmlns="http://www.w3.org/2000/svg">
<path d="M6.48175 0.875811L6.48175 0.875814C6.79154 0.859286 7.08885 1.09479 7.15791 1.40127L7.15814 1.40229L7.15814 1.40229L9.15657 10.6283L11.0316 3.52923L11.0321 3.52711L11.0322 3.52711C11.1084 3.25783 11.3507 3.04486 11.6235 3.02816L11.6237 3.02815C11.8982 3.0118 12.1668 3.18194 12.2749 3.44033L12.2755 3.44175L12.2755 3.44176L13.8238 7.27329H16.4636C16.6433 7.26969 16.8087 7.35481 16.9267 7.4782C17.0453 7.60219 17.125 7.77368 17.125 7.95772C17.125 8.13921 17.0447 8.30915 16.9263 8.43196C16.8084 8.55424 16.6432 8.63934 16.4636 8.6356H13.387C13.1266 8.6356 12.8807 8.46471 12.7805 8.22247L12.7803 8.2218L11.7946 5.79774L9.72502 13.6238L9.725 13.6239C9.64846 13.9125 9.37369 14.133 9.07828 14.1248L6.48175 0.875811ZM6.48175 0.875811L6.48098 0.875857M6.48175 0.875811L6.48098 0.875857M6.48098 0.875857C6.20367 0.892365 5.96028 1.10352 5.88368 1.3672L5.88366 1.36719M6.48098 0.875857L5.88366 1.36719M5.88366 1.36719L5.883 1.36963M5.88366 1.36719L5.883 1.36963M5.883 1.36963L4.29673 7.27329H1.54266C1.18283 7.26593 0.875 7.59922 0.875 7.95772C0.875 8.13922 0.955279 8.30937 1.07475 8.43238C1.19384 8.555 1.36061 8.63946 1.54271 8.6356H4.79368C5.08252 8.64294 5.35543 8.42229 5.43217 8.14193L5.43236 8.14122L6.44443 4.35553M5.883 1.36963L6.44443 4.35553M6.44443 4.35553L8.44977 13.5987L8.44974 13.5987L8.45038 13.6013C8.51958 13.8897 8.78553 14.1168 9.07816 14.1248L6.44443 4.35553Z" fill="#4299E1" stroke="#4299E1" stroke-width="0.25"/>
</svg>
