<svg width="16" height="18" viewBox="0 0 16 18" fill="none" xmlns="http://www.w3.org/2000/svg">
<path d="M9.98208 12.3781C9.95672 12.302 9.906 12.2259 9.80456 12.1752C9.19592 11.8201 8.56191 11.668 8.23223 11.668C7.36998 11.668 6.73597 11.8201 6.05125 12.1498C5.92445 12.2005 5.84836 12.2766 5.823 12.3781C5.79764 12.4541 5.823 12.5049 5.84836 12.5809C5.92445 12.7331 6.10197 12.7838 6.30485 12.6824C6.86277 12.4034 7.39534 12.2513 7.9279 12.2513C8.46047 12.2513 8.99303 12.4034 9.50024 12.6824C9.55096 12.7077 9.62704 12.7331 9.67776 12.7331C9.7792 12.7331 9.88064 12.6824 9.93136 12.5809C9.98208 12.5302 10.0074 12.4541 9.98208 12.3781Z" fill="#AEBAC9" stroke="#AEBAC9" stroke-width="0.75"/>
<path d="M9.01998 9.84135C9.12142 9.68919 9.0707 9.53703 8.9439 9.43559C8.8171 9.33415 8.66494 9.38487 8.53814 9.53703C8.36061 9.76527 8.15773 9.89207 7.92949 9.89207C7.70125 9.89207 7.49837 9.76527 7.32084 9.56239C7.2194 9.43559 7.0926 9.33415 6.88972 9.46095C6.73756 9.56239 6.7122 9.73991 6.839 9.91743C7.0926 10.2978 7.44765 10.5007 7.87877 10.5007C8.38597 10.45 8.76638 10.2471 9.01998 9.84135Z" fill="#AEBAC9" stroke="#AEBAC9" stroke-width="0.75"/>
<path d="M4.83519 4.91904C5.01271 4.9444 5.21559 5.02048 5.39311 5.0712C5.67207 5.14728 5.95104 5.24872 6.25536 5.24872C6.33144 5.24872 6.43288 5.24872 6.50896 5.22336C6.66112 5.198 6.78792 5.09656 6.81328 4.99512C6.83864 4.91904 6.83864 4.8176 6.71184 4.6908C6.58504 4.564 6.38216 4.51328 6.20464 4.48792C6.02712 4.46256 5.87496 4.4372 5.69743 4.38648H5.67207C5.13951 4.28503 4.60694 4.18359 4.07438 4.18359C3.94758 4.18359 3.82078 4.18359 3.69398 4.20895C3.41501 4.23431 3.21213 4.31039 2.93317 4.48792C2.78101 4.58936 2.57812 4.74152 2.57812 4.89368C2.57812 4.96976 2.60349 5.02048 2.65421 5.0712C2.70493 5.12192 2.78101 5.12192 2.85709 5.09656C3.26285 4.96976 3.71934 4.89368 4.17582 4.89368C4.40406 4.86832 4.6323 4.86832 4.83519 4.91904Z" fill="#AEBAC9" stroke="#AEBAC9" stroke-width="0.25"/>
<path d="M5.67335 6.13635C5.41975 6.13635 5.14078 6.16171 4.88718 6.16171C4.78574 6.16171 4.6843 6.18707 4.60822 6.18707C3.97421 6.21243 3.44165 6.11099 2.93444 5.83203H2.90908H2.88372C2.85836 5.83203 2.80764 5.85739 2.78228 5.88275C2.75692 5.93347 2.75692 5.98419 2.80764 6.03491C2.85836 6.08563 2.88372 6.11099 2.93444 6.16171C3.01053 6.23779 3.11197 6.33924 3.21341 6.41532C3.23877 6.41532 3.23877 6.44068 3.26413 6.46604C3.39093 6.54212 3.54309 6.6182 3.69525 6.66892C3.97421 6.77036 4.27854 6.84644 4.60822 6.8718C4.70966 6.8718 4.83646 6.89716 4.96326 6.89716C5.19151 6.89716 5.39439 6.8718 5.57191 6.82108C5.67335 6.79572 5.74943 6.745 5.82551 6.71964C5.92695 6.66892 6.02839 6.6182 6.12983 6.59284C6.23128 6.56748 6.30736 6.56748 6.4088 6.54212C6.48488 6.54212 6.5356 6.4914 6.5356 6.41532C6.5356 6.33924 6.48488 6.28851 6.4088 6.26315C6.25664 6.16171 5.97767 6.13635 5.67335 6.13635Z" fill="#AEBAC9" stroke="#AEBAC9" stroke-width="0.25"/>
<path d="M13.3529 4.87024C13.3529 4.71808 13.15 4.56592 12.9979 4.46448C12.7189 4.28696 12.516 4.21088 12.2371 4.18552C12.1103 4.18552 11.9835 4.16016 11.8566 4.16016C11.3241 4.16016 10.7662 4.2616 10.2336 4.3884H10.2082C10.0561 4.41376 9.87855 4.46448 9.72639 4.48984C9.54887 4.5152 9.34599 4.56592 9.21918 4.69272C9.09238 4.81952 9.09238 4.94632 9.11774 4.99704C9.1431 5.09849 9.26991 5.19993 9.42207 5.22529C9.49815 5.25065 9.59959 5.25065 9.67567 5.25065C9.97999 5.25065 10.259 5.14921 10.5379 5.07312C10.7154 5.0224 10.9183 4.94632 11.0958 4.92096C11.7298 4.81952 12.4146 4.87024 13.0232 5.07312C13.0993 5.09849 13.1754 5.09849 13.2261 5.04776C13.3275 4.99704 13.3529 4.94632 13.3529 4.87024Z" fill="#AEBAC9" stroke="#AEBAC9" stroke-width="0.25"/>
<path d="M13.0784 5.83203L13.0276 5.85739C12.5458 6.13635 11.9879 6.2378 11.3539 6.21243C11.2524 6.21243 11.1763 6.21243 11.0749 6.18707C10.8213 6.16171 10.5677 6.16171 10.2887 6.16171C9.98441 6.16171 9.73081 6.18707 9.50257 6.2378C9.42649 6.26316 9.37577 6.31388 9.40113 6.38996C9.40113 6.46604 9.45185 6.51676 9.52793 6.51676C9.62937 6.51676 9.73081 6.54212 9.83225 6.56748C9.93369 6.59284 10.0351 6.64356 10.1366 6.69428C10.2127 6.745 10.2887 6.77036 10.3902 6.79572C10.5677 6.84644 10.7706 6.8718 10.9988 6.8718C11.1256 6.8718 11.2524 6.8718 11.3539 6.84644C11.6835 6.82108 11.9879 6.745 12.2668 6.64356C12.4444 6.59284 12.5712 6.51676 12.698 6.44068C12.7233 6.41532 12.7487 6.41532 12.7487 6.38996C12.8501 6.31388 12.9516 6.2378 13.0276 6.13635C13.0784 6.11099 13.1037 6.06027 13.1544 6.00955C13.2052 5.95883 13.2052 5.90811 13.1798 5.85739C13.1544 5.85739 13.1037 5.83203 13.0784 5.83203Z" fill="#AEBAC9" stroke="#AEBAC9" stroke-width="0.25"/>
<path d="M8.02903 16.8898C8.00367 16.8898 8.00367 16.8898 7.97831 16.8898C7.29358 16.8898 6.5835 16.7123 5.87341 16.3065C5.1126 15.9007 4.4786 15.4442 3.92067 14.937C3.15986 14.2777 2.55122 13.4154 1.99329 12.2742C1.71433 11.6909 1.53681 11.1076 1.46073 10.499C1.38465 9.94107 1.18177 9.38314 0.953524 8.7745C0.750642 8.26729 0.54776 7.73473 0.446319 7.1768C0.268797 6.26383 0.420959 5.35086 0.59848 4.48862C0.674561 4.03213 0.750642 3.60101 0.801362 3.16988L0.826723 2.76412C0.826723 2.35836 0.852083 1.90187 0.877443 1.47075C0.902803 1.26787 1.08032 1.09034 1.28321 1.1157C1.51145 1.14106 1.66361 1.31859 1.66361 1.54683C1.61289 1.97795 1.58753 2.40908 1.56217 2.81484L1.53681 3.2206C1.51145 3.67709 1.41001 4.15893 1.33393 4.61542C1.18177 5.4523 1.0296 6.26383 1.18177 7.02464C1.28321 7.50648 1.46073 7.98833 1.66361 8.49553C1.89185 9.10418 2.14545 9.73818 2.22154 10.3976C2.29762 10.9301 2.44978 11.4373 2.67802 11.9445C3.18522 13.0097 3.74315 13.7705 4.42788 14.3791C4.93508 14.8356 5.54373 15.2414 6.25381 15.6471C6.8371 15.9768 7.42038 16.129 7.97831 16.129C8.53623 16.129 9.11952 15.9768 9.70281 15.6471C10.4129 15.2667 10.9962 14.8356 11.5287 14.3791C12.2135 13.7705 12.7714 13.0097 13.2786 11.9445C13.5322 11.4373 13.6844 10.9301 13.7351 10.3976C13.8112 9.73818 14.0648 9.10418 14.293 8.49553C14.4959 7.98833 14.6734 7.50648 14.7749 7.02464C14.927 6.26383 14.7749 5.47766 14.6227 4.61542C14.5466 4.15893 14.4452 3.70245 14.4198 3.2206L14.3944 2.81484C14.3691 2.4598 14.3437 2.05403 14.3184 1.64827C14.293 1.44539 14.4705 1.24251 14.6734 1.24251C14.8763 1.21714 15.0538 1.39467 15.0792 1.59755C15.1045 2.00331 15.1299 2.38372 15.1553 2.78948L15.206 3.16988C15.2313 3.60101 15.3074 4.03213 15.4089 4.48862C15.561 5.37622 15.7385 6.28919 15.561 7.1768C15.4596 7.73473 15.2313 8.26729 15.0538 8.7745C14.8256 9.35778 14.5973 9.91571 14.5466 10.499C14.4705 11.1076 14.293 11.6909 14.014 12.2742C13.4561 13.4154 12.8475 14.2777 12.0867 14.937C11.5287 15.4442 10.8947 15.8754 10.1339 16.3065C9.39848 16.6869 8.71376 16.8898 8.02903 16.8898Z" fill="#AEBAC9" stroke="#AEBAC9" stroke-width="0.25"/>
<path d="M10.3373 8.72138C10.6314 8.72138 10.8698 8.48294 10.8698 8.18882C10.8698 7.89469 10.6314 7.65625 10.3373 7.65625C10.0431 7.65625 9.80469 7.89469 9.80469 8.18882C9.80469 8.48294 10.0431 8.72138 10.3373 8.72138Z" fill="#AEBAC9" stroke="#AEBAC9" stroke-width="0.75"/>
<path d="M11.8063 9.65949C11.9604 9.65949 12.0853 9.53459 12.0853 9.38052C12.0853 9.22646 11.9604 9.10156 11.8063 9.10156C11.6522 9.10156 11.5273 9.22646 11.5273 9.38052C11.5273 9.53459 11.6522 9.65949 11.8063 9.65949Z" fill="#AEBAC9" stroke="#AEBAC9" stroke-width="0.75"/>
<path d="M7.8024 3.83136C7.95647 3.83136 8.08136 3.70647 8.08136 3.5524C8.08136 3.39833 7.95647 3.27344 7.8024 3.27344C7.64833 3.27344 7.52344 3.39833 7.52344 3.5524C7.52344 3.70647 7.64833 3.83136 7.8024 3.83136Z" fill="#AEBAC9" stroke="#AEBAC9" stroke-width="0.75"/>
<path d="M3.87241 9.4831C4.16654 9.4831 4.40497 9.24466 4.40497 8.95053C4.40497 8.65641 4.16654 8.41797 3.87241 8.41797C3.57828 8.41797 3.33984 8.65641 3.33984 8.95053C3.33984 9.24466 3.57828 9.4831 3.87241 9.4831Z" fill="#AEBAC9" stroke="#AEBAC9" stroke-width="1.25"/>
<path d="M4.98507 11.7169C4.98507 11.8944 4.85827 12.0973 4.68074 12.148C4.4525 12.2494 4.27498 12.0719 4.0721 11.9705C3.89458 11.869 3.79314 11.6915 3.91994 11.514C4.04674 11.3365 4.35106 11.3111 4.55394 11.3365C4.75683 11.3618 4.98507 11.4633 4.98507 11.7169Z" fill="#AEBAC9" stroke="#AEBAC9" stroke-width="1.25"/>
<path d="M9.90694 2.379C9.90694 2.55652 9.78014 2.7594 9.60262 2.81012C9.37438 2.91156 9.19686 2.7594 8.99397 2.65796C8.81645 2.55652 8.71501 2.379 8.84181 2.20148C8.96861 2.02395 9.27294 1.99859 9.47582 2.02395C9.70406 2.04931 9.90694 2.15076 9.90694 2.379Z" fill="#AEBAC9" stroke="#AEBAC9" stroke-width="0.75"/>
<path d="M5.34146 10.4251C5.49553 10.4251 5.62042 10.3002 5.62042 10.1462C5.62042 9.99208 5.49553 9.86719 5.34146 9.86719C5.1874 9.86719 5.0625 9.99208 5.0625 10.1462C5.0625 10.3002 5.1874 10.4251 5.34146 10.4251Z" fill="#AEBAC9" stroke="#AEBAC9" stroke-width="0.25"/>
</svg>
