<svg width="16" height="16" viewBox="0 0 16 16" fill="none" xmlns="http://www.w3.org/2000/svg">
<path fill-rule="evenodd" clip-rule="evenodd" d="M10.6582 8.34087L10.6582 8.34087L10.6582 8.34088C11.2565 9.24681 12.005 10.38 12.6993 12.1108C12.7317 12.1915 12.7676 12.2748 12.8042 12.36L12.8043 12.3601C13.3 13.5111 13.9406 14.9987 8.05445 14.9987C2.16608 14.9987 2.80943 13.51 3.30696 12.3587C3.34357 12.274 3.37939 12.1911 3.41176 12.1108C4.1036 10.3735 4.85473 9.23834 5.45528 8.33072C6.12788 7.31421 6.6116 6.58316 6.6116 5.61146V3.44502H6.2498C6.15385 3.44502 6.06183 3.4069 5.99398 3.33905C5.92613 3.2712 5.88801 3.17918 5.88801 3.08322V2.3618C5.88801 2.26584 5.92613 2.17382 5.99398 2.10597C6.06183 2.03812 6.15385 2 6.2498 2H9.8591C9.95505 2 10.0471 2.03812 10.1149 2.10597C10.1828 2.17382 10.2209 2.26584 10.2209 2.3618V3.08322C10.2209 3.28219 10.0602 3.44383 9.86126 3.44502H9.49947V5.61146C9.49947 6.58639 9.98336 7.31907 10.6582 8.34087ZM9.71715 9.42889C9.71715 9.17045 9.50764 8.96094 9.2492 8.96094C9.12509 8.96094 9.00607 9.01024 8.91831 9.098C8.83055 9.18576 8.78125 9.30478 8.78125 9.42889C8.78125 9.68733 8.99076 9.89684 9.2492 9.89684C9.50764 9.89684 9.71715 9.68733 9.71715 9.42889ZM8.42082 7.76953C8.5691 7.76953 8.70274 7.85897 8.75928 7.99605C8.81582 8.13313 8.7841 8.29078 8.67894 8.39532C8.57378 8.49986 8.41594 8.53065 8.2792 8.47329C8.14246 8.41594 8.05382 8.28177 8.05469 8.13349C8.05589 7.93213 8.21946 7.76953 8.42082 7.76953ZM8.05623 13.6997C10.006 13.6997 11.0156 13.5264 11.5225 13.3747C11.6105 13.3425 11.6813 13.2754 11.7182 13.1893C11.7551 13.1032 11.7549 13.0057 11.7175 12.9198C11.4632 12.1331 11.1217 11.3774 10.6993 10.6667C10.4855 10.3028 10.4438 10.3652 10.333 10.5312C10.2102 10.7152 10.0026 11.0263 9.38209 11.0263C8.98542 11.0263 8.56161 10.7282 8.12175 10.4189C7.25233 9.80738 6.3202 9.15181 5.411 10.6667C4.99151 11.3782 4.65358 12.1347 4.40361 12.9219C4.36654 13.0065 4.36545 13.1025 4.40059 13.1879C4.43573 13.2733 4.50407 13.3407 4.58992 13.3747C5.08604 13.5264 6.10643 13.6997 8.05623 13.6997Z" fill="#4299E1"/>
</svg>
