<svg width="18" height="18" viewBox="0 0 18 18" fill="none" xmlns="http://www.w3.org/2000/svg">
<path fill-rule="evenodd" clip-rule="evenodd" d="M9.78049 2.50879C8.96861 2.50879 8.15676 2.81985 7.53466 3.44195L3.51224 7.46435C2.26805 8.70854 2.26806 10.7119 3.51224 11.956C4.37086 12.8147 5.59091 13.0805 6.67358 12.754L6.66396 12.7288C6.61789 12.5876 6.5789 12.4441 6.54716 12.299C6.51541 12.1539 6.49094 12.0072 6.47384 11.8596C6.45673 11.7121 6.44702 11.5637 6.44474 11.4152C6.44246 11.2666 6.44761 11.118 6.46018 10.97C6.47274 10.822 6.49269 10.6747 6.51996 10.5286C6.54724 10.3826 6.5818 10.238 6.62353 10.0954C6.66525 9.9528 6.71407 9.81238 6.76982 9.67466C6.82556 9.53695 6.88816 9.4021 6.95737 9.27064C7.02659 9.13918 7.10234 9.01127 7.18434 8.88738C7.26633 8.76349 7.35447 8.64377 7.44842 8.52869C7.54238 8.41359 7.64203 8.30327 7.74701 8.19813C7.779 8.16801 7.81144 8.13836 7.84431 8.1092L5.89219 6.15705L8.05997 3.98928C8.11916 3.93009 8.1806 3.87461 8.24402 3.82281C8.30745 3.77102 8.37284 3.72291 8.43994 3.67852C8.50703 3.63413 8.57582 3.59344 8.64602 3.55645C8.71622 3.51945 8.78781 3.48615 8.86054 3.45655C8.93328 3.42696 9.00713 3.40107 9.08184 3.37887C9.15655 3.35668 9.23212 3.33817 9.30824 3.32337C9.38436 3.30857 9.46106 3.29749 9.53803 3.29009C9.615 3.28269 9.69223 3.279 9.76948 3.279C9.84673 3.279 9.92398 3.28269 10.0009 3.29009C10.0779 3.29749 10.1546 3.30857 10.2307 3.32337C10.3069 3.33817 10.3824 3.35668 10.4571 3.37887C10.5318 3.40107 10.6057 3.42696 10.6784 3.45655C10.7512 3.48615 10.8228 3.51946 10.893 3.55645C10.9632 3.59345 11.0319 3.63413 11.099 3.67852C11.1661 3.72291 11.2315 3.77102 11.2949 3.82281C11.3584 3.87461 11.4198 3.93009 11.479 3.98928C11.5382 4.04847 11.5937 4.10994 11.6455 4.17336C11.6973 4.23679 11.7454 4.30218 11.7898 4.36927C11.8342 4.43637 11.8749 4.50514 11.9119 4.57533C11.9489 4.64553 11.9821 4.71714 12.0117 4.78988C12.0413 4.86261 12.0672 4.93647 12.0894 5.01118C12.1116 5.08589 12.1301 5.16146 12.1449 5.23758C12.1597 5.3137 12.1708 5.39037 12.1782 5.46734C12.1856 5.54431 12.1893 5.62156 12.1893 5.69881C12.1893 5.77606 12.1856 5.85332 12.1782 5.93028C12.1708 6.00725 12.1597 6.08393 12.1449 6.16005C12.1301 6.23617 12.1116 6.31171 12.0894 6.38642C12.0672 6.46113 12.0413 6.53502 12.0117 6.60775C11.9821 6.68048 11.9488 6.75207 11.9118 6.82227C11.8817 6.87951 11.8474 6.93508 11.8123 6.99029C11.9532 7.01966 12.0926 7.05584 12.23 7.0987C12.3425 7.13523 12.4534 7.17622 12.5626 7.22157C13.2319 6.01382 13.0537 4.46929 12.0263 3.44195C11.4042 2.81985 10.5924 2.50879 9.78049 2.50879ZM10.9127 7.20667C9.80878 7.20235 8.74874 7.6387 7.96774 8.41894C6.44392 9.94506 6.34538 12.3848 7.74117 14.0289L13.5785 8.19158C12.8338 7.55932 11.8896 7.21049 10.9127 7.20667ZM8.21737 14.5067L14.0547 8.66939C15.4504 10.3134 15.3519 12.7532 13.8281 14.2793C12.3021 15.8038 9.86173 15.9027 8.21737 14.5067Z" fill="white"/>
</svg>
