<svg width="20" height="19" viewBox="0 0 20 19" fill="none" xmlns="http://www.w3.org/2000/svg">
<path d="M12.9159 6.24984L15.8326 3.33317M17.4993 1.6665L15.8326 3.33317L17.4993 1.6665ZM9.49092 9.67484C9.9212 10.0994 10.2633 10.6049 10.4974 11.1622C10.7315 11.7195 10.8531 12.3176 10.8551 12.922C10.8571 13.5265 10.7396 14.1254 10.5092 14.6843C10.2788 15.2431 9.94014 15.7509 9.51271 16.1783C9.08528 16.6057 8.57752 16.9444 8.01867 17.1748C7.45982 17.4052 6.86092 17.5227 6.25645 17.5207C5.65197 17.5187 5.05387 17.3971 4.49658 17.163C3.93928 16.9288 3.43381 16.5868 3.00925 16.1565C2.17436 15.2921 1.71239 14.1343 1.72283 12.9326C1.73327 11.7308 2.2153 10.5813 3.06508 9.7315C3.91487 8.88172 5.06443 8.39969 6.26616 8.38925C7.4679 8.37881 8.62566 8.84078 9.49009 9.67567L9.49092 9.67484ZM9.49092 9.67484L12.9159 6.24984L9.49092 9.67484ZM12.9159 6.24984L15.4159 8.74984L18.3326 5.83317L15.8326 3.33317L12.9159 6.24984Z" stroke="#4299E1" stroke-width="2" stroke-linecap="round" stroke-linejoin="round"/>
</svg>
