<svg width="14" height="15" viewBox="0 0 14 15" fill="none" xmlns="http://www.w3.org/2000/svg">
<path d="M12.4096 1.9348H10.4906V1.39748C10.4906 1.22783 10.4232 1.06513 10.3032 0.945167C10.1832 0.825206 10.0205 0.757812 9.85089 0.757812C9.68124 0.757812 9.51853 0.825206 9.39857 0.945167C9.27861 1.06513 9.21122 1.22783 9.21122 1.39748V1.9348H4.34974V1.39748C4.34974 1.22783 4.28235 1.06513 4.16239 0.945167C4.04243 0.825206 3.87973 0.757812 3.71007 0.757812C3.54042 0.757812 3.37772 0.825206 3.25776 0.945167C3.1378 1.06513 3.07041 1.22783 3.07041 1.39748V1.9348H1.3561C0.678048 1.9348 0 2.30581 0 2.98386V13.4232C0.0261747 13.7694 0.178909 14.0938 0.429045 14.3345C0.679181 14.5752 1.0092 14.7153 1.3561 14.7282H12.4096C13.0876 14.7282 13.561 14.1013 13.561 13.4232V2.98386C13.561 2.30581 13.0876 1.9348 12.4096 1.9348ZM1.27934 3.21414H3.07041V3.85381C3.07041 4.02346 3.1378 4.18616 3.25776 4.30612C3.37772 4.42608 3.54042 4.49347 3.71007 4.49347C3.87973 4.49347 4.04243 4.42608 4.16239 4.30612C4.28235 4.18616 4.34974 4.02346 4.34974 3.85381V3.21414H9.21122V3.85381C9.21122 4.02346 9.27861 4.18616 9.39857 4.30612C9.51853 4.42608 9.68124 4.49347 9.85089 4.49347C10.0205 4.49347 10.1832 4.42608 10.3032 4.30612C10.4232 4.18616 10.4906 4.02346 10.4906 3.85381V3.21414H12.2816V5.51694H1.27934V3.21414ZM1.27934 13.4488V6.79628H12.2816V6.61717L12.4096 13.4488H1.27934Z" fill="#2799E2"/>
</svg>
