<svg width="14" height="16" viewBox="0 0 14 16" fill="none" xmlns="http://www.w3.org/2000/svg">
<path fill-rule="evenodd" clip-rule="evenodd" d="M3.03677 0.350897C3.50714 -0.116966 4.2671 -0.116966 4.73747 0.350897L6.46177 2.07858L2.30027 6.24028L0.575768 4.51478C0.349717 4.28953 0.222656 3.98355 0.222656 3.66443C0.222656 3.34531 0.349717 3.03933 0.575768 2.81408L3.03677 0.350897ZM8.32621 3.93656L6.98751 2.59766L2.82422 6.75936L4.1651 8.10044C4.33452 8.26949 4.60881 8.26949 4.77822 8.10044L8.3268 4.55186C8.496 4.38165 8.496 4.10676 8.3268 3.93656H8.32621ZM8.36676 5.55064L9.37401 6.56007C9.49785 6.68391 9.56742 6.85187 9.56742 7.027C9.56742 7.20214 9.49785 7.3701 9.37401 7.49393L7.71675 9.15119C7.45885 9.40884 7.04099 9.40884 6.78309 9.15119L5.77346 8.14156L8.36676 5.55064ZM12.5688 12.3458C12.7723 12.1393 12.7826 11.811 12.5926 11.5921L9.66588 8.23845L8.46127 9.44287L11.817 12.3696C12.0351 12.5601 12.3633 12.5497 12.5688 12.3458ZM12.4568 13.0625C12.0799 13.4925 11.5938 14.1804 11.5938 14.7525C11.5938 15.5175 11.9236 15.9968 12.4568 15.9968C12.99 15.9968 13.3198 15.5175 13.3198 14.7525C13.3198 14.1779 12.8329 13.49 12.4568 13.0625Z" fill="#AEBAC9"/>
</svg>
