<svg width="12" height="16" viewBox="0 0 12 16" fill="none" xmlns="http://www.w3.org/2000/svg">
<path fill-rule="evenodd" clip-rule="evenodd" d="M0.0117188 6.00312C0.0117188 2.95572 2.45963 0.507812 5.50703 0.507812C8.55443 0.507812 11.0023 2.95572 11.0023 6.00312C11.0023 8.90065 6.10652 15.0454 5.90669 15.2952C5.80677 15.4451 5.6569 15.495 5.50703 15.495C5.35716 15.495 5.20729 15.3951 5.10737 15.2952C4.90754 15.0454 0.0117188 8.90065 0.0117188 6.00312ZM2.00744 6.00055C2.00744 4.05221 3.55612 2.50353 5.50446 2.50353C7.45279 2.50353 9.00147 4.05221 9.00147 6.00055C9.00147 7.94889 7.45279 9.49757 5.50446 9.49757C3.55612 9.49757 2.00744 7.94889 2.00744 6.00055ZM5.50818 14.1924C3.95951 12.1941 1.01202 7.94774 1.01202 5.9994C1.01202 3.50153 3.01031 1.50323 5.50818 1.50323C8.00605 1.50323 10.0043 3.50153 10.0043 5.9994C10.0043 7.94774 7.05686 12.1941 5.50818 14.1924ZM7.00916 5.50696H6.01001V4.50781H5.01087V5.50696H4.01172V6.50611H5.01087V7.50526H6.01001V6.50611H7.00916V5.50696Z" fill="#A0AEC0"/>
</svg>
