<svg width="11" height="12" viewBox="0 0 11 12" fill="none" xmlns="http://www.w3.org/2000/svg">
<g clip-path="url(#clip0)">
<path d="M10.0846 5.57835V6.00002C10.0841 6.98838 9.76403 7.95008 9.17225 8.74169C8.58046 9.5333 7.74864 10.1124 6.80084 10.3926C5.85304 10.6729 4.84005 10.6392 3.91293 10.2967C2.98582 9.95418 2.19427 9.32115 1.65633 8.49201C1.11838 7.66287 0.862873 6.68205 0.927904 5.69583C0.992935 4.70961 1.37502 3.77084 2.01718 3.01951C2.65934 2.26819 3.52716 1.74457 4.49122 1.52675C5.45528 1.30894 6.46392 1.40859 7.36672 1.81085" stroke="white" stroke-linecap="round" stroke-linejoin="round"/>
<path d="M10.0833 2.33203L5.5 6.91995L4.125 5.54495" stroke="white" stroke-linecap="round" stroke-linejoin="round"/>
</g>
<defs>
<clipPath id="clip0">
<rect width="11" height="11" fill="white" transform="translate(0 0.5)"/>
</clipPath>
</defs>
</svg>
