<svg width="15" height="17" viewBox="0 0 15 17" fill="none" xmlns="http://www.w3.org/2000/svg">
<path fill-rule="evenodd" clip-rule="evenodd" d="M0.945312 16.4201L0.945312 15.048C0.945312 14.7283 1.20507 14.4681 1.52521 14.4681C1.84466 14.4681 2.10512 14.7283 2.10512 15.048V15.8402L13.6213 15.8402L13.6213 1.82913L2.10512 1.82913V2.55388C2.10512 2.8738 1.84466 3.13379 1.52521 3.13379C1.20507 3.13379 0.945312 2.8738 0.945312 2.55388L0.945312 1.24899C0.945312 0.929546 1.20507 0.669085 1.52521 0.669085H14.2012C14.5209 0.669085 14.7811 0.929546 14.7811 1.24899L14.7811 16.4201C14.7811 16.7402 14.5209 17 14.2012 17H1.52521C1.20507 17 0.945312 16.7402 0.945312 16.4201ZM0.355469 13.439C0.355469 13.1193 0.615221 12.8591 0.935371 12.8591H2.2221C2.54178 12.8591 2.802 13.1193 2.802 13.439C2.802 13.7591 2.54178 14.0189 2.2221 14.0189H0.935371C0.615221 14.0189 0.355469 13.7591 0.355469 13.439ZM8.12236 4.61513C6.00659 4.61513 4.28906 6.33242 4.28906 8.44819C4.28906 10.5642 6.00659 12.2812 8.12236 12.2812C10.2381 12.2812 11.9557 10.5642 11.9557 8.44819C11.9557 6.33242 10.2381 4.61513 8.12236 4.61513ZM0.355469 11.5849C0.355469 11.2654 0.615221 11.005 0.935371 11.005H2.2221C2.54178 11.005 2.802 11.2654 2.802 11.5849C2.802 11.905 2.54178 12.1648 2.2221 12.1648H0.935371C0.615221 12.1648 0.355469 11.905 0.355469 11.5849ZM10.3785 8.02685L8.23958 10.1662C8.00672 10.3991 7.6257 10.3915 7.40299 10.1485L6.11012 8.74335C5.89331 8.5079 5.90864 8.1408 6.14433 7.92422C6.37979 7.70741 6.74688 7.72274 6.96323 7.95843L7.84676 8.91864L9.55816 7.20678C9.78464 6.98053 10.152 6.98053 10.3785 7.20678C10.6047 7.43303 10.6047 7.8006 10.3785 8.02685ZM0.355469 9.72869C0.355469 9.40901 0.615221 9.14855 0.935371 9.14855H2.2221C2.54178 9.14855 2.802 9.40901 2.802 9.72869C2.802 10.0486 2.54178 10.3086 2.2221 10.3086H0.935371C0.615221 10.3086 0.355469 10.0486 0.355469 9.72869ZM0.935371 7.29334C0.615221 7.29334 0.355469 7.55356 0.355469 7.87324C0.355469 8.19339 0.615221 8.45314 0.935371 8.45314H2.2221C2.54178 8.45314 2.802 8.19339 2.802 7.87324C2.802 7.55356 2.54178 7.29334 2.2221 7.29334H0.935371ZM0.355469 6.01385C0.355469 5.69417 0.615221 5.43395 0.935371 5.43395H2.2221C2.54178 5.43395 2.802 5.69417 2.802 6.01385C2.802 6.334 2.54178 6.59375 2.2221 6.59375H0.935371C0.615221 6.59375 0.355469 6.334 0.355469 6.01385ZM0.935371 3.5817C0.615221 3.5817 0.355469 3.84216 0.355469 4.1616C0.355469 4.48175 0.615221 4.7415 0.935371 4.7415H2.2221C2.54178 4.7415 2.802 4.48175 2.802 4.1616C2.802 3.84216 2.54178 3.5817 2.2221 3.5817H0.935371Z" fill="#4299E1"/>
</svg>
