<svg width="12" height="16" viewBox="0 0 12 16" fill="none" xmlns="http://www.w3.org/2000/svg">
<path fill-rule="evenodd" clip-rule="evenodd" d="M9.00132 6.80296C9.00132 10.1824 10.2211 12.2014 11.4006 12.2014C11.7317 12.2014 12.0005 12.4701 12.0005 12.8012C12.0005 13.1323 11.7317 13.4011 11.4006 13.4011H8.32231C8.05509 14.434 7.11786 15.2005 6.00218 15.2005C4.8865 15.2005 3.94927 14.434 3.68175 13.4011H0.603734C0.272629 13.4011 0.00390625 13.1323 0.00390625 12.8012C0.00390625 12.4701 0.272629 12.2014 0.603734 12.2014C1.78329 12.2014 3.00304 10.1824 3.00304 6.80296V6.20314C3.00304 4.75485 4.03505 3.5432 5.40235 3.26458V1.40452C5.40235 1.07341 5.67108 0.804688 6.00218 0.804688C6.33329 0.804688 6.60201 1.07341 6.60201 1.40452V3.26458C7.96932 3.5432 9.00132 4.75485 9.00132 6.20314V6.80296ZM7.20191 6.20456C7.20191 5.54295 6.66386 5.0049 6.00225 5.0049C5.67115 5.0049 5.40242 5.27272 5.40242 5.60413C5.40242 5.93553 5.67115 6.20366 6.00225 6.20366V6.20456C6.00225 6.53566 6.27097 6.80438 6.60208 6.80438C6.93318 6.80438 7.20191 6.53566 7.20191 6.20456Z" fill="#4299E1"/>
</svg>
