<svg width="12" height="16" viewBox="0 0 12 16" fill="none" xmlns="http://www.w3.org/2000/svg">
<path fill-rule="evenodd" clip-rule="evenodd" d="M9.00083 6.80296C9.00083 10.1824 10.2206 12.2014 11.4001 12.2014C11.7312 12.2014 12 12.4701 12 12.8012C12 13.1323 11.7312 13.4011 11.4001 13.4011H8.32183C8.0546 14.434 7.11737 15.2005 6.00169 15.2005C4.88601 15.2005 3.94878 14.434 3.68126 13.4011H0.603245C0.272141 13.4011 0.00341797 13.1323 0.00341797 12.8012C0.00341797 12.4701 0.272141 12.2014 0.603245 12.2014C1.78281 12.2014 3.00256 10.1824 3.00256 6.80296V6.20314C3.00256 4.75485 4.03456 3.5432 5.40187 3.26458V1.40452C5.40187 1.07341 5.67059 0.804688 6.00169 0.804688C6.3328 0.804688 6.60152 1.07341 6.60152 1.40452V3.26458C7.96883 3.5432 9.00083 4.75485 9.00083 6.20314V6.80296ZM7.20142 6.20456C7.20142 5.54295 6.66337 5.0049 6.00176 5.0049C5.67066 5.0049 5.40194 5.27272 5.40194 5.60413C5.40194 5.93553 5.67066 6.20366 6.00176 6.20366V6.20456C6.00176 6.53566 6.27049 6.80438 6.60159 6.80438C6.9327 6.80438 7.20142 6.53566 7.20142 6.20456Z" fill="#A0AEC0"/>
</svg>
