<svg width="14" height="14" viewBox="0 0 14 14" fill="none" xmlns="http://www.w3.org/2000/svg">
<path d="M13.75 6.62502C13.7526 7.61492 13.5213 8.59144 13.075 9.47502C12.5458 10.5338 11.7323 11.4244 10.7256 12.047C9.71886 12.6696 8.55868 12.9996 7.375 13C6.3851 13.0026 5.40859 12.7713 4.525 12.325L0.25 13.75L1.675 9.47502C1.2287 8.59144 0.997419 7.61492 1 6.62502C1.00046 5.44134 1.33046 4.28116 1.95304 3.27443C2.57562 2.26771 3.46619 1.4542 4.525 0.925021C5.40859 0.47872 6.3851 0.24744 7.375 0.250021H7.75C9.31326 0.336265 10.7898 0.996092 11.8969 2.10317C13.0039 3.21024 13.6638 4.68676 13.75 6.25002V6.62502Z" fill="#A0AEC0"/>
</svg>
