<svg width="16" height="16" viewBox="0 0 16 16" fill="none" xmlns="http://www.w3.org/2000/svg">
<path fill-rule="evenodd" clip-rule="evenodd" d="M4.03677 0.350897C4.50714 -0.116966 5.2671 -0.116966 5.73747 0.350897L7.46177 2.07858L3.30027 6.24028L1.57577 4.51478C1.34972 4.28953 1.22266 3.98355 1.22266 3.66443C1.22266 3.34531 1.34972 3.03933 1.57577 2.81408L4.03677 0.350897ZM9.32621 3.93656L7.98751 2.59766L3.82422 6.75936L5.1651 8.10044C5.33452 8.26949 5.60881 8.26949 5.77822 8.10044L9.3268 4.55186C9.496 4.38165 9.496 4.10676 9.3268 3.93656H9.32621ZM9.36676 5.55064L10.374 6.56007C10.4978 6.68391 10.5674 6.85187 10.5674 7.027C10.5674 7.20214 10.4978 7.3701 10.374 7.49393L8.71675 9.15119C8.45885 9.40884 8.04099 9.40884 7.78309 9.15119L6.77346 8.14156L9.36676 5.55064ZM13.5688 12.3458C13.7723 12.1393 13.7826 11.811 13.5926 11.5921L10.6659 8.23845L9.46127 9.44287L12.817 12.3696C13.0351 12.5601 13.3633 12.5497 13.5688 12.3458ZM13.4568 13.0625C13.0799 13.4925 12.5938 14.1804 12.5938 14.7525C12.5938 15.5175 12.9236 15.9968 13.4568 15.9968C13.99 15.9968 14.3198 15.5175 14.3198 14.7525C14.3198 14.1779 13.8329 13.49 13.4568 13.0625Z" fill="#4299E1"/>
</svg>
