<svg width="14" height="14" viewBox="0 0 14 14" fill="none" xmlns="http://www.w3.org/2000/svg">
<path d="M6.99998 0C3.13401 0 0 3.13401 0 6.99998C0 10.866 3.13401 14 6.99998 14C10.866 14 14 10.866 14 6.99998C14 3.13398 10.866 0 6.99998 0ZM10.0421 8.77209C10.3928 9.12278 10.3928 9.69139 10.0421 10.0421C9.86674 10.2174 9.6369 10.3051 9.40709 10.3051C9.17728 10.3051 8.94744 10.2174 8.77209 10.0421L6.99998 8.27002L5.22787 10.0421C5.05256 10.2174 4.82264 10.3051 4.59287 10.3051C4.36303 10.3051 4.13322 10.2175 3.95787 10.0421C3.60718 9.69139 3.60718 9.12278 3.95787 8.77209L5.72998 7.00002L3.95787 5.22791C3.60718 4.87722 3.60718 4.30861 3.95787 3.95791C4.30857 3.60722 4.87718 3.60722 5.22787 3.95791L6.99998 5.73002L8.77209 3.95791C9.12278 3.60718 9.69147 3.60722 10.0421 3.95791C10.3928 4.30861 10.3928 4.87722 10.0421 5.22791L8.26998 7.00002L10.0421 8.77209Z" fill="#EB5757"/>
</svg>
