<svg width="22" height="25" viewBox="0 0 22 25" fill="none" xmlns="http://www.w3.org/2000/svg">
<path d="M12.0037 7.82679C12.0037 7.31462 11.5885 6.89941 11.0763 6.89941C10.5641 6.89941 10.1489 7.31462 10.1489 7.82679V9.26459H12.0037V7.82679Z" fill="#9165D9"/>
<path d="M13.2842 10.9365C13.2838 10.416 12.8655 9.99234 12.3451 9.98535H9.81075C9.29024 9.9922 8.87177 10.4159 8.87142 10.9365L8.86426 16.2194H13.2911L13.2842 10.9365Z" fill="#9165D9"/>
<path d="M17.0798 9.88706C17.1191 9.88703 17.1583 9.88053 17.1956 9.86785L20.2353 8.83742C20.3578 8.79643 20.449 8.69304 20.4745 8.56639C20.4999 8.43974 20.4556 8.30917 20.3584 8.22408C20.2612 8.13898 20.126 8.11237 20.0038 8.1543L16.964 9.18473C16.7967 9.24126 16.6949 9.41072 16.7236 9.58504C16.7523 9.75937 16.9031 9.88722 17.0798 9.88706Z" fill="#9165D9"/>
<path d="M20.2343 17.4279L17.1945 16.3975C17.0724 16.3555 16.9371 16.3821 16.8399 16.4672C16.7427 16.5523 16.6984 16.6829 16.7239 16.8096C16.7493 16.9362 16.8405 17.0396 16.963 17.0806L20.0027 18.111C20.1249 18.1529 20.2602 18.1263 20.3574 18.0412C20.4546 17.9561 20.4988 17.8256 20.4734 17.6989C20.448 17.5723 20.3568 17.4689 20.2343 17.4279Z" fill="#9165D9"/>
<path d="M4.27625 13.1282C4.27625 12.929 4.11479 12.7676 3.91561 12.7676H0.360648C0.161468 12.7676 0 12.929 0 13.1282C0 13.3274 0.161468 13.4889 0.360648 13.4889H3.91561C4.11479 13.4889 4.27625 13.3274 4.27625 13.1282Z" fill="#9165D9"/>
<path d="M5.08779 9.18473L2.04805 8.1543C1.92587 8.11237 1.79059 8.13898 1.6934 8.22408C1.59621 8.30917 1.55195 8.43974 1.57737 8.56639C1.6028 8.69304 1.69401 8.79643 1.81651 8.83742L4.85626 9.86785C4.97844 9.90978 5.11372 9.88317 5.21091 9.79807C5.30809 9.71298 5.35235 9.58241 5.32693 9.45576C5.30151 9.32911 5.21029 9.22572 5.08779 9.18473Z" fill="#9165D9"/>
<path d="M4.85626 16.3975L1.81651 17.4279C1.69401 17.4689 1.6028 17.5723 1.57737 17.6989C1.55195 17.8256 1.59621 17.9561 1.6934 18.0412C1.79059 18.1263 1.92587 18.1529 2.04805 18.111L5.08779 17.0806C5.21029 17.0396 5.30151 16.9362 5.32693 16.8096C5.35235 16.6829 5.30809 16.5523 5.21091 16.4672C5.11372 16.3821 4.97844 16.3555 4.85626 16.3975Z" fill="#9165D9"/>
<path d="M15.0922 20.1872H13.2954L13.2911 16.9414H8.86246L8.85818 20.1872H7.06133C6.86215 20.1872 6.70068 20.3487 6.70068 20.5479C6.70068 20.7471 6.86215 20.9085 7.06133 20.9085H15.0922C15.2914 20.9085 15.4529 20.7471 15.4529 20.5479C15.4529 20.3487 15.2914 20.1872 15.0922 20.1872Z" fill="#9165D9"/>
<path d="M14.0313 24.1029H12.1829L12.1726 21.4238H9.95633L9.96664 24.1029H8.12481C7.92563 24.1029 7.76416 24.2644 7.76416 24.4636C7.76416 24.6628 7.92563 24.8242 8.12481 24.8242H14.0313C14.2305 24.8242 14.3919 24.6628 14.3919 24.4636C14.3919 24.2644 14.2305 24.1029 14.0313 24.1029Z" fill="#9165D9"/>
<path d="M11.4376 1.27471C11.4376 1.07553 11.2761 0.914062 11.077 0.914062C10.8778 0.914062 10.7163 1.07553 10.7163 1.27471V6.53388H11.4376V1.27471Z" fill="#9165D9"/>
<path d="M21.6397 12.7676H18.0848C17.8856 12.7676 17.7241 12.929 17.7241 13.1282C17.7241 13.3274 17.8856 13.4889 18.0848 13.4889H21.6397C21.8389 13.4889 22.0004 13.3274 22.0004 13.1282C22.0004 12.929 21.8389 12.7676 21.6397 12.7676Z" fill="#9165D9"/>
</svg>
