<svg width="14" height="14" viewBox="0 0 14 14" fill="none" xmlns="http://www.w3.org/2000/svg">
<path d="M7 0C7.64258 0 8.26237 0.0820312 8.85938 0.246094C9.45638 0.410156 10.0124 0.647135 10.5273 0.957031C11.0423 1.26693 11.514 1.63151 11.9424 2.05078C12.3708 2.47005 12.7376 2.94173 13.043 3.46582C13.3483 3.98991 13.583 4.54818 13.7471 5.14062C13.9111 5.73307 13.9954 6.35286 14 7C14 7.64258 13.918 8.26237 13.7539 8.85938C13.5898 9.45638 13.3529 10.0124 13.043 10.5273C12.7331 11.0423 12.3685 11.514 11.9492 11.9424C11.5299 12.3708 11.0583 12.7376 10.5342 13.043C10.0101 13.3483 9.45182 13.583 8.85938 13.7471C8.26693 13.9111 7.64714 13.9954 7 14C6.35742 14 5.73763 13.918 5.14062 13.7539C4.54362 13.5898 3.98763 13.3529 3.47266 13.043C2.95768 12.7331 2.486 12.3685 2.05762 11.9492C1.62923 11.5299 1.26237 11.0583 0.957031 10.5342C0.651693 10.0101 0.416992 9.45182 0.25293 8.85938C0.0888672 8.26693 0.00455729 7.64714 0 7C0 6.35742 0.0820312 5.73763 0.246094 5.14062C0.410156 4.54362 0.647135 3.98763 0.957031 3.47266C1.26693 2.95768 1.63151 2.486 2.05078 2.05762C2.47005 1.62923 2.94173 1.26237 3.46582 0.957031C3.98991 0.651693 4.54818 0.416992 5.14062 0.25293C5.73307 0.0888672 6.35286 0.00455729 7 0ZM6.2002 9.20801C6.30046 9.20801 6.39616 9.18978 6.4873 9.15332C6.57845 9.11686 6.6582 9.06217 6.72656 8.98926L9.65918 6.05664C9.72754 5.98828 9.77995 5.90853 9.81641 5.81738C9.85286 5.72624 9.87109 5.63281 9.87109 5.53711C9.87109 5.43685 9.85286 5.34115 9.81641 5.25C9.77995 5.15885 9.72754 5.08138 9.65918 5.01758C9.59082 4.95378 9.51107 4.90137 9.41992 4.86035C9.32878 4.81934 9.23307 4.79883 9.13281 4.79883C9.03711 4.79883 8.94368 4.81706 8.85254 4.85352C8.76139 4.88997 8.67936 4.94238 8.60645 5.01074L6.2002 7.41699L5.39355 6.61035C5.24772 6.46452 5.07227 6.3916 4.86719 6.3916C4.76693 6.3916 4.67122 6.40983 4.58008 6.44629C4.48893 6.48275 4.40918 6.53744 4.34082 6.61035C4.27246 6.68327 4.22005 6.76074 4.18359 6.84277C4.14714 6.9248 4.12663 7.02051 4.12207 7.12988C4.12207 7.22559 4.1403 7.31901 4.17676 7.41016C4.21322 7.5013 4.2679 7.58333 4.34082 7.65625L5.67383 8.98926C5.74219 9.05762 5.82194 9.11003 5.91309 9.14648C6.00423 9.18294 6.09994 9.20345 6.2002 9.20801Z" fill="#29B183"/>
</svg>
