<svg width="17" height="21" viewBox="0 0 17 21" fill="none" xmlns="http://www.w3.org/2000/svg">
<path fill-rule="evenodd" clip-rule="evenodd" d="M4.08313 0.890039C4.67404 0.302279 5.62876 0.302279 6.21967 0.890039L8.38586 3.06047L3.1579 8.28868L0.991454 6.121C0.707475 5.83802 0.547852 5.45362 0.547852 5.05273C0.547852 4.65183 0.707475 4.26743 0.991454 3.98446L4.08313 0.890039ZM10.7247 5.39338L9.04289 3.71136L3.81268 8.93958L5.49719 10.6243C5.71002 10.8367 6.0546 10.8367 6.26743 10.6243L10.7254 6.16636C10.938 5.95254 10.938 5.6072 10.7254 5.39338H10.7247ZM10.778 7.42083L12.0433 8.68895C12.1989 8.84452 12.2863 9.05552 12.2863 9.27554C12.2863 9.49555 12.1989 9.70656 12.0433 9.86213L9.96138 11.9441C9.63739 12.2678 9.11244 12.2678 8.78845 11.9441L7.52008 10.6757L10.778 7.42083ZM16.0612 15.9617C16.3167 15.7022 16.3297 15.2898 16.0911 15.0147L12.4143 10.8017L10.901 12.3148L15.1167 15.9916C15.3906 16.2309 15.8029 16.2178 16.0612 15.9617ZM15.9158 16.865C15.4423 17.4052 14.8316 18.2694 14.8316 18.9881C14.8316 19.9492 15.246 20.5512 15.9158 20.5512C16.5856 20.5512 17 19.9492 17 18.9881C17 18.2662 16.3882 17.402 15.9158 16.865Z" fill="#63686B"/>
</svg>
