<svg width="27" height="28" viewBox="0 0 27 28" fill="none" xmlns="http://www.w3.org/2000/svg">
<path fill-rule="evenodd" clip-rule="evenodd" d="M15.4382 0C13.6977 -8.14841e-06 11.9573 0.666847 10.6236 2.00049L2.00045 10.6236C-0.666834 13.2909 -0.666798 17.5856 2.00045 20.2528C3.84113 22.0935 6.45665 22.6634 8.77767 21.9635L8.75704 21.9095C8.65826 21.6067 8.57469 21.2992 8.50664 20.9881C8.43858 20.6769 8.38612 20.3626 8.34946 20.0462C8.31279 19.7298 8.29197 19.4118 8.28707 19.0933C8.28219 18.7748 8.29324 18.4563 8.32018 18.139C8.3471 17.8216 8.38987 17.5058 8.44834 17.1927C8.50682 16.8797 8.58091 16.5697 8.67035 16.264C8.7598 15.9583 8.86447 15.6573 8.98398 15.3621C9.10348 15.0668 9.23767 14.7778 9.38604 14.4959C9.53444 14.2141 9.69683 13.9399 9.87261 13.6743C10.0484 13.4087 10.2373 13.1521 10.4388 12.9053C10.6402 12.6586 10.8538 12.4221 11.0789 12.1967C11.1474 12.1321 11.217 12.0686 11.2874 12.006L7.10253 7.82108L11.7498 3.17384C11.8767 3.04695 12.0084 2.92801 12.1444 2.81698C12.2803 2.70595 12.4205 2.60282 12.5643 2.50765C12.7082 2.41248 12.8557 2.32526 13.0061 2.24595C13.1566 2.16664 13.3101 2.09524 13.466 2.03179C13.622 1.96835 13.7803 1.91286 13.9404 1.86527C14.1006 1.81769 14.2626 1.77801 14.4258 1.74628C14.589 1.71456 14.7534 1.69079 14.9184 1.67493C15.0834 1.65907 15.249 1.65116 15.4146 1.65116C15.5802 1.65116 15.7458 1.65907 15.9108 1.67493C16.0758 1.69079 16.2402 1.71456 16.4034 1.74628C16.5666 1.77801 16.7286 1.81769 16.8887 1.86527C17.0489 1.91286 17.2073 1.96835 17.3632 2.03179C17.5191 2.09524 17.6726 2.16665 17.8231 2.24595C17.9736 2.32526 18.121 2.41248 18.2648 2.50765C18.4087 2.60282 18.5489 2.70595 18.6848 2.81698C18.8208 2.92801 18.9526 3.04695 19.0795 3.17384C19.2063 3.30074 19.3253 3.43251 19.4363 3.56848C19.5473 3.70445 19.6505 3.84464 19.7456 3.98847C19.8408 4.1323 19.9281 4.27973 20.0074 4.43021C20.0867 4.5807 20.1581 4.73422 20.2215 4.89015C20.2849 5.04608 20.3404 5.20441 20.388 5.36457C20.4356 5.52473 20.4753 5.68674 20.507 5.84992C20.5387 6.01311 20.5625 6.17749 20.5784 6.34249C20.5942 6.50749 20.6021 6.67311 20.6021 6.83871C20.6021 7.00432 20.5942 7.16994 20.5784 7.33494C20.5625 7.49993 20.5387 7.66431 20.507 7.8275C20.4753 7.99068 20.4356 8.15264 20.388 8.3128C20.3404 8.47296 20.2849 8.63134 20.2214 8.78727C20.158 8.9432 20.0866 9.09667 20.0073 9.24716C19.9427 9.36986 19.8691 9.48901 19.7939 9.60736C20.096 9.67032 20.3949 9.74788 20.6894 9.83977C20.9305 9.91807 21.1684 10.0059 21.4025 10.1032C22.8372 7.51402 22.4552 4.20289 20.2528 2.00049C18.9192 0.666853 17.1787 7.6052e-06 15.4382 0ZM17.8638 10.0714C15.4972 10.0621 13.2247 10.9975 11.5504 12.6702C8.28364 15.9419 8.0724 21.1722 11.0647 24.6967L23.5786 12.1828C21.9821 10.8274 19.958 10.0796 17.8638 10.0714ZM12.0898 25.7209L24.6037 13.207C27.596 16.7315 27.3847 21.9618 24.118 25.2334C20.8466 28.5017 15.615 28.7137 12.0898 25.7209Z" fill="#5DB5D0"/>
</svg>
