<svg width="26" height="27" viewBox="0 0 26 27" fill="none" xmlns="http://www.w3.org/2000/svg">
<path fill-rule="evenodd" clip-rule="evenodd" d="M14.9763 0C13.2879 -7.90463e-06 11.5996 0.646897 10.3058 1.94065L1.9406 10.3058C-0.646884 12.8933 -0.64685 17.0595 1.9406 19.6469C3.72622 21.4326 6.26348 21.9853 8.51507 21.3064L8.49505 21.2541C8.39923 20.9603 8.31817 20.662 8.25215 20.3602C8.18612 20.0583 8.13523 19.7534 8.09967 19.4464C8.0641 19.1395 8.0439 18.831 8.03915 18.5221C8.03441 18.2132 8.04513 17.9042 8.07126 17.5963C8.09738 17.2885 8.13887 16.9821 8.19559 16.6784C8.25232 16.3747 8.3242 16.074 8.41096 15.7774C8.49773 15.4809 8.59927 15.1889 8.71521 14.9025C8.83113 14.6161 8.9613 14.3356 9.10524 14.0622C9.24919 13.7889 9.40673 13.5228 9.57725 13.2652C9.74777 13.0075 9.93107 12.7586 10.1265 12.5192C10.3219 12.2799 10.5291 12.0505 10.7474 11.8318C10.8139 11.7692 10.8814 11.7075 10.9498 11.6469L6.89004 7.5871L11.3983 3.07889C11.5213 2.95579 11.6491 2.84042 11.781 2.7327C11.9129 2.62499 12.0489 2.52495 12.1885 2.43263C12.328 2.3403 12.4711 2.2557 12.617 2.17876C12.763 2.10182 12.9119 2.03256 13.0632 1.97101C13.2144 1.90946 13.368 1.85563 13.5234 1.80947C13.6788 1.76331 13.8359 1.72481 13.9942 1.69404C14.1525 1.66326 14.312 1.64021 14.4721 1.62482C14.6322 1.60943 14.7928 1.60177 14.9534 1.60177C15.1141 1.60177 15.2747 1.60943 15.4348 1.62482C15.5949 1.64021 15.7544 1.66326 15.9127 1.69404C16.071 1.72481 16.2281 1.76331 16.3835 1.80947C16.5388 1.85563 16.6925 1.90946 16.8437 1.97101C16.995 2.03256 17.1439 2.10183 17.2899 2.17876C17.4359 2.2557 17.5789 2.3403 17.7184 2.43263C17.8579 2.52495 17.9939 2.62499 18.1258 2.7327C18.2577 2.84041 18.3855 2.95579 18.5086 3.07889C18.6317 3.20199 18.7471 3.32982 18.8548 3.46172C18.9625 3.59362 19.0626 3.72962 19.1549 3.86915C19.2472 4.00867 19.3319 4.15169 19.4088 4.29767C19.4858 4.44365 19.555 4.59259 19.6165 4.74385C19.6781 4.89511 19.7319 5.04871 19.7781 5.20408C19.8242 5.35945 19.8627 5.51661 19.8935 5.67491C19.9243 5.83321 19.9473 5.99267 19.9627 6.15274C19.9781 6.3128 19.9858 6.47347 19.9858 6.63412C19.9858 6.79477 19.9781 6.95543 19.9627 7.1155C19.9473 7.27556 19.9243 7.43502 19.8935 7.59332C19.8627 7.75163 19.8242 7.90873 19.7781 8.0641C19.7319 8.21947 19.678 8.37312 19.6165 8.52438C19.5549 8.67564 19.4857 8.82453 19.4088 8.97051C19.346 9.08954 19.2747 9.20512 19.2017 9.31994C19.4948 9.38101 19.7847 9.45625 20.0705 9.54539C20.3043 9.62135 20.5351 9.70659 20.7622 9.80091C22.1539 7.28922 21.7834 4.07715 19.6469 1.94065C18.3532 0.646902 16.6647 7.37768e-06 14.9763 0ZM17.3316 9.7696C15.0358 9.7606 12.8313 10.6681 11.2071 12.2907C8.03805 15.4645 7.83312 20.5384 10.7359 23.9574L22.8754 11.8179C21.3267 10.503 19.3632 9.77755 17.3316 9.7696ZM11.7266 24.952L23.8661 12.8125C26.7688 16.2315 26.5639 21.3053 23.3949 24.4791C20.2213 27.6496 15.1463 27.8553 11.7266 24.952Z" fill="#A8A8A8"/>
</svg>
