<svg width="18" height="18" viewBox="0 0 18 18" fill="none" xmlns="http://www.w3.org/2000/svg">
<path fill-rule="evenodd" clip-rule="evenodd" d="M9.97458 0C8.85006 -5.26467e-06 7.72557 0.430849 6.86391 1.29252L1.29249 6.8639C-0.43084 8.58723 -0.430817 11.362 1.29249 13.0853C2.48175 14.2746 4.17162 14.6427 5.67123 14.1906L5.6579 14.1557C5.59408 13.9601 5.54009 13.7614 5.49612 13.5603C5.45215 13.3593 5.41825 13.1562 5.39457 12.9518C5.37087 12.7474 5.35742 12.5419 5.35426 12.3361C5.3511 12.1304 5.35824 11.9246 5.37565 11.7196C5.39304 11.5145 5.42068 11.3105 5.45845 11.1082C5.49624 10.9059 5.54411 10.7056 5.6019 10.5081C5.65968 10.3106 5.72731 10.1161 5.80453 9.92539C5.88174 9.73464 5.96844 9.54787 6.0643 9.36578C6.16018 9.1837 6.2651 9.00653 6.37867 8.83493C6.49224 8.66333 6.61432 8.49752 6.74446 8.33811C6.87459 8.1787 7.01262 8.02589 7.15802 7.88026C7.20233 7.83854 7.24726 7.79747 7.29279 7.75708L4.58893 5.05318L7.5915 2.05061C7.67349 1.96863 7.75859 1.89178 7.84644 1.82004C7.93429 1.74831 8.02487 1.68167 8.11779 1.62019C8.21072 1.5587 8.30601 1.50235 8.40324 1.45111C8.50046 1.39986 8.59962 1.35373 8.70037 1.31274C8.80111 1.27174 8.90341 1.23589 9.00689 1.20515C9.11037 1.1744 9.21504 1.14877 9.32047 1.12827C9.42591 1.10777 9.53215 1.09242 9.63875 1.08217C9.74536 1.07192 9.85233 1.06681 9.95933 1.06681C10.0663 1.06681 10.1733 1.07192 10.2799 1.08217C10.3865 1.09242 10.4928 1.10777 10.5982 1.12827C10.7037 1.14877 10.8083 1.1744 10.9118 1.20515C11.0152 1.23589 11.1176 1.27174 11.2183 1.31274C11.3191 1.35373 11.4182 1.39987 11.5155 1.45111C11.6127 1.50235 11.7079 1.55869 11.8009 1.62019C11.8938 1.68168 11.9844 1.74831 12.0722 1.82004C12.1601 1.89178 12.2452 1.96863 12.3272 2.05061C12.4092 2.1326 12.486 2.21774 12.5578 2.30559C12.6295 2.39343 12.6961 2.48401 12.7576 2.57694C12.8191 2.66987 12.8755 2.76512 12.9267 2.86235C12.978 2.95958 13.0241 3.05877 13.0651 3.15952C13.1061 3.26026 13.1419 3.36256 13.1727 3.46604C13.2034 3.56952 13.229 3.67419 13.2495 3.77962C13.27 3.88505 13.2854 3.99126 13.2956 4.09787C13.3059 4.20447 13.311 4.31148 13.311 4.41848C13.311 4.52547 13.3059 4.63248 13.2956 4.73909C13.2854 4.84569 13.27 4.9519 13.2495 5.05733C13.229 5.16276 13.2034 5.2674 13.1727 5.37088C13.1419 5.47436 13.106 5.57669 13.065 5.67744C13.024 5.77818 12.9779 5.87734 12.9267 5.97457C12.8849 6.05385 12.8374 6.13082 12.7888 6.20729C12.984 6.24797 13.1771 6.29809 13.3674 6.35745C13.5232 6.40804 13.6769 6.46482 13.8281 6.52763C14.755 4.85479 14.5083 2.71548 13.0853 1.29252C12.2236 0.430852 11.0991 4.9137e-06 9.97458 0ZM11.5424 6.50686C10.0133 6.50087 8.54503 7.10526 7.46328 8.18597C5.35264 10.2998 5.21616 13.6791 7.14946 15.9562L15.2346 7.87105C14.2032 6.99532 12.8954 6.51216 11.5424 6.50686ZM7.81008 16.6182L15.8953 8.53306C17.8286 10.8102 17.6921 14.1895 15.5814 16.3033C13.4678 18.4149 10.0877 18.5519 7.81008 16.6182Z" fill="#5DB5D0"/>
</svg>
