<svg width="17" height="23" viewBox="0 0 17 23" fill="none" xmlns="http://www.w3.org/2000/svg">
<g opacity="0.850083">
<path fill-rule="evenodd" clip-rule="evenodd" d="M12.1685 5.3279C13.124 5.3279 13.6726 4.78103 13.6744 3.82825L13.6753 2.06097C13.6735 1.1867 13.1053 0.621094 12.2265 0.621094H4.40356C3.52483 0.621094 2.95655 1.1867 2.95476 2.06186L2.95566 3.82736C2.95744 4.78014 3.5052 5.3279 4.4669 5.3279L4.93883 5.32701V6.06033C4.8969 6.06925 4.85497 6.07817 4.81304 6.0862C2.74333 6.54742 0.611175 8.65103 0.629017 11.3729C0.643291 13.4809 0.639723 15.5899 0.636154 17.6989L0.632586 20.5456C0.632586 21.3931 1.20622 21.9632 2.05908 21.9632H14.5701C15.4221 21.9632 15.9957 21.3931 15.9957 20.5456L15.993 17.59C15.9895 15.5185 15.9868 13.4453 16.0002 11.3729C16.018 8.65103 13.8859 6.54742 11.8153 6.0862L11.7965 6.0822C11.761 6.07463 11.726 6.06715 11.6904 6.06033V5.32701L12.1685 5.3279ZM5.6528 6.00027V5.3285H10.9752V6.00027H5.6528ZM15.2789 17.2814C15.2763 15.3104 15.2737 13.34 15.2864 11.3689C15.3025 9.00746 13.4549 7.18398 11.6617 6.78431L11.3013 6.71472H5.3304L4.96909 6.78431C3.17594 7.18398 1.32837 9.00746 1.34442 11.3698C1.35781 13.4814 1.35424 15.5922 1.35067 17.702L1.34799 20.5479C1.34799 21.002 1.60046 21.2509 2.0599 21.2509H14.5709C15.0295 21.2509 15.282 21.002 15.282 20.5479L15.2793 17.5932L15.2789 17.2814Z" fill="#63686B"/>
<path d="M13.6744 3.82825L14.0294 3.82892V3.82843L13.6744 3.82825ZM12.1685 5.3279L12.1679 5.6829H12.1685V5.3279ZM13.6753 2.06097L14.0303 2.06115L14.0303 2.06024L13.6753 2.06097ZM2.95476 2.06186L2.59976 2.06114L2.59976 2.06204L2.95476 2.06186ZM2.95566 3.82736L2.60066 3.82754L2.60066 3.82802L2.95566 3.82736ZM4.4669 5.3279V5.6829L4.46757 5.6829L4.4669 5.3279ZM4.93883 5.32701H5.29383V4.97133L4.93816 4.97201L4.93883 5.32701ZM4.93883 6.06033L5.01271 6.40755L5.29383 6.34774V6.06033H4.93883ZM4.81304 6.0862L4.74625 5.73738L4.73583 5.7397L4.81304 6.0862ZM0.629017 11.3729L0.274025 11.3752L0.274026 11.3753L0.629017 11.3729ZM0.636154 17.6989L0.281155 17.6983L0.281155 17.6984L0.636154 17.6989ZM0.632586 20.5456L0.277586 20.5452V20.5456H0.632586ZM15.9957 20.5456H16.3507L16.3507 20.5453L15.9957 20.5456ZM15.993 17.59L16.348 17.5897V17.5894L15.993 17.59ZM16.0002 11.3729L15.6452 11.3706L15.6452 11.3706L16.0002 11.3729ZM11.8153 6.0862L11.8925 5.73968L11.8893 5.739L11.8153 6.0862ZM11.7965 6.0822L11.7224 6.42938L11.7225 6.42939L11.7965 6.0822ZM11.6904 6.06033H11.3354V6.3538L11.6236 6.40899L11.6904 6.06033ZM11.6904 5.32701L11.691 4.97201L11.3354 4.97134V5.32701H11.6904ZM5.6528 5.3285V4.9735H5.2978V5.3285H5.6528ZM5.6528 6.00027H5.2978V6.35527H5.6528V6.00027ZM10.9752 5.3285H11.3302V4.9735H10.9752V5.3285ZM10.9752 6.00027V6.35527H11.3302V6.00027H10.9752ZM15.2864 11.3689L14.9314 11.3665L14.9314 11.3666L15.2864 11.3689ZM15.2789 17.2814L15.6339 17.2809V17.2809L15.2789 17.2814ZM11.6617 6.78431L11.739 6.43767L11.729 6.43574L11.6617 6.78431ZM11.3013 6.71472L11.3686 6.36616L11.3353 6.35972H11.3013V6.71472ZM5.3304 6.71472V6.35972H5.29653L5.26326 6.36613L5.3304 6.71472ZM4.96909 6.78431L4.90193 6.43557L4.89186 6.43781L4.96909 6.78431ZM1.34442 11.3698L1.69942 11.3675L1.69942 11.3674L1.34442 11.3698ZM1.35067 17.702L0.995669 17.7014L0.995669 17.7017L1.35067 17.702ZM1.34799 20.5479L0.992993 20.5475V20.5479H1.34799ZM15.282 20.5479H15.637L15.637 20.5476L15.282 20.5479ZM15.2793 17.5932L15.6343 17.5929V17.5927L15.2793 17.5932ZM13.3194 3.82759C13.3187 4.23663 13.2018 4.51129 13.0286 4.68385C12.8552 4.85652 12.5793 4.9729 12.1685 4.9729V5.6829C12.7132 5.6829 13.1894 5.52585 13.5296 5.18688C13.87 4.84782 14.0284 4.37265 14.0294 3.82892L13.3194 3.82759ZM13.3203 2.06079L13.3194 3.82807L14.0294 3.82843L14.0303 2.06115L13.3203 2.06079ZM12.2265 0.976094C12.5884 0.976094 12.8546 1.09105 13.0295 1.26492C13.2042 1.43868 13.3196 1.70284 13.3203 2.06169L14.0303 2.06024C14.0293 1.54483 13.8596 1.08905 13.5301 0.761433C13.2007 0.433941 12.7434 0.266094 12.2265 0.266094V0.976094ZM4.40356 0.976094H12.2265V0.266094H4.40356V0.976094ZM3.30976 2.06259C3.3105 1.70319 3.42591 1.43881 3.60066 1.26498C3.77553 1.09104 4.04168 0.976094 4.40356 0.976094V0.266094C3.8867 0.266094 3.42936 0.433945 3.09995 0.7616C2.77044 1.08937 2.60082 1.54537 2.59977 2.06114L3.30976 2.06259ZM3.31066 3.82718L3.30976 2.06168L2.59976 2.06204L2.60066 3.82754L3.31066 3.82718ZM4.4669 4.9729C4.05255 4.9729 3.77539 4.85605 3.60168 4.68325C3.42812 4.51059 3.31142 4.23589 3.31066 3.82669L2.60066 3.82802C2.60168 4.37161 2.75975 4.84718 3.10094 5.1866C3.44199 5.52587 3.91955 5.6829 4.4669 5.6829V4.9729ZM4.93816 4.97201L4.46623 4.9729L4.46757 5.6829L4.9395 5.68201L4.93816 4.97201ZM5.29383 6.06033V5.32701H4.58383V6.06033H5.29383ZM4.87981 6.43486C4.9259 6.42604 4.97138 6.41635 5.01271 6.40755L4.86495 5.7131C4.82242 5.72215 4.78405 5.7303 4.74628 5.73753L4.87981 6.43486ZM0.98401 11.3706C0.967399 8.83653 2.96269 6.86225 4.89026 6.4327L4.73583 5.7397C2.52398 6.2326 0.254952 8.46553 0.274025 11.3752L0.98401 11.3706ZM0.991154 17.6995C0.994722 15.5908 0.998295 13.4803 0.984009 11.3705L0.274026 11.3753C0.288288 13.4816 0.284724 15.5891 0.281155 17.6983L0.991154 17.6995ZM0.987586 20.5461L0.991154 17.6993L0.281155 17.6984L0.277586 20.5452L0.987586 20.5461ZM2.05908 21.6082C1.71345 21.6082 1.45109 21.4942 1.27624 21.3204C1.10159 21.1469 0.987586 20.8872 0.987586 20.5456H0.277586C0.277586 21.0515 0.450393 21.5007 0.775773 21.824C1.10096 22.1472 1.55185 22.3182 2.05908 22.3182V21.6082ZM14.5701 21.6082H2.05908V22.3182H14.5701V21.6082ZM15.6407 20.5456C15.6407 20.8872 15.5267 21.1469 15.3521 21.3205C15.1773 21.4942 14.9152 21.6082 14.5701 21.6082V22.3182C15.077 22.3182 15.5277 22.1471 15.8527 21.824C16.1779 21.5006 16.3507 21.0515 16.3507 20.5456H15.6407ZM15.638 17.5904L15.6407 20.5459L16.3507 20.5453L16.348 17.5897L15.638 17.5904ZM15.6452 11.3706C15.6318 13.4446 15.6345 15.5192 15.638 17.5906L16.348 17.5894C16.3445 15.5178 16.3418 13.4459 16.3552 11.3752L15.6452 11.3706ZM11.7381 6.43271C13.6665 6.86227 15.6618 8.83656 15.6452 11.3706L16.3552 11.3752C16.3742 8.4655 14.1052 6.23257 11.8924 5.73969L11.7381 6.43271ZM11.7225 6.42939L11.7412 6.43339L11.8893 5.739L11.8705 5.735L11.7225 6.42939ZM11.6236 6.40899C11.655 6.415 11.6864 6.42168 11.7224 6.42938L11.8706 5.73502C11.8357 5.72757 11.7971 5.71931 11.7571 5.71166L11.6236 6.40899ZM11.3354 5.32701V6.06033H12.0454V5.32701H11.3354ZM12.1692 4.9729L11.691 4.97201L11.6897 5.68201L12.1679 5.6829L12.1692 4.9729ZM5.2978 5.3285V6.00027H6.0078V5.3285H5.2978ZM10.9752 4.9735H5.6528V5.6835H10.9752V4.9735ZM11.3302 6.00027V5.3285H10.6202V6.00027H11.3302ZM5.6528 6.35527H10.9752V5.64527H5.6528V6.35527ZM14.9314 11.3666C14.9187 13.3393 14.9213 15.311 14.9239 17.2819L15.6339 17.2809C15.6313 15.3097 15.6287 13.3407 15.6414 11.3712L14.9314 11.3666ZM11.5845 7.13081C13.2353 7.49875 14.9462 9.19275 14.9314 11.3665L15.6414 11.3713C15.6587 8.82217 13.6745 6.8692 11.739 6.43781L11.5845 7.13081ZM11.234 7.06329L11.5945 7.13287L11.729 6.43574L11.3686 6.36616L11.234 7.06329ZM5.3304 7.06972H11.3013V6.35972H5.3304V7.06972ZM5.03623 7.1329L5.39754 7.06332L5.26326 6.36613L4.90196 6.43571L5.03623 7.1329ZM1.69942 11.3674C1.68463 9.19271 3.39553 7.49874 5.04632 7.13081L4.89186 6.43781C2.95634 6.86921 0.972099 8.82221 0.989432 11.3722L1.69942 11.3674ZM1.70567 17.7026C1.70924 15.593 1.71281 13.4808 1.69942 11.3675L0.989431 11.372C1.0028 13.482 0.999238 15.5913 0.995669 17.7014L1.70567 17.7026ZM1.70299 20.5482L1.70567 17.7024L0.995669 17.7017L0.992993 20.5475L1.70299 20.5482ZM2.0599 20.8959C1.89207 20.8959 1.81569 20.8512 1.78104 20.817C1.74711 20.7835 1.70299 20.7106 1.70299 20.5479H0.992993C0.992993 20.8393 1.07511 21.1178 1.28228 21.3223C1.48872 21.5261 1.76829 21.6059 2.0599 21.6059V20.8959ZM14.5709 20.8959H2.0599V21.6059H14.5709V20.8959ZM14.927 20.5479C14.927 20.7106 14.8828 20.7836 14.8489 20.8171C14.8143 20.8513 14.7381 20.8959 14.5709 20.8959V21.6059C14.8623 21.6059 15.1416 21.526 15.3479 21.3222C15.5548 21.1177 15.637 20.8393 15.637 20.5479H14.927ZM14.9243 17.5935L14.927 20.5482L15.637 20.5476L15.6343 17.5929L14.9243 17.5935ZM14.9239 17.2819L14.9243 17.5937L15.6343 17.5927L15.6339 17.2809L14.9239 17.2819Z" fill="#63686B"/>
<path d="M5.653 4.03107V1.92032C5.653 1.72317 5.49242 1.56348 5.29616 1.56348C5.09989 1.56348 4.93931 1.72406 4.93931 1.92032V4.03107C4.93931 4.22823 5.09989 4.38792 5.29616 4.38792C5.49242 4.38792 5.653 4.22823 5.653 4.03107Z" fill="#63686B" stroke="#63686B" stroke-width="0.71"/>
<path d="M11.3333 4.38881C11.5304 4.38881 11.6901 4.22823 11.6901 4.03196V1.92032C11.6901 1.72317 11.5295 1.56348 11.3333 1.56348C11.137 1.56348 10.9764 1.72406 10.9764 1.92032V4.03107C10.9764 4.22823 11.137 4.38881 11.3333 4.38881Z" fill="#63686B" stroke="#63686B" stroke-width="0.71"/>
<path d="M9.31959 4.38881C9.51675 4.38881 9.67644 4.22823 9.67644 4.03196V1.92032C9.67644 1.72317 9.51586 1.56348 9.31959 1.56348C9.12333 1.56348 8.96275 1.72406 8.96275 1.92032V4.03107C8.96275 4.22823 9.12333 4.38881 9.31959 4.38881Z" fill="#63686B" stroke="#63686B" stroke-width="0.71"/>
<path fill-rule="evenodd" clip-rule="evenodd" d="M9.91483 12.6592H11.1049C11.3021 12.6592 11.4627 12.8198 11.4618 13.0161V15.5006C11.4618 15.6969 11.3021 15.8575 11.1049 15.8575H9.91037V17.0368C9.91037 17.2331 9.75069 17.3937 9.55353 17.3937H7.07523C6.87896 17.3937 6.71838 17.234 6.71838 17.0368V15.8575H5.52384C5.32757 15.8575 5.16699 15.6978 5.16699 15.5006V13.0161C5.16699 12.8198 5.32668 12.6592 5.52384 12.6592H6.71392V11.4692C6.71392 11.2729 6.87361 11.1123 7.07077 11.1123H9.55799C9.75425 11.1123 9.91483 11.272 9.91483 11.4692V12.6592ZM9.5545 15.1448H10.7482V13.3749H9.55807C9.36181 13.3749 9.20123 13.2152 9.20123 13.018V11.8279H7.42859V13.018C7.42859 13.2143 7.2689 13.3749 7.07174 13.3749H5.88166V15.1448H7.0762C7.27247 15.1448 7.43305 15.3045 7.43305 15.5017V16.681H9.19766V15.5017C9.19766 15.3054 9.35735 15.1448 9.5545 15.1448Z" fill="#63686B"/>
<path d="M9.91483 12.6592H9.55983V13.0142H9.91483V12.6592ZM11.4618 13.0161L11.1068 13.0145V13.0161H11.4618ZM9.91037 15.8575V15.5025H9.55537V15.8575H9.91037ZM6.71838 15.8575H7.07338V15.5025H6.71838V15.8575ZM6.71392 12.6592V13.0142H7.06892V12.6592H6.71392ZM10.7482 15.1448V15.4998H11.1032V15.1448H10.7482ZM10.7482 13.3749H11.1032V13.0199H10.7482V13.3749ZM9.20123 11.8279H9.55623V11.4729H9.20123V11.8279ZM7.42859 11.8279V11.4729H7.07359V11.8279H7.42859ZM5.88166 13.3749V13.0199H5.52666V13.3749H5.88166ZM5.88166 15.1448H5.52666V15.4998H5.88166V15.1448ZM7.43305 16.681H7.07805V17.036H7.43305V16.681ZM9.19766 16.681V17.036H9.55266V16.681H9.19766ZM11.1049 12.3042H9.91483V13.0142H11.1049V12.3042ZM11.8168 13.0177C11.8186 12.6232 11.4972 12.3042 11.1049 12.3042V13.0142C11.1054 13.0142 11.1056 13.0143 11.1055 13.0143C11.1055 13.0143 11.1054 13.0142 11.1055 13.0143C11.1056 13.0143 11.1061 13.0145 11.1066 13.0151C11.1071 13.0156 11.1072 13.0159 11.1071 13.0156C11.1068 13.0151 11.1068 13.0144 11.1068 13.0145L11.8168 13.0177ZM11.8168 15.5006V13.0161H11.1068V15.5006H11.8168ZM11.1049 16.2125C11.4987 16.2125 11.8168 15.8924 11.8168 15.5006H11.1068C11.1068 15.501 11.1067 15.5011 11.1068 15.501C11.1068 15.501 11.1068 15.5009 11.1068 15.5009C11.1068 15.5008 11.1068 15.5008 11.1068 15.5008C11.1068 15.5009 11.1066 15.5013 11.106 15.5018C11.1055 15.5024 11.1051 15.5025 11.1052 15.5025C11.1055 15.5024 11.1056 15.5025 11.1049 15.5025V16.2125ZM9.91037 16.2125H11.1049V15.5025H9.91037V16.2125ZM10.2654 17.0368V15.8575H9.55537V17.0368H10.2654ZM9.55353 17.7487C9.94732 17.7487 10.2654 17.4286 10.2654 17.0368H9.55537C9.55537 17.0373 9.55534 17.0373 9.55536 17.0372C9.55537 17.0372 9.55538 17.0371 9.55539 17.0371C9.55541 17.0371 9.55541 17.037 9.55541 17.037C9.5554 17.0371 9.55519 17.0375 9.55465 17.0381C9.55411 17.0386 9.55372 17.0388 9.55377 17.0388C9.55406 17.0386 9.55422 17.0387 9.55353 17.0387V17.7487ZM7.07523 17.7487H9.55353V17.0387H7.07523V17.7487ZM6.36338 17.0368C6.36338 17.4306 6.68348 17.7487 7.07523 17.7487V17.0387C7.07482 17.0387 7.07474 17.0387 7.07485 17.0387C7.07489 17.0387 7.07493 17.0387 7.07497 17.0387C7.07501 17.0387 7.07503 17.0387 7.07503 17.0387C7.07499 17.0387 7.07456 17.0385 7.07401 17.038C7.07347 17.0374 7.07331 17.037 7.07333 17.0371C7.07345 17.0374 7.07338 17.0375 7.07338 17.0368H6.36338ZM6.36338 15.8575V17.0368H7.07338V15.8575H6.36338ZM5.52384 16.2125H6.71838V15.5025H5.52384V16.2125ZM4.81199 15.5006C4.81199 15.8944 5.13209 16.2125 5.52384 16.2125V15.5025C5.52343 15.5025 5.52335 15.5024 5.52346 15.5025C5.5235 15.5025 5.52354 15.5025 5.52358 15.5025C5.52362 15.5025 5.52364 15.5025 5.52364 15.5025C5.5236 15.5025 5.52317 15.5023 5.52262 15.5017C5.52208 15.5012 5.52192 15.5008 5.52194 15.5009C5.52206 15.5012 5.52199 15.5013 5.52199 15.5006H4.81199ZM4.81199 13.0161V15.5006H5.52199V13.0161H4.81199ZM5.52384 12.3042C5.13004 12.3042 4.81199 12.6243 4.81199 13.0161H5.52199C5.52199 13.0157 5.52203 13.0156 5.522 13.0157C5.522 13.0157 5.52199 13.0158 5.52197 13.0158C5.52196 13.0159 5.52195 13.0159 5.52195 13.0159C5.52197 13.0158 5.52218 13.0154 5.52272 13.0149C5.52326 13.0143 5.52365 13.0142 5.5236 13.0142C5.5233 13.0143 5.52315 13.0142 5.52384 13.0142V12.3042ZM6.71392 12.3042H5.52384V13.0142H6.71392V12.3042ZM6.35892 11.4692V12.6592H7.06892V11.4692H6.35892ZM7.07077 10.7573C6.67697 10.7573 6.35892 11.0774 6.35892 11.4692H7.06892C7.06892 11.4687 7.06896 11.4687 7.06893 11.4688C7.06893 11.4688 7.06892 11.4689 7.0689 11.4689C7.06889 11.4689 7.06888 11.469 7.06888 11.469C7.0689 11.4689 7.06911 11.4685 7.06965 11.4679C7.07019 11.4674 7.07058 11.4672 7.07053 11.4672C7.07023 11.4674 7.07008 11.4673 7.07077 11.4673V10.7573ZM9.55799 10.7573H7.07077V11.4673H9.55799V10.7573ZM10.2698 11.4692C10.2698 11.0754 9.94974 10.7573 9.55799 10.7573V11.4673C9.55839 11.4673 9.55848 11.4673 9.55837 11.4673C9.55833 11.4673 9.55829 11.4673 9.55825 11.4673C9.55821 11.4673 9.55819 11.4673 9.55819 11.4673C9.55823 11.4673 9.55866 11.4675 9.55921 11.468C9.55975 11.4686 9.55991 11.469 9.55989 11.4689C9.55977 11.4686 9.55983 11.4685 9.55983 11.4692H10.2698ZM10.2698 12.6592V11.4692H9.55983V12.6592H10.2698ZM10.7482 14.7898H9.5545V15.4998H10.7482V14.7898ZM10.3932 13.3749V15.1448H11.1032V13.3749H10.3932ZM9.55807 13.7299H10.7482V13.0199H9.55807V13.7299ZM8.84623 13.018C8.84623 13.4118 9.16632 13.7299 9.55807 13.7299V13.0199C9.55767 13.0199 9.55758 13.0198 9.55769 13.0198C9.55773 13.0198 9.55777 13.0199 9.55781 13.0199C9.55785 13.0199 9.55787 13.0199 9.55787 13.0199C9.55783 13.0199 9.5574 13.0197 9.55686 13.0191C9.55631 13.0186 9.55615 13.0182 9.55617 13.0182C9.55629 13.0185 9.55623 13.0187 9.55623 13.018H8.84623ZM8.84623 11.8279V13.018H9.55623V11.8279H8.84623ZM7.42859 12.1829H9.20123V11.4729H7.42859V12.1829ZM7.78359 13.018V11.8279H7.07359V13.018H7.78359ZM7.07174 13.7299C7.46554 13.7299 7.78359 13.4098 7.78359 13.018H7.07359C7.07359 13.0184 7.07355 13.0185 7.07358 13.0184C7.07359 13.0183 7.0736 13.0183 7.07361 13.0183C7.07362 13.0182 7.07363 13.0182 7.07363 13.0182C7.07361 13.0182 7.07341 13.0187 7.07286 13.0192C7.07232 13.0198 7.07193 13.0199 7.07198 13.0199C7.07228 13.0198 7.07243 13.0199 7.07174 13.0199V13.7299ZM5.88166 13.7299H7.07174V13.0199H5.88166V13.7299ZM6.23666 15.1448V13.3749H5.52666V15.1448H6.23666ZM7.0762 14.7898H5.88166V15.4998H7.0762V14.7898ZM7.78805 15.5017C7.78805 15.1079 7.46795 14.7898 7.0762 14.7898V15.4998C7.07661 15.4998 7.0767 15.4998 7.07658 15.4998C7.07654 15.4998 7.0765 15.4998 7.07646 15.4998C7.07642 15.4998 7.0764 15.4998 7.0764 15.4998C7.07644 15.4998 7.07687 15.5 7.07742 15.5005C7.07796 15.5011 7.07813 15.5015 7.07811 15.5014C7.07798 15.5011 7.07805 15.501 7.07805 15.5017H7.78805ZM7.78805 16.681V15.5017H7.07805V16.681H7.78805ZM9.19766 16.326H7.43305V17.036H9.19766V16.326ZM8.84266 15.5017V16.681H9.55266V15.5017H8.84266ZM9.5545 14.7898C9.16071 14.7898 8.84266 15.1099 8.84266 15.5017H9.55266C9.55266 15.5013 9.55269 15.5012 9.55267 15.5013C9.55266 15.5013 9.55265 15.5014 9.55264 15.5014C9.55263 15.5014 9.55262 15.5015 9.55262 15.5015C9.55263 15.5014 9.55284 15.501 9.55339 15.5004C9.55393 15.4999 9.55431 15.4997 9.55426 15.4998C9.55397 15.4999 9.55381 15.4998 9.5545 15.4998V14.7898Z" fill="#63686B"/>
</g>
</svg>
