<svg width="17" height="16" viewBox="0 0 17 16" fill="none" xmlns="http://www.w3.org/2000/svg">
<g clip-path="url(#clip0)">
<path d="M11.8346 14V12.6667C11.8346 11.9594 11.5537 11.2811 11.0536 10.781C10.5535 10.281 9.87521 10 9.16797 10H3.83464C3.12739 10 2.44911 10.281 1.94902 10.781C1.44892 11.2811 1.16797 11.9594 1.16797 12.6667V14" stroke="#3182CE" stroke-width="1.5" stroke-linecap="round" stroke-linejoin="round"/>
<path d="M6.4987 7.33333C7.97146 7.33333 9.16537 6.13943 9.16537 4.66667C9.16537 3.19391 7.97146 2 6.4987 2C5.02594 2 3.83203 3.19391 3.83203 4.66667C3.83203 6.13943 5.02594 7.33333 6.4987 7.33333Z" stroke="#3182CE" stroke-width="1.5" stroke-linecap="round" stroke-linejoin="round"/>
<path d="M15.832 14.0002V12.6669C15.8316 12.0761 15.6349 11.5021 15.2729 11.0351C14.9109 10.5682 14.4041 10.2346 13.832 10.0869" stroke="#3182CE" stroke-width="1.5" stroke-linecap="round" stroke-linejoin="round"/>
<path d="M11.168 2.08691C11.7416 2.23378 12.25 2.56738 12.6131 3.03512C12.9761 3.50286 13.1732 4.07813 13.1732 4.67025C13.1732 5.26236 12.9761 5.83763 12.6131 6.30537C12.25 6.77311 11.7416 7.10671 11.168 7.25358" stroke="#3182CE" stroke-width="1.5" stroke-linecap="round" stroke-linejoin="round"/>
</g>
<defs>
<clipPath id="clip0">
<rect width="16" height="16" fill="white" transform="translate(0.5)"/>
</clipPath>
</defs>
</svg>
