<svg width="17" height="16" viewBox="0 0 17 16" fill="none" xmlns="http://www.w3.org/2000/svg">
<path d="M2.5 4H3.83333H14.5" stroke="#E53E3E" stroke-width="1.5" stroke-linecap="round" stroke-linejoin="round"/>
<path d="M5.83203 4.00016V2.66683C5.83203 2.31321 5.97251 1.97407 6.22256 1.72402C6.4726 1.47397 6.81174 1.3335 7.16536 1.3335H9.83203C10.1857 1.3335 10.5248 1.47397 10.7748 1.72402C11.0249 1.97407 11.1654 2.31321 11.1654 2.66683V4.00016M13.1654 4.00016V13.3335C13.1654 13.6871 13.0249 14.0263 12.7748 14.2763C12.5248 14.5264 12.1857 14.6668 11.832 14.6668H5.16536C4.81174 14.6668 4.4726 14.5264 4.22256 14.2763C3.97251 14.0263 3.83203 13.6871 3.83203 13.3335V4.00016H13.1654Z" stroke="#E53E3E" stroke-width="1.5" stroke-linecap="round" stroke-linejoin="round"/>
<path d="M7.16797 7.3335V11.3335" stroke="#E53E3E" stroke-width="1.5" stroke-linecap="round" stroke-linejoin="round"/>
<path d="M9.83203 7.3335V11.3335" stroke="#E53E3E" stroke-width="1.5" stroke-linecap="round" stroke-linejoin="round"/>
</svg>
