<svg width="128" height="38" viewBox="0 0 128 38" fill="none" xmlns="http://www.w3.org/2000/svg">
<path d="M33 26C33 26.5304 32.7893 27.0391 32.4142 27.4142C32.0391 27.7893 31.5304 28 31 28H15C14.4696 28 13.9609 27.7893 13.5858 27.4142C13.2107 27.0391 13 26.5304 13 26V12C13 11.4696 13.2107 10.9609 13.5858 10.5858C13.9609 10.2107 14.4696 10 15 10H20L22 13H31C31.5304 13 32.0391 13.2107 32.4142 13.5858C32.7893 13.9609 33 14.4696 33 15V26Z" stroke="#0072BC" stroke-width="2" stroke-linecap="round" stroke-linejoin="round"/>
<path d="M23 18V24" stroke="#0072BC" stroke-width="2" stroke-linecap="round" stroke-linejoin="round"/>
<path d="M20 21H26" stroke="#0072BC" stroke-width="2" stroke-linecap="round" stroke-linejoin="round"/>
<path d="M46.009 14.378C46.093 14.378 46.163 14.3827 46.219 14.392C46.275 14.3967 46.324 14.4107 46.366 14.434C46.4127 14.4527 46.457 14.483 46.499 14.525C46.541 14.5623 46.5877 14.6137 46.639 14.679L51.952 21.448C51.9333 21.2847 51.9193 21.126 51.91 20.972C51.9053 20.8133 51.903 20.6663 51.903 20.531V14.378H53.562V24.5H52.589C52.4397 24.5 52.316 24.4767 52.218 24.43C52.12 24.3833 52.0243 24.2993 51.931 24.178L46.639 17.437C46.653 17.5863 46.6623 17.7357 46.667 17.885C46.6763 18.0297 46.681 18.1627 46.681 18.284V24.5H45.022V14.378H46.009ZM58.474 17.206C58.9267 17.206 59.342 17.2783 59.72 17.423C60.1027 17.5677 60.4317 17.78 60.707 18.06C60.9824 18.3353 61.197 18.676 61.351 19.082C61.505 19.4833 61.582 19.943 61.582 20.461C61.582 20.5917 61.575 20.7013 61.561 20.79C61.5517 20.874 61.5307 20.9417 61.498 20.993C61.47 21.0397 61.4304 21.0747 61.379 21.098C61.3277 21.1167 61.2624 21.126 61.183 21.126H56.745C56.7964 21.8633 56.9947 22.4047 57.34 22.75C57.6854 23.0953 58.1427 23.268 58.712 23.268C58.992 23.268 59.2324 23.2353 59.433 23.17C59.6384 23.1047 59.8157 23.0323 59.965 22.953C60.119 22.8737 60.252 22.8013 60.364 22.736C60.4807 22.6707 60.5927 22.638 60.7 22.638C60.77 22.638 60.8307 22.652 60.882 22.68C60.9334 22.708 60.9777 22.7477 61.015 22.799L61.519 23.429C61.3277 23.653 61.113 23.842 60.875 23.996C60.637 24.1453 60.3874 24.2667 60.126 24.36C59.8694 24.4487 59.6057 24.5117 59.335 24.549C59.069 24.5863 58.81 24.605 58.558 24.605C58.0587 24.605 57.5944 24.5233 57.165 24.36C56.7357 24.192 56.3624 23.947 56.045 23.625C55.7277 23.2983 55.478 22.897 55.296 22.421C55.114 21.9403 55.023 21.385 55.023 20.755C55.023 20.265 55.1024 19.8053 55.261 19.376C55.4197 18.942 55.646 18.5663 55.94 18.249C56.2387 17.927 56.6004 17.6727 57.025 17.486C57.4544 17.2993 57.9374 17.206 58.474 17.206ZM58.509 18.445C58.005 18.445 57.6107 18.5873 57.326 18.872C57.0414 19.1567 56.8594 19.5603 56.78 20.083H60.028C60.028 19.859 59.9977 19.649 59.937 19.453C59.8764 19.2523 59.783 19.0773 59.657 18.928C59.531 18.7787 59.3724 18.662 59.181 18.578C58.9897 18.4893 58.7657 18.445 58.509 18.445ZM62.1095 17.318H63.4815C63.6122 17.318 63.7219 17.3483 63.8105 17.409C63.8992 17.4697 63.9552 17.5467 63.9785 17.64L65.0075 21.476C65.0635 21.686 65.1079 21.8913 65.1405 22.092C65.1779 22.2927 65.2129 22.4933 65.2455 22.694C65.2969 22.4933 65.3505 22.2927 65.4065 22.092C65.4672 21.8913 65.5302 21.686 65.5955 21.476L66.7855 17.626C66.8135 17.5327 66.8695 17.4557 66.9535 17.395C67.0375 17.3343 67.1355 17.304 67.2475 17.304H68.0105C68.1365 17.304 68.2415 17.3343 68.3255 17.395C68.4095 17.4557 68.4655 17.5327 68.4935 17.626L69.6695 21.546C69.7302 21.7467 69.7839 21.9427 69.8305 22.134C69.8819 22.3207 69.9309 22.5097 69.9775 22.701C70.0102 22.5003 70.0452 22.2997 70.0825 22.099C70.1245 21.8983 70.1759 21.6907 70.2365 21.476L71.3005 17.64C71.3239 17.5467 71.3799 17.4697 71.4685 17.409C71.5572 17.3483 71.6599 17.318 71.7765 17.318H73.0855L70.8105 24.5H69.4175C69.2682 24.5 69.1609 24.3973 69.0955 24.192L67.8005 20.041C67.7585 19.9057 67.7189 19.7703 67.6815 19.635C67.6489 19.495 67.6209 19.3573 67.5975 19.222C67.5695 19.362 67.5392 19.502 67.5065 19.642C67.4739 19.7773 67.4365 19.915 67.3945 20.055L66.0855 24.192C66.0202 24.3973 65.8942 24.5 65.7075 24.5H64.3845L62.1095 17.318ZM83.2478 14.378V15.876H78.7608V18.872H82.5478V20.377H78.7608V24.5H76.8638V14.378H83.2478ZM87.242 17.206C87.7786 17.206 88.264 17.2923 88.698 17.465C89.1366 17.6377 89.51 17.8827 89.818 18.2C90.126 18.5173 90.364 18.9047 90.532 19.362C90.7 19.8193 90.784 20.3303 90.784 20.895C90.784 21.4643 90.7 21.9777 90.532 22.435C90.364 22.8923 90.126 23.282 89.818 23.604C89.51 23.926 89.1366 24.1733 88.698 24.346C88.264 24.5187 87.7786 24.605 87.242 24.605C86.7053 24.605 86.2176 24.5187 85.779 24.346C85.3403 24.1733 84.9646 23.926 84.652 23.604C84.344 23.282 84.1036 22.8923 83.931 22.435C83.763 21.9777 83.679 21.4643 83.679 20.895C83.679 20.3303 83.763 19.8193 83.931 19.362C84.1036 18.9047 84.344 18.5173 84.652 18.2C84.9646 17.8827 85.3403 17.6377 85.779 17.465C86.2176 17.2923 86.7053 17.206 87.242 17.206ZM87.242 23.275C87.8393 23.275 88.2803 23.0743 88.565 22.673C88.8543 22.2717 88.999 21.6837 88.999 20.909C88.999 20.1343 88.8543 19.544 88.565 19.138C88.2803 18.732 87.8393 18.529 87.242 18.529C86.6353 18.529 86.1873 18.7343 85.898 19.145C85.6086 19.551 85.464 20.139 85.464 20.909C85.464 21.679 85.6086 22.267 85.898 22.673C86.1873 23.0743 86.6353 23.275 87.242 23.275ZM93.974 14.098V24.5H92.245V14.098H93.974ZM100.988 24.5C100.764 24.5 100.617 24.395 100.547 24.185L100.407 23.492C100.257 23.66 100.101 23.8117 99.9378 23.947C99.7744 24.0823 99.5971 24.199 99.4058 24.297C99.2191 24.395 99.0161 24.4697 98.7968 24.521C98.5821 24.577 98.3488 24.605 98.0968 24.605C97.7048 24.605 97.3454 24.5233 97.0188 24.36C96.6921 24.1967 96.4098 23.961 96.1718 23.653C95.9384 23.3403 95.7564 22.9553 95.6258 22.498C95.4998 22.0407 95.4368 21.518 95.4368 20.93C95.4368 20.398 95.5091 19.9033 95.6538 19.446C95.7984 18.9887 96.0061 18.592 96.2768 18.256C96.5474 17.92 96.8718 17.6587 97.2498 17.472C97.6278 17.2807 98.0524 17.185 98.5238 17.185C98.9251 17.185 99.2681 17.2503 99.5528 17.381C99.8374 17.507 100.092 17.6773 100.316 17.892V14.098H102.045V24.5H100.988ZM98.6848 23.233C99.0441 23.233 99.3498 23.1583 99.6018 23.009C99.8538 22.8597 100.092 22.6473 100.316 22.372V19.152C100.12 18.914 99.9051 18.746 99.6718 18.648C99.4431 18.55 99.1958 18.501 98.9298 18.501C98.6684 18.501 98.4304 18.55 98.2158 18.648C98.0058 18.746 97.8261 18.8953 97.6768 19.096C97.5321 19.292 97.4201 19.544 97.3408 19.852C97.2614 20.1553 97.2218 20.5147 97.2218 20.93C97.2218 21.35 97.2544 21.707 97.3198 22.001C97.3898 22.2903 97.4878 22.5283 97.6138 22.715C97.7398 22.897 97.8938 23.03 98.0758 23.114C98.2578 23.1933 98.4608 23.233 98.6848 23.233ZM106.886 17.206C107.339 17.206 107.754 17.2783 108.132 17.423C108.515 17.5677 108.844 17.78 109.119 18.06C109.394 18.3353 109.609 18.676 109.763 19.082C109.917 19.4833 109.994 19.943 109.994 20.461C109.994 20.5917 109.987 20.7013 109.973 20.79C109.964 20.874 109.943 20.9417 109.91 20.993C109.882 21.0397 109.842 21.0747 109.791 21.098C109.74 21.1167 109.674 21.126 109.595 21.126H105.157C105.208 21.8633 105.407 22.4047 105.752 22.75C106.097 23.0953 106.555 23.268 107.124 23.268C107.404 23.268 107.644 23.2353 107.845 23.17C108.05 23.1047 108.228 23.0323 108.377 22.953C108.531 22.8737 108.664 22.8013 108.776 22.736C108.893 22.6707 109.005 22.638 109.112 22.638C109.182 22.638 109.243 22.652 109.294 22.68C109.345 22.708 109.39 22.7477 109.427 22.799L109.931 23.429C109.74 23.653 109.525 23.842 109.287 23.996C109.049 24.1453 108.799 24.2667 108.538 24.36C108.281 24.4487 108.018 24.5117 107.747 24.549C107.481 24.5863 107.222 24.605 106.97 24.605C106.471 24.605 106.006 24.5233 105.577 24.36C105.148 24.192 104.774 23.947 104.457 23.625C104.14 23.2983 103.89 22.897 103.708 22.421C103.526 21.9403 103.435 21.385 103.435 20.755C103.435 20.265 103.514 19.8053 103.673 19.376C103.832 18.942 104.058 18.5663 104.352 18.249C104.651 17.927 105.012 17.6727 105.437 17.486C105.866 17.2993 106.349 17.206 106.886 17.206ZM106.921 18.445C106.417 18.445 106.023 18.5873 105.738 18.872C105.453 19.1567 105.271 19.5603 105.192 20.083H108.44C108.44 19.859 108.41 19.649 108.349 19.453C108.288 19.2523 108.195 19.0773 108.069 18.928C107.943 18.7787 107.784 18.662 107.593 18.578C107.402 18.4893 107.178 18.445 106.921 18.445ZM111.397 24.5V17.318H112.412C112.589 17.318 112.713 17.3507 112.783 17.416C112.853 17.4813 112.899 17.5933 112.923 17.752L113.028 18.62C113.284 18.1767 113.585 17.8267 113.931 17.57C114.276 17.3133 114.663 17.185 115.093 17.185C115.447 17.185 115.741 17.2667 115.975 17.43L115.751 18.725C115.737 18.809 115.706 18.8697 115.66 18.907C115.613 18.9397 115.55 18.956 115.471 18.956C115.401 18.956 115.305 18.9397 115.184 18.907C115.062 18.8743 114.901 18.858 114.701 18.858C114.341 18.858 114.033 18.9583 113.777 19.159C113.52 19.355 113.303 19.6443 113.126 20.027V24.5H111.397Z" fill="#0072BC"/>
<rect x="1" y="1" width="126" height="36" rx="9" stroke="#0072BC" stroke-width="2"/>
</svg>
