<svg width="37" height="37" viewBox="0 0 37 37" fill="none" xmlns="http://www.w3.org/2000/svg">
<path d="M30.0625 16.1875C31.014 16.1875 31.9113 16.3682 32.7544 16.7295C33.5975 17.0908 34.3322 17.5907 34.9585 18.229C35.5848 18.8673 36.0786 19.6021 36.4399 20.4331C36.8013 21.2642 36.988 22.1615 37 23.125C37 24.0765 36.8193 24.9738 36.458 25.8169C36.0967 26.66 35.5968 27.3947 34.9585 28.021C34.3201 28.6473 33.5854 29.1411 32.7544 29.5024C31.9233 29.8638 31.026 30.0505 30.0625 30.0625C29.3398 30.0625 28.6353 29.9541 27.9487 29.7373C27.2622 29.5205 26.6299 29.2013 26.0518 28.7798C25.859 28.9725 25.5399 29.3037 25.0942 29.7734C24.6486 30.2432 24.1247 30.7852 23.5225 31.3994C22.9202 32.0137 22.3 32.646 21.6616 33.2964C21.0233 33.9468 20.403 34.549 19.8008 35.103C19.1986 35.6571 18.6867 36.1087 18.2651 36.458C17.8436 36.8073 17.5365 36.988 17.3438 37C17.0306 37 16.7596 36.8856 16.5308 36.6567C16.3019 36.4279 16.1875 36.1569 16.1875 35.8438C16.1875 35.6751 16.3621 35.368 16.7114 34.9224C17.0607 34.4767 17.5124 33.9648 18.0664 33.3867C18.6204 32.8086 19.2227 32.1943 19.873 31.5439C20.5234 30.8936 21.1558 30.2673 21.77 29.665C22.3843 29.0628 22.9263 28.5449 23.396 28.1113C23.8657 27.6777 24.203 27.3525 24.4077 27.1357C23.9862 26.5576 23.667 25.9253 23.4502 25.2388C23.2334 24.5522 23.125 23.8477 23.125 23.125C23.125 22.1735 23.3057 21.2762 23.667 20.4331C24.0283 19.59 24.5282 18.8553 25.1665 18.229C25.8048 17.6027 26.5396 17.1089 27.3706 16.7476C28.2017 16.3862 29.099 16.1995 30.0625 16.1875ZM30.0625 27.75C30.6888 27.75 31.285 27.6296 31.8511 27.3887C32.4172 27.1478 32.9049 26.8166 33.3145 26.395C33.724 25.9735 34.0552 25.4857 34.3081 24.9316C34.561 24.3776 34.6875 23.7754 34.6875 23.125C34.6875 22.4987 34.5671 21.9025 34.3262 21.3364C34.0853 20.7703 33.7541 20.2826 33.3325 19.873C32.911 19.4635 32.4172 19.1323 31.8511 18.8794C31.285 18.6265 30.6888 18.5 30.0625 18.5C29.4242 18.5 28.828 18.6204 28.2739 18.8613C27.7199 19.1022 27.2321 19.4334 26.8105 19.855C26.389 20.2765 26.0578 20.7703 25.8169 21.3364C25.576 21.9025 25.4495 22.4987 25.4375 23.125C25.4375 23.7633 25.5579 24.3595 25.7988 24.9136C26.0397 25.4676 26.3709 25.9554 26.7925 26.377C27.214 26.7985 27.7018 27.1297 28.2559 27.3706C28.8099 27.6115 29.4121 27.738 30.0625 27.75ZM4.625 25.4375V20.8125H0V0H27.75V4.625H32.375V14.2002C31.9896 14.1038 31.6042 14.0256 31.2188 13.9653C30.8333 13.9051 30.4479 13.875 30.0625 13.875V6.9375H6.9375V23.125H20.8125C20.8125 23.5104 20.8426 23.8958 20.9028 24.2812C20.9631 24.6667 21.0413 25.0521 21.1377 25.4375H4.625ZM4.625 18.5V4.625H25.4375V2.3125H2.3125V18.5H4.625Z" fill="#D0D0D0"/>
</svg>
