<svg width="61" height="52" viewBox="0 0 61 52" fill="none" xmlns="http://www.w3.org/2000/svg">
<path d="M9.8378 18.742H29.0922C29.6695 18.742 30.1385 18.2731 30.1385 17.6957C30.1385 17.1184 29.6695 16.6494 29.0922 16.6494H9.8378C9.26045 16.6494 8.7915 17.1184 8.7915 17.6957C8.7915 18.2731 9.25793 18.742 9.8378 18.742Z" fill="black" fill-opacity="0.17"/>
<path d="M9.8378 25.2518H29.0922C29.6695 25.2518 30.1385 24.7828 30.1385 24.2055C30.1385 23.6281 29.6695 23.1592 29.0922 23.1592H9.8378C9.26045 23.1592 8.7915 23.6281 8.7915 24.2055C8.7915 24.7828 9.25793 25.2518 9.8378 25.2518Z" fill="black" fill-opacity="0.17"/>
<path d="M30.1385 30.7152C30.1385 30.1379 29.6695 29.6689 29.0922 29.6689H9.8378C9.26045 29.6689 8.7915 30.1379 8.7915 30.7152C8.7915 31.2926 9.26045 31.7615 9.8378 31.7615H29.0922C29.6695 31.7641 30.1385 31.2951 30.1385 30.7152Z" fill="black" fill-opacity="0.17"/>
<path d="M19.4663 36.1787H9.8378C9.26045 36.1787 8.7915 36.6477 8.7915 37.225C8.7915 37.8024 9.26045 38.2713 9.8378 38.2713H19.4663C20.0436 38.2713 20.5125 37.8024 20.5125 37.225C20.5125 36.6477 20.0436 36.1787 19.4663 36.1787Z" fill="black" fill-opacity="0.17"/>
<path d="M45.253 37.6456L33.247 40.7921C32.6873 40.9383 32.3545 41.5106 32.5007 42.0703C32.6243 42.5418 33.0478 42.8519 33.5117 42.8519C33.6 42.8519 33.6882 42.8418 33.779 42.8166L45.7849 39.6702C46.3446 39.5239 46.6774 38.9516 46.5312 38.3919C46.385 37.8322 45.8152 37.4969 45.253 37.6456Z" fill="black" fill-opacity="0.17"/>
<path d="M57.7846 20.825C53.96 17.023 47.7503 17.0004 43.9357 20.7645C41.7095 22.9655 40.7035 26.0313 41.1069 29.0668C40.5901 28.9937 40.0682 28.9458 39.5387 28.9458C39.5261 28.9458 39.516 28.9458 39.5059 28.9458C38.9891 28.9483 38.4949 29.0315 37.9957 29.1021V28.1087L37.9907 12.563C37.9882 9.3107 36.183 6.6458 33.503 5.92978C32.6962 5.71548 31.897 5.72808 31.1936 5.74069L30.6515 5.74573C30.6465 5.74573 30.6414 5.74573 30.6389 5.74573L30.1952 5.74069C29.7514 5.73565 29.3052 5.7306 28.8514 5.73817C28.8589 5.26418 28.8488 4.7902 28.8362 4.31621C28.7656 1.9236 27.084 0.0327014 25.0116 0.0125318C23.7308 -7.4183e-05 22.4551 -7.4237e-05 21.1743 0.00496816L19.3944 0.0100108L17.7581 0.00496816C16.4799 -0.00259543 15.2016 -0.00259538 13.9208 0.0125318C11.8484 0.0327014 10.1693 1.9236 10.0987 4.31621C10.0861 4.78264 10.0735 5.2541 10.0836 5.73817C9.63229 5.73313 9.18856 5.73817 8.73726 5.74069L8.40699 5.74321C8.34144 5.74321 8.25067 5.74321 8.19521 5.74321L7.73383 5.74069C7.03041 5.72808 6.22867 5.71548 5.42441 5.92978C2.74438 6.6458 0.939204 9.3107 0.936683 12.563L0.931641 27.0171L0.934162 32.4376L0.931641 37.2758L0.936683 44.5923C0.944247 48.4472 3.45536 51.3617 6.78334 51.3693L16.2378 51.3718L19.5355 51.3693L22.6845 51.3718L32.139 51.3693C33.203 51.3668 34.2039 51.0516 35.0838 50.4793C36.42 51.0567 37.8495 51.3743 39.2841 51.3743C39.3471 51.3743 39.4127 51.3718 39.4757 51.3718C42.4204 51.4828 45.2971 50.2423 47.4049 48.1674C49.5302 46.0748 50.7076 43.2485 50.7202 40.2029C50.7227 39.3054 50.5891 38.4406 50.395 37.5935C50.5488 37.601 50.7051 37.6263 50.8564 37.6263C53.4179 37.6263 55.8736 36.6153 57.7544 34.7496C59.6301 32.8889 60.6638 30.4358 60.6638 27.844C60.6714 25.2068 59.62 22.6504 57.7846 20.825ZM12.1913 4.37672C12.2291 3.1136 12.9981 2.11521 13.9435 2.10512C15.2142 2.09252 16.4849 2.09756 17.7505 2.10008L19.5406 2.10512L21.1794 2.10008C22.4475 2.09504 23.7182 2.09252 24.9864 2.10512C25.9318 2.11521 26.7033 3.1136 26.7386 4.37672C26.7512 4.83054 26.7487 5.28688 26.7411 5.74321C22.566 5.74321 16.3714 5.74069 12.1888 5.74069C12.1812 5.28687 12.1787 4.83306 12.1913 4.37672ZM32.1415 49.2717L22.6921 49.2742L19.3918 49.2717L16.2403 49.2742L6.7909 49.2717C4.61763 49.2666 3.03684 47.2976 3.0318 44.5873L3.02675 37.2758L3.0318 12.563C3.03432 10.236 4.18398 8.42829 5.96395 7.95178C6.49088 7.81563 7.07832 7.82572 7.69853 7.83328H7.75904C7.7666 7.83328 7.77165 7.83833 7.77921 7.83833C7.81955 7.83833 7.98343 7.83833 8.2179 7.83833H8.29858H8.39186C8.61877 7.83833 8.89106 7.83833 9.23142 7.83833C9.68019 7.8358 10.1315 7.83076 10.5752 7.84589C10.5954 7.84589 10.608 7.83833 10.6282 7.83833C15.131 7.83833 23.8065 7.83833 28.3017 7.84085C28.3194 7.84085 28.332 7.84841 28.3497 7.84841C28.7203 7.8358 29.0909 7.84085 29.4615 7.84337C30.4977 7.84337 31.1608 7.84337 31.1608 7.84337V7.8358H31.2314C31.8541 7.82572 32.4416 7.81816 32.966 7.95682C34.7459 8.43081 35.8956 10.241 35.8981 12.5681L35.9006 29.6038C31.5087 31.114 28.3068 35.2185 28.2765 40.0794C28.2564 43.1376 29.4464 46.0067 31.6247 48.1573C32.0029 48.5304 32.4264 48.8405 32.8475 49.1532C32.6155 49.1986 32.3886 49.2717 32.1415 49.2717ZM45.9426 46.6698C44.2281 48.354 41.8733 49.2792 39.4757 49.2742C37.1285 49.3095 34.8266 48.364 33.0996 46.6597C31.3272 44.91 30.359 42.5754 30.3742 40.0869C30.4044 35.1126 34.5039 31.0535 39.5135 31.0384C39.5236 31.0384 39.5312 31.0384 39.5387 31.0384C43.2474 31.0384 46.7443 33.4436 48.0478 36.8926C48.4385 37.9263 48.6352 39.0381 48.6327 40.1928C48.6201 42.6737 47.6671 44.973 45.9426 46.6698ZM56.2845 33.2595C54.5298 35.0017 52.1523 35.8034 49.7395 35.4479C49.7168 35.4454 49.6966 35.453 49.6739 35.453C48.4133 32.7251 46.114 30.6526 43.3432 29.6442C42.6877 26.9843 43.444 24.1958 45.4081 22.2545C48.4058 19.2921 53.2969 19.3173 56.3072 22.31C57.7493 23.742 58.5763 25.759 58.5737 27.839C58.5763 29.2761 58.1779 31.3813 56.2845 33.2595Z" fill="black" fill-opacity="0.17"/>
<path d="M55.9547 29.6224L46.7069 24.2144C46.2052 23.9194 45.5648 24.0934 45.2749 24.5901C44.9824 25.0893 45.1513 25.7322 45.6505 26.0221L54.8983 31.4301C55.0647 31.5284 55.2462 31.5738 55.4252 31.5738C55.7857 31.5738 56.1362 31.3872 56.3303 31.0569C56.6203 30.5552 56.4513 29.9123 55.9547 29.6224Z" fill="black" fill-opacity="0.17"/>
</svg>
