<svg xmlns="http://www.w3.org/2000/svg" xmlns:xlink="http://www.w3.org/1999/xlink" version="1.1" x="0px" y="0px" viewBox="0 0 32 40" enable-background="new 0 0 32 32" xml:space="preserve"><path d="M27,12H5c-1.654,0-3,1.346-3,3s1.346,3,3,3h1v8c0,2.206,1.794,4,4,4h12c2.206,0,4-1.794,4-4v-8h1c1.654,0,3-1.346,3-3  S28.654,12,27,12z M22,28H10c-1.103,0-2-0.897-2-2v-3.855h16V26C24,27.103,23.103,28,22,28z M24,20.145H8V18h16V20.145z M27,16H5  c-0.552,0-1-0.449-1-1s0.448-1,1-1h22c0.552,0,1,0.449,1,1S27.552,16,27,16z M15,9.789V3c0-0.552,0.447-1,1-1s1,0.448,1,1v6.789  c0,0.552-0.447,1-1,1S15,10.341,15,9.789z M20.265,9.971c-0.391-0.39-0.391-1.023,0-1.414l2.891-2.891  c0.391-0.391,1.023-0.391,1.414,0c0.391,0.39,0.391,1.023,0,1.414l-2.891,2.891c-0.195,0.195-0.451,0.293-0.707,0.293  S20.46,10.167,20.265,9.971z M7.431,7.235c-0.391-0.391-0.391-1.023,0-1.414s1.023-0.391,1.414,0l2.781,2.781  c0.391,0.391,0.391,1.023,0,1.414c-0.195,0.195-0.451,0.293-0.707,0.293s-0.512-0.098-0.707-0.293L7.431,7.235z"/><text x="0" y="47" fill="#000000" font-size="5px" font-weight="bold" font-family="'Helvetica Neue', Helvetica, Arial-Unicode, Arial, Sans-serif">Created by Surya Lesmana</text><text x="0" y="52" fill="#000000" font-size="5px" font-weight="bold" font-family="'Helvetica Neue', Helvetica, Arial-Unicode, Arial, Sans-serif">from the Noun Project</text></svg>