<svg width="23" height="27" viewBox="0 0 23 27" fill="none" xmlns="http://www.w3.org/2000/svg">
<path d="M14.9911 17.8339H13.4675V16.3134C13.4675 16.106 13.3851 15.907 13.2384 15.7603C13.0917 15.6137 12.8928 15.5312 12.6853 15.5312H10.9208C10.7133 15.5312 10.5144 15.6137 10.3677 15.7603C10.221 15.907 10.1386 16.106 10.1386 16.3134V17.8339H8.6181C8.41065 17.8339 8.21171 17.9163 8.06503 18.063C7.91834 18.2097 7.83594 18.4086 7.83594 18.6161V20.3806C7.83594 20.5881 7.91834 20.787 8.06503 20.9337C8.21171 21.0804 8.41065 21.1628 8.6181 21.1628H10.1417V22.6864C10.1417 22.8939 10.2241 23.0928 10.3708 23.2395C10.5175 23.3862 10.7165 23.4686 10.9239 23.4686H12.6885C12.8959 23.4686 13.0948 23.3862 13.2415 23.2395C13.3882 23.0928 13.4706 22.8939 13.4706 22.6864V21.1659H14.9943C15.2017 21.1659 15.4006 21.0835 15.5473 20.9368C15.694 20.7902 15.7764 20.5912 15.7764 20.3838V18.6161C15.7764 18.5131 15.7561 18.4111 15.7166 18.316C15.6771 18.2209 15.6192 18.1346 15.5462 18.0619C15.4733 17.9892 15.3867 17.9317 15.2914 17.8926C15.1962 17.8534 15.0941 17.8335 14.9911 17.8339ZM14.8347 20.2242H13.3142C13.1067 20.2242 12.9078 20.3066 12.7611 20.4533C12.6144 20.6 12.532 20.7989 12.532 21.0064V22.53H11.0772V21.0095C11.0772 20.8021 10.9948 20.6031 10.8481 20.4564C10.7014 20.3097 10.5025 20.2273 10.295 20.2273H8.77453V18.7725H10.2982C10.5056 18.7725 10.7046 18.6901 10.8512 18.5434C10.9979 18.3967 11.0803 18.1978 11.0803 17.9904V16.4698H12.5289V17.9904C12.5289 18.1978 12.6113 18.3967 12.758 18.5434C12.9047 18.6901 13.1036 18.7725 13.311 18.7725H14.8347V20.2242Z" fill="#0072BC" stroke="#0072BC"/>
<path d="M15.9015 4.94238H7.70758C7.58311 4.94238 7.46374 4.99183 7.37573 5.07984C7.28772 5.16785 7.23828 5.28721 7.23828 5.41168C7.23828 5.53614 7.28772 5.65551 7.37573 5.74352C7.46374 5.83153 7.58311 5.88097 7.70758 5.88097H15.9046C16.0291 5.88097 16.1484 5.83153 16.2364 5.74352C16.3245 5.65551 16.3739 5.53614 16.3739 5.41168C16.3739 5.28721 16.3245 5.16785 16.2364 5.07984C16.1484 4.99183 16.0291 4.94238 15.9046 4.94238H15.9015Z" fill="#0072BC" stroke="#0072BC"/>
<path d="M15.9015 8.19531H7.70758C7.58311 8.19531 7.46374 8.24476 7.37573 8.33277C7.28772 8.42078 7.23828 8.54014 7.23828 8.66461C7.23828 8.78907 7.28772 8.90844 7.37573 8.99645C7.46374 9.08446 7.58311 9.1339 7.70758 9.1339H15.9046C16.0291 9.1339 16.1484 9.08446 16.2364 8.99645C16.3245 8.90844 16.3739 8.78907 16.3739 8.66461C16.3739 8.54014 16.3245 8.42078 16.2364 8.33277C16.1484 8.24476 16.0291 8.19531 15.9046 8.19531H15.9015Z" fill="#0072BC" stroke="#0072BC"/>
<path d="M15.9015 11.4302H7.70758C7.58311 11.4302 7.46374 11.4796 7.37573 11.5676C7.28772 11.6556 7.23828 11.775 7.23828 11.8995C7.23828 12.0239 7.28772 12.1433 7.37573 12.2313C7.46374 12.3193 7.58311 12.3688 7.70758 12.3688H15.9046C16.0291 12.3688 16.1484 12.3193 16.2364 12.2313C16.3245 12.1433 16.3739 12.0239 16.3739 11.8995C16.3739 11.775 16.3245 11.6556 16.2364 11.5676C16.1484 11.4796 16.0291 11.4302 15.9046 11.4302H15.9015Z" fill="#0072BC" stroke="#0072BC"/>
<path d="M3.48106 26.0293H18.4078C18.8639 26.0284 19.3011 25.8469 19.6236 25.5244C19.9461 25.2018 20.1277 24.7646 20.1285 24.3085V21.9308H21.3143C21.6194 21.9299 21.9118 21.8084 22.1275 21.5926C22.3432 21.3769 22.4648 21.0845 22.4656 20.7794V17.704C22.4622 17.4569 22.3788 17.2176 22.2278 17.0219C22.3819 16.8241 22.4665 16.5812 22.4688 16.3305V13.2644C22.4658 13.0148 22.3812 12.7731 22.2278 12.5761C22.3755 12.3793 22.4556 12.1401 22.4562 11.8941V8.82177C22.4549 8.57683 22.3748 8.33881 22.2278 8.14286C22.3755 7.94605 22.4556 7.70683 22.4562 7.46081V4.38537C22.4554 4.08027 22.3338 3.7879 22.1181 3.57216C21.9024 3.35642 21.61 3.23485 21.3049 3.23403H20.1285V2.5645C20.1277 2.10838 19.9461 1.67118 19.6236 1.34866C19.3011 1.02614 18.8639 0.844577 18.4078 0.84375H2.67387C2.21776 0.844577 1.78056 1.02614 1.45803 1.34866C1.13551 1.67118 0.953952 2.10838 0.953125 2.5645V24.3085C0.953952 24.7646 1.13551 25.2018 1.45803 25.5244C1.78056 25.8469 2.21776 26.0284 2.67387 26.0293H3.48106ZM20.1285 4.17262H21.3143C21.3707 4.17262 21.4248 4.19503 21.4647 4.23493C21.5046 4.27483 21.527 4.32894 21.527 4.38537V7.45769C21.527 7.51411 21.5046 7.56822 21.4647 7.60812C21.4248 7.64802 21.3707 7.67043 21.3143 7.67043H20.1285V4.17262ZM20.1285 8.61215H21.3143C21.3707 8.61215 21.4248 8.63457 21.4647 8.67446C21.5046 8.71436 21.527 8.76847 21.527 8.8249V11.8972C21.527 11.9536 21.5046 12.0078 21.4647 12.0477C21.4248 12.0876 21.3707 12.11 21.3143 12.11H20.1285V8.61215ZM20.1285 13.0517H21.3143C21.3707 13.0517 21.4248 13.0741 21.4647 13.114C21.5046 13.1539 21.527 13.208 21.527 13.2644V16.3305C21.527 16.3869 21.5046 16.441 21.4647 16.4809C21.4248 16.5208 21.3707 16.5432 21.3143 16.5432H20.1285V13.0517ZM20.1285 17.4912H21.3143C21.3707 17.4912 21.4248 17.5136 21.4647 17.5535C21.5046 17.5934 21.527 17.6475 21.527 17.704V20.7763C21.527 20.8042 21.5215 20.8319 21.5108 20.8577C21.5001 20.8835 21.4845 20.907 21.4647 20.9267C21.445 20.9465 21.4215 20.9622 21.3957 20.9728C21.3699 20.9835 21.3422 20.989 21.3143 20.989H20.1285V17.4912ZM4.41965 1.78234H18.4078C18.6152 1.78234 18.8142 1.86475 18.9609 2.01143C19.1075 2.15811 19.1899 2.35706 19.1899 2.5645V24.3085C19.1899 24.516 19.1075 24.7149 18.9609 24.8616C18.8142 25.0083 18.6152 25.0907 18.4078 25.0907H4.41965V1.78234ZM1.89172 24.3085V2.5645C1.89172 2.35706 1.97412 2.15811 2.1208 2.01143C2.26749 1.86475 2.46643 1.78234 2.67387 1.78234H3.431V25.0907H2.67387C2.46643 25.0907 2.26749 25.0083 2.1208 24.8616C1.97412 24.7149 1.89172 24.516 1.89172 24.3085Z" fill="#0072BC" stroke="#0072BC"/>
</svg>
