<svg width="17" height="20" viewBox="0 0 17 20" fill="none" xmlns="http://www.w3.org/2000/svg">
<path fill-rule="evenodd" clip-rule="evenodd" d="M1.13126 18.3517L1.13126 16.8109C1.13126 16.4519 1.42295 16.1597 1.78246 16.1597C2.14117 16.1597 2.43366 16.4519 2.43366 16.8109V17.7005H15.3657L15.3657 1.96686L2.43366 1.96686V2.78073C2.43366 3.13997 2.14117 3.43193 1.78246 3.43193C1.42295 3.43193 1.13126 3.13997 1.13126 2.78073L1.13126 1.3154C1.13126 0.956686 1.42295 0.664202 1.78246 0.664202L16.0169 0.664202C16.3759 0.664202 16.6681 0.956686 16.6681 1.3154L16.6681 18.3517C16.6681 18.7112 16.3759 19.0029 16.0169 19.0029L1.78246 19.0029C1.42295 19.0029 1.13126 18.7112 1.13126 18.3517ZM0.466797 15.0057C0.466797 14.6467 0.758485 14.3545 1.118 14.3545H2.56292C2.9219 14.3545 3.21412 14.6467 3.21412 15.0057C3.21412 15.3652 2.9219 15.6569 2.56292 15.6569H1.118C0.758485 15.6569 0.466797 15.3652 0.466797 15.0057ZM9.18781 5.09608C6.81191 5.09608 4.88322 7.02451 4.88322 9.4004C4.88322 11.7766 6.81191 13.7047 9.18781 13.7047C11.5637 13.7047 13.4924 11.7766 13.4924 9.4004C13.4924 7.02451 11.5637 5.09608 9.18781 5.09608ZM0.466797 12.9211C0.466797 12.5624 0.758485 12.2699 1.118 12.2699H2.56292C2.9219 12.2699 3.21412 12.5624 3.21412 12.9211C3.21412 13.2806 2.9219 13.5723 2.56292 13.5723H1.118C0.758485 13.5723 0.466797 13.2806 0.466797 12.9211ZM11.7217 8.92726L9.31988 11.3296C9.05839 11.5911 8.63053 11.5827 8.38044 11.3098L6.92862 9.73185C6.68515 9.46745 6.70237 9.05522 6.96703 8.81201C7.23144 8.56854 7.64367 8.58576 7.88661 8.85043L8.87877 9.92869L10.8006 8.00636C11.0549 7.75229 11.4674 7.75229 11.7217 8.00636C11.9758 8.26043 11.9758 8.67319 11.7217 8.92726ZM0.466797 10.8366C0.466797 10.4776 0.758485 10.1851 1.118 10.1851H2.56292C2.9219 10.1851 3.21412 10.4776 3.21412 10.8366C3.21412 11.1958 2.9219 11.4878 2.56292 11.4878H1.118C0.758485 11.4878 0.466797 11.1958 0.466797 10.8366ZM1.118 8.10205C0.758485 8.10205 0.466797 8.39427 0.466797 8.75325C0.466797 9.11276 0.758485 9.40445 1.118 9.40445H2.56292C2.9219 9.40445 3.21412 9.11276 3.21412 8.75325C3.21412 8.39427 2.9219 8.10205 2.56292 8.10205H1.118ZM0.466797 6.66994C0.466797 6.31096 0.758485 6.01874 1.118 6.01874H2.56292C2.9219 6.01874 3.21412 6.31096 3.21412 6.66994C3.21412 7.02945 2.9219 7.32114 2.56292 7.32114H1.118C0.758485 7.32114 0.466797 7.02945 0.466797 6.66994ZM1.118 3.93418C0.758485 3.93418 0.466797 4.22666 0.466797 4.58537C0.466797 4.94488 0.758485 5.23657 1.118 5.23657H2.56292C2.9219 5.23657 3.21412 4.94488 3.21412 4.58537C3.21412 4.22666 2.9219 3.93418 2.56292 3.93418H1.118Z" fill="#63686B"/>
</svg>
