<svg width="46" height="43" viewBox="0 0 46 43" fill="none" xmlns="http://www.w3.org/2000/svg">
<g filter="url(#filter0_d)">
<circle cx="23" cy="17" r="12" fill="white"/>
</g>
<path fill-rule="evenodd" clip-rule="evenodd" d="M26.3659 15.3195C26.3659 18.8798 27.651 21.007 28.8937 21.007C29.2425 21.007 29.5256 21.2901 29.5256 21.6389C29.5256 21.9877 29.2425 22.2708 28.8937 22.2708H25.6505C25.369 23.3591 24.3816 24.1667 23.2062 24.1667C22.0308 24.1667 21.0433 23.3591 20.7615 22.2708H17.5187C17.1698 22.2708 16.8867 21.9877 16.8867 21.6389C16.8867 21.2901 17.1698 21.007 17.5187 21.007C18.7614 21.007 20.0464 18.8798 20.0464 15.3195V14.6875C20.0464 13.1617 21.1337 11.8851 22.5742 11.5916V9.63195C22.5742 9.28311 22.8573 9 23.2062 9C23.555 9 23.8381 9.28311 23.8381 9.63195V11.5916C25.2786 11.8851 26.3659 13.1617 26.3659 14.6875V15.3195ZM24.4702 14.6875C24.4702 13.9905 23.9033 13.4236 23.2063 13.4236C22.8575 13.4236 22.5744 13.7058 22.5744 14.0549C22.5744 14.4041 22.8575 14.6866 23.2063 14.6866V14.6875C23.2063 15.0364 23.4894 15.3195 23.8383 15.3195C24.1871 15.3195 24.4702 15.0364 24.4702 14.6875Z" fill="#3A3A3A"/>
<defs>
<filter id="filter0_d" x="0" y="-3" width="46" height="46" filterUnits="userSpaceOnUse" color-interpolation-filters="sRGB">
<feFlood flood-opacity="0" result="BackgroundImageFix"/>
<feColorMatrix in="SourceAlpha" type="matrix" values="0 0 0 0 0 0 0 0 0 0 0 0 0 0 0 0 0 0 127 0"/>
<feOffset dy="3"/>
<feGaussianBlur stdDeviation="5.5"/>
<feColorMatrix type="matrix" values="0 0 0 0 0 0 0 0 0 0 0 0 0 0 0 0 0 0 0.23 0"/>
<feBlend mode="normal" in2="BackgroundImageFix" result="effect1_dropShadow"/>
<feBlend mode="normal" in="SourceGraphic" in2="effect1_dropShadow" result="shape"/>
</filter>
</defs>
</svg>
