<svg width="16" height="16" viewBox="0 0 16 16" fill="none" xmlns="http://www.w3.org/2000/svg">
<path d="M2.08335 0.000814232C1.93886 0.0163319 1.80517 0.0863286 1.70823 0.197206C1.6113 0.308083 1.55805 0.451924 1.55882 0.600784V4.00061H0.582967C0.562651 3.99953 0.542293 3.99953 0.521976 4.00061C0.445465 4.00918 0.371352 4.03311 0.303877 4.07105C0.236402 4.10899 0.176888 4.16019 0.128738 4.22172C0.0805886 4.28324 0.0447487 4.3539 0.0232681 4.42963C0.00178745 4.50536 -0.0049124 4.58469 0.00355169 4.66308L1.17458 15.4625C1.18961 15.6095 1.25705 15.7456 1.36397 15.8448C1.4709 15.944 1.60977 15.9993 1.754 16H14.245C14.3873 15.9996 14.5247 15.9461 14.6313 15.8495C14.7379 15.7529 14.8066 15.6197 14.8244 15.475L15.9954 6.47548C16.0058 6.39116 15.9985 6.30555 15.9742 6.22431C15.9498 6.14307 15.9089 6.06806 15.8541 6.00424C15.7993 5.94043 15.7319 5.88927 15.6564 5.85415C15.5809 5.81903 15.4989 5.80075 15.416 5.80052H14.4401V0.600784C14.4401 0.441667 14.3784 0.289072 14.2686 0.176559C14.1588 0.0640462 14.0099 0.000830141 13.8546 0.000814232H2.14434C2.12402 -0.000271411 2.10366 -0.000271411 2.08335 0.000814232ZM2.72985 1.20075H13.2691V5.80052H8.39593L6.20635 4.11935C6.10417 4.0414 5.97998 3.99971 5.8526 4.00061H2.72985V1.20075ZM3.83989 2.00071C3.76299 2.0048 3.68763 2.02438 3.61811 2.05831C3.5486 2.09225 3.48628 2.13989 3.43473 2.1985C3.38319 2.25712 3.34341 2.32556 3.31768 2.39993C3.29195 2.4743 3.28077 2.55314 3.28477 2.63194C3.28878 2.71073 3.30789 2.78795 3.34102 2.85918C3.37415 2.93041 3.42065 2.99425 3.47787 3.04706C3.53508 3.09987 3.60188 3.14062 3.67446 3.16697C3.74705 3.19332 3.82398 3.20477 3.90088 3.20065H12.0981C12.1757 3.20178 12.2527 3.18709 12.3247 3.15744C12.3967 3.12779 12.4622 3.08378 12.5175 3.02796C12.5727 2.97213 12.6166 2.90561 12.6466 2.83226C12.6765 2.75891 12.6919 2.68019 12.6919 2.60068C12.6919 2.52117 12.6765 2.44245 12.6466 2.3691C12.6166 2.29575 12.5727 2.22923 12.5175 2.17341C12.4622 2.11758 12.3967 2.07357 12.3247 2.04392C12.2527 2.01428 12.1757 1.99959 12.0981 2.00071H3.90088C3.88057 1.99963 3.86021 1.99963 3.83989 2.00071ZM8.52401 3.80062C8.44711 3.80471 8.37175 3.82428 8.30223 3.85822C8.23271 3.89216 8.1704 3.93979 8.11885 3.99841C8.0673 4.05703 8.02752 4.12547 8.00179 4.19984C7.97606 4.27421 7.96488 4.35305 7.96889 4.43184C7.97289 4.51064 7.992 4.58786 8.02514 4.65909C8.05827 4.73032 8.10477 4.79416 8.16198 4.84697C8.21919 4.89978 8.286 4.94053 8.35858 4.96688C8.43116 4.99323 8.5081 5.00468 8.585 5.00056H12.0981C12.1757 5.00168 12.2527 4.987 12.3247 4.95735C12.3967 4.9277 12.4622 4.88369 12.5175 4.82786C12.5727 4.77204 12.6166 4.70552 12.6466 4.63217C12.6765 4.55882 12.6919 4.4801 12.6919 4.40059C12.6919 4.32108 12.6765 4.24236 12.6466 4.16901C12.6166 4.09566 12.5727 4.02914 12.5175 3.97332C12.4622 3.91749 12.3967 3.87348 12.3247 3.84383C12.2527 3.81418 12.1757 3.7995 12.0981 3.80062H8.585C8.56468 3.79954 8.54432 3.79954 8.52401 3.80062ZM1.23557 5.20055H5.66353L7.84091 6.87546C7.94231 6.95565 8.06657 6.99956 8.19465 7.00046H14.7451L13.7326 14.8001H2.27852L1.23557 5.20055Z" fill="#0072BC"/>
</svg>
