<svg width="16" height="20" viewBox="0 0 16 20" fill="none" xmlns="http://www.w3.org/2000/svg">
<path fill-rule="evenodd" clip-rule="evenodd" d="M11.9506 9.26904C12.8252 10.5933 13.9192 12.2498 14.9342 14.7799C14.9816 14.8979 15.034 15.0197 15.0877 15.1442L15.0877 15.1442L15.0877 15.1443C15.8123 16.8269 16.7487 19.0013 8.14442 19.0013C-0.463164 19.0013 0.477282 16.8252 1.20457 15.1423C1.25809 15.0185 1.31045 14.8973 1.35777 14.7799C2.3691 12.2404 3.46709 10.581 4.34497 9.25421C5.32817 7.76828 6.03527 6.69964 6.03527 5.27921V2.11232H5.5064C5.36614 2.11232 5.23162 2.0566 5.13243 1.95741C5.03325 1.85823 4.97753 1.72371 4.97753 1.58345V0.528871C4.97753 0.388606 5.03325 0.254085 5.13243 0.154903C5.23162 0.0557202 5.36614 0 5.5064 0H10.7824C10.9227 0 11.0572 0.0557202 11.1564 0.154903C11.2556 0.254085 11.3113 0.388606 11.3113 0.528871V1.58345C11.3113 1.8743 11.0765 2.11057 10.7856 2.11232H10.2567V5.27921C10.2567 6.70436 10.9641 7.77538 11.9506 9.26904ZM9.89459 11.5441C10.2724 11.5441 10.5786 11.2378 10.5786 10.86C10.5786 10.4822 10.2724 10.176 9.89459 10.176C9.71317 10.176 9.53918 10.248 9.4109 10.3763C9.28261 10.5046 9.21055 10.6786 9.21055 10.86C9.21055 11.2378 9.5168 11.5441 9.89459 11.5441ZM8.68046 8.43395C8.89722 8.43395 9.09257 8.5647 9.17523 8.76508C9.25788 8.96546 9.2115 9.1959 9.05778 9.34872C8.90405 9.50154 8.67333 9.54654 8.47345 9.4627C8.27356 9.37886 8.14398 9.18274 8.14526 8.96599C8.147 8.67164 8.38611 8.43394 8.68046 8.43395ZM8.14322 17.1019C10.9934 17.1019 12.4692 16.8485 13.2102 16.6268C13.3388 16.5797 13.4423 16.4817 13.4963 16.3558C13.5502 16.2299 13.5498 16.0874 13.4953 15.9618C13.1235 14.8119 12.6242 13.7071 12.0068 12.6682C11.6943 12.1363 11.6334 12.2275 11.4714 12.4702C11.2919 12.7391 10.9884 13.1939 10.0814 13.1939C9.50151 13.1939 8.88198 12.7582 8.23899 12.306C6.96808 11.4121 5.60551 10.4538 4.27644 12.6682C3.66323 13.7083 3.16924 14.8142 2.80384 15.9649C2.74965 16.0886 2.74806 16.2289 2.79942 16.3537C2.85079 16.4786 2.95069 16.5771 3.07619 16.6268C3.80141 16.8485 5.29302 17.1019 8.14322 17.1019Z" fill="#63686B"/>
</svg>
