<svg width="28" height="28" viewBox="0 0 28 28" fill="none" xmlns="http://www.w3.org/2000/svg">
<circle cx="14" cy="14" r="13.5" fill="white" stroke="#E2E8F0"/>
<path fill-rule="evenodd" clip-rule="evenodd" d="M18.6048 13.9998C18.6048 15.0202 19.432 15.8473 20.4523 15.8473C21.4726 15.8473 22.2998 15.0202 22.2998 13.9998C22.2998 12.9795 21.4726 12.1523 20.4523 12.1523C19.432 12.1523 18.6048 12.9795 18.6048 13.9998ZM12.1523 13.9998C12.1523 15.0202 12.9795 15.8473 13.9998 15.8473C15.0202 15.8473 15.8473 15.0202 15.8473 13.9998C15.8473 12.9795 15.0202 12.1523 13.9998 12.1523C12.9795 12.1523 12.1523 12.9795 12.1523 13.9998ZM7.54731 15.8473C6.52696 15.8473 5.6998 15.0202 5.6998 13.9998C5.6998 12.9795 6.52696 12.1523 7.54731 12.1523C8.56765 12.1523 9.39481 12.9795 9.39481 13.9998C9.39481 15.0202 8.56765 15.8473 7.54731 15.8473Z" fill="#0072BC"/>
</svg>
