<svg width="18" height="19" viewBox="0 0 18 19" fill="none" xmlns="http://www.w3.org/2000/svg">
<path d="M3 2.75H15C15.3978 2.75 15.7794 2.90804 16.0607 3.18934C16.342 3.47064 16.5 3.85218 16.5 4.25V8.75C16.5 10.7391 15.7098 12.6468 14.3033 14.0533C12.8968 15.4598 10.9891 16.25 9 16.25C8.01509 16.25 7.03982 16.056 6.12987 15.6791C5.21993 15.3022 4.39314 14.7497 3.6967 14.0533C2.29018 12.6468 1.5 10.7391 1.5 8.75V4.25C1.5 3.85218 1.65804 3.47064 1.93934 3.18934C2.22064 2.90804 2.60218 2.75 3 2.75V2.75Z" stroke="#828282" stroke-width="2" stroke-linecap="round" stroke-linejoin="round"/>
<path d="M6 8L9 11L12 8" stroke="#828282" stroke-width="2" stroke-linecap="round" stroke-linejoin="round"/>
</svg>
