<svg width="303" height="39" viewBox="0 0 303 39" fill="none" xmlns="http://www.w3.org/2000/svg">
<rect opacity="0.55" width="303" height="39" rx="3" fill="#EBEBEB"/>
<path d="M52.152 19.113C52.1147 19.1737 52.075 19.218 52.033 19.246C51.991 19.2693 51.9373 19.281 51.872 19.281C51.7973 19.281 51.7133 19.2553 51.62 19.204C51.5313 19.1527 51.4217 19.0967 51.291 19.036C51.165 18.9753 51.0157 18.9193 50.843 18.868C50.6703 18.8167 50.465 18.791 50.227 18.791C50.031 18.791 49.8513 18.8167 49.688 18.868C49.5293 18.9147 49.394 18.9823 49.282 19.071C49.17 19.155 49.0837 19.2577 49.023 19.379C48.9623 19.4957 48.932 19.6217 48.932 19.757C48.932 19.9343 48.9833 20.0813 49.086 20.198C49.1933 20.3147 49.331 20.415 49.499 20.499C49.6717 20.583 49.8653 20.66 50.08 20.73C50.2993 20.7953 50.521 20.8653 50.745 20.94C50.9737 21.0147 51.1953 21.101 51.41 21.199C51.6293 21.2923 51.823 21.4113 51.991 21.556C52.1637 21.696 52.3013 21.8663 52.404 22.067C52.5113 22.2677 52.565 22.5127 52.565 22.802C52.565 23.1333 52.5043 23.4413 52.383 23.726C52.2663 24.006 52.0913 24.2487 51.858 24.454C51.6293 24.6593 51.3447 24.8203 51.004 24.937C50.6633 25.0537 50.2737 25.112 49.835 25.112C49.345 25.112 48.8923 25.0303 48.477 24.867C48.0617 24.7037 47.714 24.496 47.434 24.244L47.756 23.719C47.7933 23.6537 47.84 23.6047 47.896 23.572C47.952 23.5347 48.0267 23.516 48.12 23.516C48.2087 23.516 48.2997 23.5487 48.393 23.614C48.4863 23.6793 48.5983 23.7517 48.729 23.831C48.8597 23.9057 49.0183 23.9757 49.205 24.041C49.3917 24.1017 49.625 24.132 49.905 24.132C50.1383 24.132 50.3413 24.104 50.514 24.048C50.6867 23.9873 50.829 23.908 50.941 23.81C51.0577 23.7073 51.144 23.5907 51.2 23.46C51.256 23.3293 51.284 23.1917 51.284 23.047C51.284 22.8603 51.2303 22.7063 51.123 22.585C51.0203 22.459 50.8827 22.3517 50.71 22.263C50.542 22.1743 50.3483 22.0973 50.129 22.032C49.9097 21.9667 49.6857 21.8967 49.457 21.822C49.2283 21.7473 49.0043 21.661 48.785 21.563C48.5657 21.465 48.3697 21.3413 48.197 21.192C48.029 21.0427 47.8913 20.8607 47.784 20.646C47.6813 20.4313 47.63 20.17 47.63 19.862C47.63 19.5867 47.686 19.323 47.798 19.071C47.9147 18.819 48.0803 18.5973 48.295 18.406C48.5143 18.2147 48.7827 18.063 49.1 17.951C49.422 17.8343 49.7883 17.776 50.199 17.776C50.6703 17.776 51.095 17.8507 51.473 18C51.8557 18.1493 52.1823 18.3547 52.453 18.616L52.152 19.113ZM58.754 20.653C58.754 20.3823 58.7143 20.1327 58.635 19.904C58.5603 19.6753 58.4483 19.477 58.299 19.309C58.1497 19.141 57.9677 19.0103 57.753 18.917C57.5383 18.8237 57.291 18.777 57.011 18.777C56.437 18.777 55.9843 18.9427 55.653 19.274C55.3263 19.6053 55.1187 20.065 55.03 20.653H58.754ZM59.881 23.985C59.713 24.181 59.5193 24.3513 59.3 24.496C59.0807 24.636 58.8473 24.7503 58.6 24.839C58.3527 24.9277 58.096 24.993 57.83 25.035C57.5687 25.077 57.3097 25.098 57.053 25.098C56.563 25.098 56.108 25.0163 55.688 24.853C55.2727 24.685 54.911 24.4423 54.603 24.125C54.2997 23.803 54.0617 23.4063 53.889 22.935C53.721 22.459 53.637 21.913 53.637 21.297C53.637 20.8023 53.714 20.3427 53.868 19.918C54.022 19.4887 54.2413 19.1153 54.526 18.798C54.8153 18.4807 55.1677 18.231 55.583 18.049C55.9983 17.867 56.465 17.776 56.983 17.776C57.417 17.776 57.816 17.8483 58.18 17.993C58.5487 18.133 58.866 18.3383 59.132 18.609C59.398 18.8797 59.6057 19.2133 59.755 19.61C59.909 20.0067 59.986 20.4593 59.986 20.968C59.986 21.178 59.9627 21.3203 59.916 21.395C59.8693 21.465 59.783 21.5 59.657 21.5H54.995C55.009 21.9247 55.0697 22.2957 55.177 22.613C55.2843 22.9257 55.4313 23.187 55.618 23.397C55.8093 23.607 56.0357 23.7633 56.297 23.866C56.5583 23.9687 56.85 24.02 57.172 24.02C57.4753 24.02 57.7367 23.985 57.956 23.915C58.18 23.845 58.3713 23.7703 58.53 23.691C58.6933 23.607 58.8287 23.53 58.936 23.46C59.048 23.39 59.146 23.355 59.23 23.355C59.342 23.355 59.4283 23.397 59.489 23.481L59.881 23.985ZM62.8181 23.25C63.0421 23.544 63.2825 23.7493 63.5391 23.866C63.8005 23.9827 64.0921 24.041 64.4141 24.041C65.0395 24.041 65.5225 23.817 65.8631 23.369C66.2085 22.9163 66.3811 22.2583 66.3811 21.395C66.3811 20.9423 66.3415 20.5573 66.2621 20.24C66.1875 19.918 66.0755 19.6567 65.9261 19.456C65.7815 19.2507 65.6018 19.1013 65.3871 19.008C65.1725 18.91 64.9298 18.861 64.6591 18.861C64.2625 18.861 63.9171 18.9497 63.6231 19.127C63.3338 19.3043 63.0655 19.5563 62.8181 19.883V23.25ZM62.7481 18.952C62.8975 18.7747 63.0561 18.6137 63.2241 18.469C63.3968 18.3197 63.5811 18.1937 63.7771 18.091C63.9731 17.9837 64.1808 17.902 64.4001 17.846C64.6241 17.7853 64.8621 17.755 65.1141 17.755C65.5201 17.755 65.8865 17.8343 66.2131 17.993C66.5445 18.1517 66.8268 18.385 67.0601 18.693C67.2935 19.001 67.4731 19.3813 67.5991 19.834C67.7298 20.2867 67.7951 20.807 67.7951 21.395C67.7951 21.9223 67.7228 22.4123 67.5781 22.865C67.4381 23.313 67.2351 23.7027 66.9691 24.034C66.7078 24.3653 66.3858 24.6267 66.0031 24.818C65.6251 25.0047 65.1981 25.098 64.7221 25.098C64.2975 25.098 63.9335 25.028 63.6301 24.888C63.3268 24.748 63.0561 24.552 62.8181 24.3V27.387H61.4531V17.888H62.2721C62.4635 17.888 62.5825 17.979 62.6291 18.161L62.7481 18.952ZM71.4584 25.112C70.8844 25.112 70.4411 24.951 70.1284 24.629C69.8204 24.307 69.6664 23.8473 69.6664 23.25V18.994H68.8404C68.7611 18.994 68.6934 18.9707 68.6374 18.924C68.5861 18.8727 68.5604 18.798 68.5604 18.7V18.147L69.7154 17.986L70.0234 15.865C70.0421 15.7857 70.0771 15.725 70.1284 15.683C70.1844 15.6363 70.2544 15.613 70.3384 15.613H71.0314V18H73.0474V18.994H71.0314V23.159C71.0314 23.439 71.0991 23.649 71.2344 23.789C71.3744 23.9243 71.5518 23.992 71.7664 23.992C71.8924 23.992 71.9998 23.9757 72.0884 23.943C72.1818 23.9103 72.2611 23.8753 72.3264 23.838C72.3918 23.796 72.4478 23.7587 72.4944 23.726C72.5411 23.6933 72.5831 23.677 72.6204 23.677C72.6671 23.677 72.7021 23.6887 72.7254 23.712C72.7534 23.7307 72.7814 23.7633 72.8094 23.81L73.2154 24.468C72.9914 24.6733 72.7254 24.832 72.4174 24.944C72.1094 25.056 71.7898 25.112 71.4584 25.112ZM78.9747 20.653C78.9747 20.3823 78.935 20.1327 78.8557 19.904C78.781 19.6753 78.669 19.477 78.5197 19.309C78.3704 19.141 78.1884 19.0103 77.9737 18.917C77.759 18.8237 77.5117 18.777 77.2317 18.777C76.6577 18.777 76.205 18.9427 75.8737 19.274C75.547 19.6053 75.3394 20.065 75.2507 20.653H78.9747ZM80.1017 23.985C79.9337 24.181 79.74 24.3513 79.5207 24.496C79.3014 24.636 79.068 24.7503 78.8207 24.839C78.5734 24.9277 78.3167 24.993 78.0507 25.035C77.7894 25.077 77.5304 25.098 77.2737 25.098C76.7837 25.098 76.3287 25.0163 75.9087 24.853C75.4934 24.685 75.1317 24.4423 74.8237 24.125C74.5204 23.803 74.2824 23.4063 74.1097 22.935C73.9417 22.459 73.8577 21.913 73.8577 21.297C73.8577 20.8023 73.9347 20.3427 74.0887 19.918C74.2427 19.4887 74.462 19.1153 74.7467 18.798C75.036 18.4807 75.3884 18.231 75.8037 18.049C76.219 17.867 76.6857 17.776 77.2037 17.776C77.6377 17.776 78.0367 17.8483 78.4007 17.993C78.7694 18.133 79.0867 18.3383 79.3527 18.609C79.6187 18.8797 79.8264 19.2133 79.9757 19.61C80.1297 20.0067 80.2067 20.4593 80.2067 20.968C80.2067 21.178 80.1834 21.3203 80.1367 21.395C80.09 21.465 80.0037 21.5 79.8777 21.5H75.2157C75.2297 21.9247 75.2904 22.2957 75.3977 22.613C75.505 22.9257 75.652 23.187 75.8387 23.397C76.03 23.607 76.2564 23.7633 76.5177 23.866C76.779 23.9687 77.0707 24.02 77.3927 24.02C77.696 24.02 77.9574 23.985 78.1767 23.915C78.4007 23.845 78.592 23.7703 78.7507 23.691C78.914 23.607 79.0494 23.53 79.1567 23.46C79.2687 23.39 79.3667 23.355 79.4507 23.355C79.5627 23.355 79.649 23.397 79.7097 23.481L80.1017 23.985ZM81.6738 25V17.888H82.4928C82.6842 17.888 82.8032 17.979 82.8498 18.161L82.9478 18.84C83.2092 18.5273 83.4985 18.273 83.8158 18.077C84.1378 17.8763 84.5135 17.776 84.9428 17.776C85.4142 17.776 85.7968 17.9067 86.0908 18.168C86.3848 18.4247 86.5995 18.7747 86.7348 19.218C86.8375 18.966 86.9705 18.749 87.1338 18.567C87.2972 18.385 87.4792 18.2357 87.6798 18.119C87.8805 18.0023 88.0928 17.916 88.3168 17.86C88.5455 17.804 88.7765 17.776 89.0098 17.776C89.3878 17.776 89.7238 17.8367 90.0178 17.958C90.3165 18.0747 90.5685 18.2473 90.7738 18.476C90.9792 18.7047 91.1355 18.987 91.2428 19.323C91.3502 19.659 91.4038 20.0417 91.4038 20.471V25H90.0318V20.471C90.0318 19.939 89.9152 19.5377 89.6818 19.267C89.4532 18.9963 89.1172 18.861 88.6738 18.861C88.4778 18.861 88.2912 18.896 88.1138 18.966C87.9365 19.0313 87.7802 19.1317 87.6448 19.267C87.5142 19.4023 87.4092 19.5703 87.3298 19.771C87.2552 19.9717 87.2178 20.205 87.2178 20.471V25H85.8458V20.471C85.8458 19.9203 85.7362 19.5143 85.5168 19.253C85.2975 18.9917 84.9755 18.861 84.5508 18.861C84.2568 18.861 83.9838 18.938 83.7318 19.092C83.4798 19.246 83.2488 19.456 83.0388 19.722V25H81.6738ZM94.6053 23.25C94.8293 23.544 95.0719 23.7493 95.3333 23.866C95.5946 23.9827 95.8793 24.041 96.1873 24.041C96.8219 24.041 97.3096 23.8147 97.6503 23.362C97.9956 22.9093 98.1683 22.2257 98.1683 21.311C98.1683 20.4663 98.0166 19.848 97.7133 19.456C97.4099 19.0593 96.9806 18.861 96.4253 18.861C96.0333 18.861 95.6926 18.9497 95.4033 19.127C95.1186 19.3043 94.8526 19.5563 94.6053 19.883V23.25ZM94.6053 18.868C94.8993 18.5413 95.2329 18.2777 95.6063 18.077C95.9796 17.8763 96.4043 17.776 96.8803 17.776C97.2956 17.776 97.6689 17.8577 98.0003 18.021C98.3363 18.1797 98.6209 18.4107 98.8543 18.714C99.0876 19.0127 99.2673 19.3767 99.3933 19.806C99.5193 20.2353 99.5823 20.7207 99.5823 21.262C99.5823 21.836 99.5099 22.3587 99.3653 22.83C99.2253 23.3013 99.0223 23.705 98.7563 24.041C98.4949 24.377 98.1753 24.6383 97.7973 24.825C97.4193 25.007 96.9946 25.098 96.5233 25.098C96.2946 25.098 96.0846 25.0747 95.8933 25.028C95.7019 24.986 95.5246 24.923 95.3613 24.839C95.2026 24.755 95.0556 24.6523 94.9203 24.531C94.7849 24.4097 94.6566 24.272 94.5353 24.118L94.4723 24.713C94.4349 24.9043 94.3183 25 94.1223 25H93.2403V14.668H94.6053V18.868ZM105.813 20.653C105.813 20.3823 105.773 20.1327 105.694 19.904C105.619 19.6753 105.507 19.477 105.358 19.309C105.208 19.141 105.026 19.0103 104.812 18.917C104.597 18.8237 104.35 18.777 104.07 18.777C103.496 18.777 103.043 18.9427 102.712 19.274C102.385 19.6053 102.177 20.065 102.089 20.653H105.813ZM106.94 23.985C106.772 24.181 106.578 24.3513 106.359 24.496C106.139 24.636 105.906 24.7503 105.659 24.839C105.411 24.9277 105.155 24.993 104.889 25.035C104.627 25.077 104.368 25.098 104.112 25.098C103.622 25.098 103.167 25.0163 102.747 24.853C102.331 24.685 101.97 24.4423 101.662 24.125C101.358 23.803 101.12 23.4063 100.948 22.935C100.78 22.459 100.696 21.913 100.696 21.297C100.696 20.8023 100.773 20.3427 100.927 19.918C101.081 19.4887 101.3 19.1153 101.585 18.798C101.874 18.4807 102.226 18.231 102.642 18.049C103.057 17.867 103.524 17.776 104.042 17.776C104.476 17.776 104.875 17.8483 105.239 17.993C105.607 18.133 105.925 18.3383 106.191 18.609C106.457 18.8797 106.664 19.2133 106.814 19.61C106.968 20.0067 107.045 20.4593 107.045 20.968C107.045 21.178 107.021 21.3203 106.975 21.395C106.928 21.465 106.842 21.5 106.716 21.5H102.054C102.068 21.9247 102.128 22.2957 102.236 22.613C102.343 22.9257 102.49 23.187 102.677 23.397C102.868 23.607 103.094 23.7633 103.356 23.866C103.617 23.9687 103.909 24.02 104.231 24.02C104.534 24.02 104.795 23.985 105.015 23.915C105.239 23.845 105.43 23.7703 105.589 23.691C105.752 23.607 105.887 23.53 105.995 23.46C106.107 23.39 106.205 23.355 106.289 23.355C106.401 23.355 106.487 23.397 106.548 23.481L106.94 23.985ZM109.8 19.253C110.028 18.7863 110.304 18.42 110.626 18.154C110.948 17.888 111.335 17.755 111.788 17.755C111.942 17.755 112.086 17.7737 112.222 17.811C112.362 17.8437 112.483 17.895 112.586 17.965L112.495 18.994C112.462 19.12 112.385 19.183 112.264 19.183C112.198 19.183 112.1 19.1713 111.97 19.148C111.839 19.12 111.699 19.106 111.55 19.106C111.33 19.106 111.137 19.1387 110.969 19.204C110.801 19.2647 110.649 19.358 110.514 19.484C110.383 19.6053 110.266 19.757 110.164 19.939C110.061 20.1163 109.965 20.3193 109.877 20.548V25H108.512V17.888H109.296C109.445 17.888 109.545 17.916 109.597 17.972C109.653 18.0233 109.692 18.1167 109.716 18.252L109.8 19.253Z" fill="#4F4F4F"/>
<path d="M30 26C30 26.5304 29.7893 27.0391 29.4142 27.4142C29.0391 27.7893 28.5304 28 28 28H12C11.4696 28 10.9609 27.7893 10.5858 27.4142C10.2107 27.0391 10 26.5304 10 26V12C10 11.4696 10.2107 10.9609 10.5858 10.5858C10.9609 10.2107 11.4696 10 12 10H17L19 13H28C28.5304 13 29.0391 13.2107 29.4142 13.5858C29.7893 13.9609 30 14.4696 30 15V26Z" fill="#4F4F4F" stroke="#4F4F4F" stroke-width="2" stroke-linecap="round" stroke-linejoin="round"/>
</svg>
