<svg width="18" height="19" viewBox="0 0 18 19" fill="none" xmlns="http://www.w3.org/2000/svg">
<path d="M9.01724 0C4.05626 0 0.0342541 4.02201 0.0342541 8.98276L-0.00109863 18.0013L9.01724 17.9657C13.978 17.9657 18 13.9437 18 8.98299C18 4.02201 13.978 0 9.01724 0ZM8.99933 3.417C8.33092 3.417 7.78931 3.95861 7.78931 4.62702C7.78931 5.29542 8.33092 5.83727 8.99933 5.83727C9.66798 5.83727 10.2096 5.29542 10.2096 4.62702C10.2096 3.95861 9.66798 3.417 8.99933 3.417ZM7.84894 8.19744V13.4339C7.84894 14.956 10.15 14.956 10.15 13.4339V8.19744C10.15 6.67537 7.84894 6.67561 7.84894 8.19744ZM9.01724 1.33211C13.2429 1.33211 16.6681 4.75735 16.6681 8.98299C16.6681 13.2084 13.2429 16.6339 9.01724 16.6339L1.33124 16.6688L1.36612 8.98276C1.36612 4.75735 4.7916 1.33211 9.01724 1.33211Z" fill="#C5CACE"/>
</svg>
