<svg width="15" height="17" viewBox="0 0 15 17" fill="none" xmlns="http://www.w3.org/2000/svg">
<path d="M3.95668 3.76688C4.39004 3.76688 4.78554 3.59437 5.06743 3.29986C5.35775 3.01796 5.53446 2.62247 5.53446 2.1891C5.53446 1.74733 5.36195 1.35183 5.06743 1.06993C4.78133 0.783832 4.39004 0.611328 3.95668 0.611328C3.5149 0.611328 3.11941 0.783832 2.83751 1.06993C2.55562 1.35604 2.37891 1.74733 2.37891 2.1891C2.37891 3.05583 3.07733 3.76688 3.95668 3.76688Z" fill="#4A5568"/>
<path d="M3.95633 4.55811C2.21447 4.55811 0.800781 5.97179 0.800781 7.71365V11.656H1.58756V11.6644L2.37856 16.3893H5.53411L6.33772 11.6644V11.656H7.11188V7.70945C7.11188 6.84272 6.75846 6.05173 6.19046 5.47532C5.60984 4.91153 4.82306 4.55811 3.95633 4.55811Z" fill="#4A5568"/>
<path d="M12.6318 2.98009V0.611328H10.2672V2.98009H7.89844V5.34465H10.2672V7.71342H12.6318V5.34465H15.0005V2.98009H12.6318Z" fill="#4A5568"/>
</svg>
