<svg width="62" height="62" viewBox="0 0 62 62" fill="none" xmlns="http://www.w3.org/2000/svg">
<circle cx="31" cy="31" r="31" fill="#EBF8FF"/>
<path d="M44.2484 24.2456H42.1807C41.8854 25.7225 41.2946 27.1255 40.4823 28.307L41.9592 29.7839C42.3284 30.1531 42.3284 30.7439 41.9592 31.1131L40.1869 32.8854C39.8177 33.2546 39.3008 33.2546 38.9316 32.9592C39.1531 31.0393 39.227 28.2332 38.0455 26.9779C37.7501 26.6825 37.5286 26.4609 37.0855 26.0917C36.9378 26.0179 36.864 25.944 36.7163 25.8702C37.4547 24.7625 37.8978 23.4333 37.8978 22.0303C37.8978 18.2643 34.8702 15.2367 31.1042 15.2367C27.3381 15.2367 24.3105 18.2643 24.3105 22.0303C24.3105 23.4333 24.7536 24.7625 25.492 25.8702C25.3443 25.944 25.2705 26.0179 25.1228 26.0917C24.6798 26.3871 24.4582 26.6086 24.1628 26.9779C22.9813 28.1594 23.0552 30.9654 23.2767 32.9592C22.9075 33.2546 22.3906 33.1807 22.0214 32.8854L20.2491 31.1131C19.8799 30.7439 19.8799 30.1531 20.2491 29.7839L21.726 28.307C20.9137 27.1255 20.323 25.7225 20.0276 24.2456H17.96C17.4431 24.2456 17 23.8026 17 23.2857V20.775C17 20.2581 17.4431 19.815 17.96 19.815H20.0276C20.323 18.3381 20.9137 16.9351 21.726 15.7536L20.2491 14.2767C19.8799 13.9075 19.8799 13.3168 20.2491 12.9475L22.0214 11.1753C22.3906 10.8061 22.9813 10.8061 23.3506 11.1753L24.8274 12.6522C26.0089 11.8399 27.412 11.2491 28.8888 10.9538V8.95997C28.8888 8.44306 29.3319 8 29.8488 8H32.3595C32.8764 8 33.3195 8.44306 33.3195 8.95997V11.0276C34.7964 11.323 36.1994 11.9137 37.3809 12.726L38.8578 11.2491C39.227 10.8799 39.8177 10.8799 40.1869 11.2491L41.9592 13.0214C42.3284 13.3906 42.3284 13.9813 41.9592 14.3506L40.4823 15.8274C41.2946 17.0089 41.8854 18.412 42.1807 19.8888H44.2484C44.7653 19.8888 45.2083 20.3319 45.2083 20.8488V23.3595C45.1345 23.8026 44.7653 24.2456 44.2484 24.2456ZM31.1042 25.5748C34.3533 25.5748 33.8364 21.218 33.8364 21.218C33.6887 18.3381 31.3257 18.412 31.1042 18.412C30.8826 18.412 28.4458 18.412 28.3719 21.218C28.3719 21.2919 27.855 25.5748 31.1042 25.5748ZM25.6397 28.5286C24.9751 29.1932 25.2705 33.033 25.6397 34.4361C26.0089 35.8391 27.1166 37.8329 27.1166 37.8329C27.3381 38.3498 27.4858 38.8667 27.5597 39.4574L28.9627 53.4878C29.0365 53.9308 29.4058 54.3 29.8488 54.3H31.1042H32.3595C32.8026 54.3 33.1718 53.9308 33.2456 53.4878L34.6487 39.4574C34.7225 38.8667 34.8702 38.3498 35.0917 37.8329C35.0917 37.8329 36.1994 35.8391 36.5686 34.4361C36.9378 33.033 37.2332 29.1932 36.5686 28.5286C36.2732 28.2332 36.1255 28.0855 35.8302 27.864C34.6487 26.9778 33.1718 26.3871 33.1718 26.3871L32.0641 29.9316L31.3995 28.0855C32.581 26.4609 31.2518 26.3871 31.1042 26.3871C30.9565 26.3871 29.6273 26.4609 30.8088 28.0855L30.1442 29.9316L29.0365 26.3871C29.0365 26.3871 27.5597 26.9778 26.3782 27.864C26.0828 28.0855 25.9351 28.2332 25.6397 28.5286Z" fill="#3182CE"/>
</svg>
