<svg width="14" height="22" viewBox="0 0 14 22" fill="none" xmlns="http://www.w3.org/2000/svg">
<path d="M12.757 7.49169H11.8035C11.6673 8.17275 11.3949 8.81976 11.0203 9.36461L11.7014 10.0457C11.8716 10.2159 11.8716 10.4884 11.7014 10.6586L10.8841 11.4759C10.7138 11.6462 10.4755 11.6462 10.3052 11.51C10.4073 10.6246 10.4414 9.33056 9.89655 8.75166C9.76034 8.61545 9.65818 8.51329 9.45386 8.34302C9.38576 8.30897 9.3517 8.27491 9.2836 8.24086C9.62413 7.73006 9.82845 7.11711 9.82845 6.4701C9.82845 4.73339 8.43227 3.33721 6.69556 3.33721C4.95885 3.33721 3.56267 4.73339 3.56267 6.4701C3.56267 7.11711 3.76699 7.73006 4.10752 8.24086C4.03941 8.27491 4.00536 8.30897 3.93725 8.34302C3.73293 8.47923 3.63077 8.58139 3.49456 8.75166C2.94971 9.29651 2.98376 10.5905 3.08592 11.51C2.91566 11.6462 2.67729 11.6121 2.50702 11.4759L1.68974 10.6586C1.51948 10.4884 1.51948 10.2159 1.68974 10.0457L2.37081 9.36461C1.99622 8.81976 1.7238 8.17275 1.58759 7.49169H0.634098C0.395726 7.49169 0.191406 7.28737 0.191406 7.049V5.89119C0.191406 5.65282 0.395726 5.4485 0.634098 5.4485H1.58759C1.7238 4.76744 1.99622 4.12043 2.37081 3.57558L1.68974 2.89452C1.51948 2.72425 1.51948 2.45183 1.68974 2.28156L2.50702 1.46428C2.67729 1.29402 2.94971 1.29402 3.11998 1.46428L3.80104 2.14535C4.34589 1.77076 4.9929 1.49834 5.67396 1.36213V0.442691C5.67396 0.204319 5.87828 0 6.11665 0H7.27446C7.51283 0 7.71715 0.204319 7.71715 0.442691V1.39618C8.39821 1.53239 9.04522 1.80482 9.59007 2.1794L10.2711 1.49834C10.4414 1.32807 10.7138 1.32807 10.8841 1.49834L11.7014 2.31561C11.8716 2.48588 11.8716 2.7583 11.7014 2.92857L11.0203 3.60963C11.3949 4.15448 11.6673 4.80149 11.8035 5.48256H12.757C12.9954 5.48256 13.1997 5.68687 13.1997 5.92525V7.08305C13.1657 7.28737 12.9954 7.49169 12.757 7.49169ZM6.69556 8.10465C8.1939 8.10465 7.95552 6.09551 7.95552 6.09551C7.88742 4.76744 6.79772 4.80149 6.69556 4.80149C6.5934 4.80149 5.46964 4.80149 5.43559 6.09551C5.43559 6.12957 5.19722 8.10465 6.69556 8.10465ZM4.17562 9.46677C3.86915 9.77325 4.00536 11.544 4.17562 12.191C4.34589 12.838 4.85669 13.7575 4.85669 13.7575C4.95885 13.9958 5.02695 14.2342 5.06101 14.5066L5.70802 20.9767C5.74207 21.1811 5.91233 21.3513 6.11665 21.3513H6.69556H7.27446C7.47878 21.3513 7.64905 21.1811 7.6831 20.9767L8.33011 14.5066C8.36416 14.2342 8.43227 13.9958 8.53443 13.7575C8.53443 13.7575 9.04523 12.838 9.21549 12.191C9.38576 11.544 9.52197 9.77325 9.21549 9.46677C9.07928 9.33056 9.01117 9.26245 8.87496 9.16029C8.33011 8.75166 7.64905 8.47923 7.64905 8.47923L7.13825 10.1138L6.83177 9.26245C7.37662 8.51329 6.76366 8.47923 6.69556 8.47923C6.62745 8.47923 6.01449 8.51329 6.55934 9.26245L6.25287 10.1138L5.74207 8.47923C5.74207 8.47923 5.06101 8.75166 4.51616 9.16029C4.37994 9.26245 4.31184 9.33056 4.17562 9.46677Z" fill="#4A5568"/>
</svg>
