<svg width="14" height="14" viewBox="0 0 14 14" fill="none" xmlns="http://www.w3.org/2000/svg">
<path d="M11.6654 12.25V11.0833C11.6654 10.4645 11.4195 9.871 10.9819 9.43342C10.5444 8.99583 9.95087 8.75 9.33203 8.75L6.9987 9.91667L4.66536 8.75C4.04653 8.75 3.45303 8.99583 3.01545 9.43342C2.57786 9.871 2.33203 10.4645 2.33203 11.0833V12.25" stroke="#A0AEC0" stroke-linecap="round" stroke-linejoin="round"/>
<path d="M7.0013 6.41667C8.28997 6.41667 9.33464 5.372 9.33464 4.08333C9.33464 2.79467 8.28997 1.75 7.0013 1.75C5.71264 1.75 4.66797 2.79467 4.66797 4.08333C4.66797 5.372 5.71264 6.41667 7.0013 6.41667Z" stroke="#A0AEC0" stroke-linecap="round" stroke-linejoin="round"/>
</svg>
