<svg width="62" height="62" viewBox="0 0 62 62" fill="none" xmlns="http://www.w3.org/2000/svg">
<circle cx="31" cy="31" r="31" fill="#E6FFFA"/>
<path d="M26.0457 22.0444C27.0131 22.0444 27.896 21.6594 28.5253 21.0019C29.1734 20.3726 29.5679 19.4897 29.5679 18.5222C29.5679 17.536 29.1828 16.6531 28.5253 16.0238C27.8866 15.3851 27.0131 15 26.0457 15C25.0594 15 24.1765 15.3851 23.5472 16.0238C22.9179 16.6625 22.5234 17.536 22.5234 18.5222C22.5234 20.4571 24.0826 22.0444 26.0457 22.0444Z" fill="#319795"/>
<path d="M26.0444 23.8101C22.1559 23.8101 19 26.966 19 30.8545V39.6554H20.7564V39.6742L22.5222 50.222H29.5667L31.3607 39.6742V39.6554H33.0889V30.8451C33.0889 28.9102 32.2999 27.1444 31.0319 25.8576C29.7357 24.599 27.9793 23.8101 26.0444 23.8101Z" fill="#319795"/>
<path d="M45.4104 20.288V15H40.1318V20.288H34.8438V25.5667H40.1318V30.8547H45.4104V25.5667H50.6985V20.288H45.4104Z" fill="#319795"/>
</svg>
