<svg width="17" height="22" viewBox="0 0 17 22" fill="none" xmlns="http://www.w3.org/2000/svg">
<path fill-rule="evenodd" clip-rule="evenodd" d="M0.732422 7.76667C0.732422 3.4597 4.19212 0 8.49909 0C12.8061 0 16.2658 3.4597 16.2658 7.76667C16.2658 11.8618 9.34636 20.5464 9.06394 20.8994C8.92272 21.1112 8.71091 21.1818 8.49909 21.1818C8.28727 21.1818 8.07545 21.0406 7.93424 20.8994C7.65181 20.5464 0.732422 11.8618 0.732422 7.76667ZM3.55839 7.76569C3.55839 5.01206 5.74717 2.82327 8.50081 2.82327C11.2544 2.82327 13.4432 5.01206 13.4432 7.76569C13.4432 10.5193 11.2544 12.7081 8.50081 12.7081C5.74717 12.7081 3.55839 10.5193 3.55839 7.76569ZM8.49951 19.3456C6.31073 16.5213 2.14497 10.5198 2.14497 7.76618C2.14497 4.23588 4.96921 1.41163 8.49951 1.41163C12.0298 1.41163 14.8541 4.23588 14.8541 7.76618C14.8541 10.5198 10.6883 16.5213 8.49951 19.3456ZM10.6162 7.05955H9.20411V5.64743H7.79199V7.05955H6.37987V8.47167H7.79199V9.88379H9.20411V8.47167H10.6162V7.05955Z" fill="#63686B"/>
</svg>
